<svg  height="40" viewBox="0 0 881 380" fill="none" xmlns="http://www.w3.org/2000/svg">
<path d="M622.15 373.588C622.15 375.128 620.1 375.128 620.61 377.188C605.71 377.188 590.81 379.248 576.42 377.698C569.74 377.188 563.06 376.158 556.9 376.158C555.36 371.018 553.3 366.398 550.73 362.288C544.56 344.308 536.34 328.888 529.66 310.388C526.06 302.168 521.95 294.978 519.9 285.208L509.62 258.998C501.91 237.928 491.12 217.888 481.36 195.798C479.82 191.688 477.25 188.088 476.74 183.468C475.2 182.958 474.68 179.868 474.17 178.328C473.66 215.328 474.68 248.718 475.2 284.178C475.2 290.338 475.2 296.508 475.71 302.678C475.71 309.358 476.74 315.528 476.74 321.688C476.74 326.308 475.71 330.938 475.71 335.048C474.17 347.898 474.17 361.258 474.17 374.098C472.12 374.608 471.09 373.588 470.57 375.638C452.59 381.808 432.03 379.238 411.99 375.638C410.45 372.038 409.93 363.818 411.99 361.248C410.45 357.648 410.96 352.518 410.96 348.918C411.47 342.238 411.99 335.048 411.47 328.368C410.95 321.688 409.93 315.518 409.93 309.868C409.42 302.158 410.44 295.478 410.96 287.778C411.47 274.928 409.93 264.138 410.45 250.268V210.708C410.45 204.538 411.48 198.378 410.96 192.728C410.45 176.288 411.99 158.818 411.99 140.828C411.48 101.778 409.93 62.7282 411.99 19.0482C428.43 16.4782 450.01 14.4282 468 16.9982C468.51 18.5382 469.03 17.5082 470.57 18.0282C476.22 26.7582 479.3 37.5582 482.9 47.8282C492.66 62.2182 496.77 80.7082 504.48 96.6382C510.65 110.508 516.81 123.868 522.46 137.748C533.25 166.518 544.55 193.758 558.43 219.958L560.48 187.588C560.99 175.768 560.48 165.498 559.97 153.678C559.97 131.068 560.48 107.948 559.97 84.8282V70.9582C559.97 50.9182 559.46 36.0182 559.97 17.5182C581.04 13.9182 602.1 13.4082 621.12 19.0582C621.63 30.8782 621.63 41.6682 621.63 53.4882C621.63 65.3082 622.14 76.6082 622.14 88.4282C621.63 100.248 620.6 112.068 620.6 123.878C622.14 162.928 618.54 204.548 620.09 239.488C620.6 248.218 620.09 257.468 620.09 267.238C620.6 285.218 620.6 303.718 622.14 321.708C622.65 339.688 620.6 356.648 622.14 373.608L622.15 373.588Z" fill="#27C5CD"/>
<path d="M880.089 199.918C880.089 220.468 879.059 236.398 879.579 253.358C880.089 261.068 879.579 269.288 879.069 277.508C879.069 281.618 877.529 285.728 880.099 288.298C879.589 305.258 873.929 321.698 867.249 335.568C859.539 349.958 848.749 359.208 836.419 368.968L820.489 374.108C816.889 374.618 812.779 374.108 809.189 374.618C807.649 374.618 805.589 375.128 804.049 375.128L785.549 376.158L738.789 378.728C726.459 378.728 715.149 378.728 704.359 378.218C700.759 377.708 697.679 378.728 694.079 378.218C692.019 376.678 693.049 375.648 689.459 376.158C687.919 365.878 687.399 357.148 686.889 347.388C686.379 345.328 687.399 343.788 687.399 341.738C687.399 337.628 686.889 333.518 686.889 329.408C686.889 310.908 687.399 293.958 687.919 275.458C687.919 268.778 687.409 261.588 687.409 253.878C687.409 246.168 686.899 238.978 686.899 231.268C686.899 225.618 688.959 219.968 687.409 214.308C687.409 212.768 686.899 211.738 686.899 210.198C686.389 207.628 686.899 205.058 686.899 201.458C686.899 193.238 686.389 181.418 686.899 172.688C686.899 158.818 685.869 143.398 686.389 129.528C686.899 113.598 686.899 97.6682 685.359 81.7382V71.4582C684.849 56.5582 687.409 36.5182 685.869 20.0782C686.379 18.5382 689.469 18.5382 689.469 16.4782C715.669 14.9382 747.529 15.4482 776.819 17.5082C782.989 17.5082 789.149 17.5082 794.799 18.0182C802.509 19.5582 810.209 21.0982 818.439 20.5882C824.089 24.1882 831.289 26.2382 836.939 29.8382C838.479 30.3482 838.999 31.8982 840.539 32.4082C844.649 34.9782 848.249 35.4882 851.839 39.0882C857.489 43.1982 859.549 46.7982 863.659 52.9582L869.309 62.2082C871.369 67.8582 872.389 74.0282 874.449 80.1882C875.989 86.3582 878.049 92.5182 878.559 98.6882C880.099 112.558 879.069 124.898 878.559 139.278C878.559 153.148 879.589 167.028 880.099 180.898V199.908L880.089 199.918ZM816.889 292.918C818.939 279.048 817.919 263.628 816.379 250.788C817.919 242.058 816.379 234.348 815.869 224.578C815.869 218.928 816.899 214.298 816.379 208.648C815.869 202.998 815.869 198.368 815.869 192.718C817.409 176.788 815.359 161.378 815.869 145.448C815.869 126.438 820.489 101.778 810.729 86.3582C808.159 82.7582 804.569 80.1882 798.909 78.1382L794.279 76.0782C781.949 72.4782 767.559 77.6182 753.689 76.0782C752.149 96.1182 753.689 118.208 753.179 134.138C752.669 140.818 753.179 146.988 753.179 153.668C753.179 164.458 752.149 175.758 752.149 187.578C752.149 199.398 752.659 211.728 752.659 222.518C752.659 237.418 754.199 252.318 753.689 268.248C753.179 284.178 754.719 301.128 753.179 318.088C761.399 319.628 770.649 318.088 776.819 319.628C787.609 319.118 799.939 316.028 807.649 311.918C810.049 310.545 811.763 308.662 812.789 306.268L816.899 292.908L816.889 292.918Z" fill="#27C5CD"/>
<path d="M303.93 130.746C286.77 130.746 274.98 132.736 274.98 132.736C274.98 132.736 274.91 189.766 274.91 235.676C274.91 281.586 263.52 313.946 223.09 313.946C202.19 313.946 185.87 306.646 169.85 284.476C163.04 274.676 156.86 261.966 154.04 255.116L149.18 241.916C141.01 225.056 133.85 208.196 126.19 190.326C122.1 182.156 119.55 172.446 113.42 165.806C119.04 158.146 121.59 150.996 127.21 143.326C128.74 139.746 131.3 137.706 133.34 135.156C135.38 131.576 136.92 129.536 138.45 125.956C140.49 122.376 143.05 120.336 145.09 117.786C145.6 116.256 146.11 114.726 147.13 113.696C149.68 109.606 153.26 106.546 154.79 101.946C164.5 91.2158 171.14 77.4258 179.31 65.6758L183.4 61.0758L186.98 53.9258L191.58 47.2858C195.16 41.6658 196.18 37.0658 199.75 32.9858C199.75 28.8958 201.79 26.8558 202.3 23.2758C200.77 21.7458 200.77 20.7258 200.26 19.1858C186.47 19.1858 172.67 15.0958 158.88 16.6358C151.22 15.1058 143.04 17.1458 135.38 17.1458C134.87 19.1858 133.34 20.2058 131.8 22.2558C130.27 23.7858 131.29 25.3158 129.76 26.8558C125.16 35.5358 119.03 43.7158 112.9 51.8858C110.35 56.4858 108.3 61.0758 105.75 65.1658C99.62 73.8458 95.02 82.0258 89.4 90.7058C81.74 104.496 74.08 117.266 64.37 129.016C63.86 114.716 65.39 91.7258 64.88 73.3358L63.86 19.6958C58.24 17.6558 52.62 17.6558 47 17.1458C45.47 17.1458 43.42 16.1258 41.89 16.1258C37.29 14.5958 29.63 14.5958 24.01 15.1058C16.35 16.6358 7.15 16.6358 0.510002 21.2358C0.510002 40.1358 0.51 56.9958 1.02 76.9158C1.02 81.5158 0.510002 87.6458 0.510002 93.7758C1.02 112.166 2.14577e-06 130.556 0.510002 148.946C0.510002 152.526 0.51 156.096 1.02 159.676C1.02 167.336 0.51 174.996 0 182.666C0 186.246 1.02 188.286 1.02 190.836C1.02 199.516 1.53 208.716 1.02 217.396C1.02 240.386 0.51 261.836 1.02 285.846C2.55 316.496 -1.02 345.616 0.510002 376.776C2.55 378.306 4.09 375.756 6.13 375.246C9.71 374.736 13.28 376.776 17.37 376.776C18.9 376.776 18.39 376.266 19.92 376.266C21.45 376.266 21.96 376.776 23.5 376.776C29.63 377.286 36.27 376.776 42.4 376.266C48.53 376.266 54.66 377.286 61.3 377.286C61.81 375.756 63.34 376.776 64.88 375.246C68.97 336.426 62.84 303.216 64.37 266.436C64.37 258.776 64.37 252.136 64.88 244.466L65.39 243.956C65.9 241.916 68.45 239.356 69.99 237.316L74.59 230.166L88.88 259.696L107.55 300.686C126.22 341.676 153.5 369.776 193.81 377.046C234.11 384.306 274.21 373.636 301.68 349.436C329.15 325.236 331.26 272.746 331.26 272.746V139.696C331.26 131.346 321.06 130.756 303.9 130.756L303.93 130.746Z" fill="#27C5CD"/>
<path d="M300.399 53.3695L245.629 152.6C244.409 154.81 246.499 157.37 249.039 156.76L303.069 143.72L357.099 156.76C359.639 157.37 361.729 154.82 360.509 152.6L305.739 53.3695C304.609 51.3195 301.539 51.3195 300.399 53.3695Z" fill="#27C5CD"/>
<path d="M236.709 89.8397C235.539 89.8397 234.419 89.1497 233.939 87.9997C233.299 86.4697 234.019 84.7097 235.549 84.0697L261.389 73.2297C262.919 72.5897 264.679 73.3097 265.319 74.8397C265.959 76.3697 265.239 78.1297 263.709 78.7697L237.869 89.6097C237.489 89.7697 237.099 89.8397 236.709 89.8397Z" fill="#27C5CD"/>
<path d="M262.529 50.6066C262.159 50.6066 261.779 50.5366 261.409 50.3866L235.579 39.9666C234.039 39.3466 233.299 37.5966 233.919 36.0666C234.539 34.5266 236.289 33.7866 237.819 34.4066L263.649 44.8266C265.189 45.4466 265.929 47.1966 265.309 48.7266C264.839 49.8966 263.709 50.6066 262.529 50.6066Z" fill="#27C5CD"/>
<path d="M285.94 32.1292C284.74 32.1292 283.61 31.4092 283.15 30.2192L272.94 4.09916C272.34 2.55916 273.1 0.819145 274.64 0.209145C276.18 -0.390855 277.92 0.369157 278.53 1.90916L288.74 28.0292C289.34 29.5692 288.58 31.3092 287.04 31.9192C286.68 32.0592 286.31 32.1292 285.95 32.1292H285.94Z" fill="#27C5CD"/>
<path d="M320.679 32.3886C320.279 32.3886 319.879 32.3086 319.489 32.1386C317.969 31.4786 317.269 29.7086 317.929 28.1886L329.369 1.80855C330.029 0.288551 331.799 -0.411446 333.319 0.248554C334.839 0.908554 335.539 2.67857 334.879 4.19857L323.439 30.5786C322.949 31.7086 321.849 32.3886 320.689 32.3886H320.679Z" fill="#27C5CD"/>
<path d="M345.339 52.5505C344.129 52.5505 342.999 51.8205 342.539 50.6205C341.949 49.0705 342.719 47.3405 344.269 46.7405L368.509 37.4405C370.049 36.8505 371.789 37.6205 372.389 39.1705C372.979 40.7205 372.209 42.4505 370.659 43.0505L346.419 52.3505C346.069 52.4905 345.699 52.5505 345.349 52.5505H345.339Z" fill="#27C5CD"/>
<path d="M369.569 91.7681C369.149 91.7681 368.719 91.6781 368.319 91.4881L343.639 80.1081C342.139 79.4181 341.479 77.6281 342.169 76.1281C342.859 74.6181 344.649 73.9681 346.149 74.6581L370.829 86.0381C372.329 86.7281 372.989 88.5181 372.299 90.0181C371.789 91.1181 370.709 91.7581 369.569 91.7581V91.7681Z" fill="#27C5CD"/>
</svg>
