<svg width="1000" height="1000" viewBox="0 0 1000 1000" fill="none" xmlns="http://www.w3.org/2000/svg">
<path d="M653.08 584.056C653.08 585.356 651.35 585.356 651.78 587.076C639.25 587.076 626.73 588.806 614.63 587.506C609.01 587.076 603.4 586.206 598.22 586.206C596.92 581.886 595.2 577.996 593.04 574.546C587.86 559.426 580.95 546.466 575.33 530.916C572.31 524.006 568.85 517.956 567.12 509.746L558.48 487.716C552 470.006 542.93 453.156 534.72 434.586C533.42 431.126 531.26 428.106 530.83 424.216C529.53 423.786 529.1 421.196 528.67 419.896C528.24 450.996 529.1 479.076 529.53 508.876C529.53 514.056 529.53 519.246 529.96 524.426C529.96 530.046 530.82 535.226 530.82 540.406C530.82 544.296 529.96 548.176 529.96 551.636C528.66 562.436 528.66 573.666 528.66 584.466C526.93 584.896 526.07 584.036 525.64 585.766C510.52 590.946 493.24 588.786 476.4 585.766C475.1 582.746 474.67 575.826 476.4 573.676C475.1 570.656 475.54 566.336 475.54 563.306C475.97 557.686 476.4 551.646 475.97 546.026C475.54 540.406 474.67 535.226 474.67 530.476C474.24 523.996 475.1 518.386 475.53 511.906C475.96 501.106 474.67 492.036 475.1 480.376V447.116C475.1 441.936 475.96 436.746 475.53 431.996C475.1 418.176 476.39 403.486 476.39 388.366C475.96 355.536 474.66 322.706 476.39 285.996C490.21 283.836 508.35 282.106 523.47 284.266C523.9 285.566 524.33 284.696 525.63 285.126C530.38 292.466 532.97 301.536 536 310.176C544.21 322.276 547.66 337.816 554.14 351.216C559.32 362.876 564.51 374.106 569.26 385.776C578.33 409.966 587.83 432.856 599.5 454.886L601.23 427.676C601.66 417.746 601.23 409.106 600.8 399.166C600.8 380.156 601.23 360.726 600.8 341.286V329.626C600.8 312.776 600.37 300.256 600.8 284.706C618.51 281.686 636.22 281.246 652.2 286.006C652.63 295.946 652.63 305.016 652.63 314.946C652.63 324.876 653.06 334.386 653.06 344.316C652.63 354.256 651.76 364.186 651.76 374.126C653.06 406.956 650.03 441.946 651.33 471.316C651.76 478.656 651.33 486.436 651.33 494.646C651.76 509.766 651.76 525.316 653.06 540.436C653.49 555.556 651.76 569.806 653.06 584.066L653.08 584.056Z" fill="#27C5CD"/>
<path d="M869.91 438.06C869.91 455.34 869.05 468.73 869.48 482.98C869.91 489.46 869.48 496.37 869.05 503.28C869.05 506.74 867.75 510.19 869.91 512.35C869.48 526.6 864.73 540.43 859.11 552.09C852.63 564.19 843.56 571.96 833.19 580.17L819.8 584.49C816.78 584.92 813.32 584.49 810.3 584.92C809 584.92 807.28 585.35 805.98 585.35L790.43 586.21L751.12 588.37C740.75 588.37 731.25 588.37 722.18 587.94C719.16 587.51 716.56 588.37 713.54 587.94C711.81 586.64 712.68 585.78 709.65 586.21C708.35 577.57 707.92 570.23 707.49 562.02C707.06 560.29 707.92 559 707.92 557.27C707.92 553.81 707.49 550.36 707.49 546.9C707.49 531.35 707.92 517.09 708.35 501.54C708.35 495.92 707.92 489.88 707.92 483.4C707.92 476.92 707.49 470.87 707.49 464.39C707.49 459.64 709.22 454.89 707.92 450.14C707.92 448.84 707.49 447.98 707.49 446.68C707.06 444.52 707.49 442.36 707.49 439.34C707.49 432.43 707.06 422.49 707.49 415.15C707.49 403.49 706.63 390.53 707.06 378.87C707.49 365.48 707.49 352.09 706.2 338.7V330.06C705.77 317.53 707.93 300.69 706.63 286.86C707.06 285.56 709.65 285.56 709.65 283.84C731.68 282.54 758.46 282.98 783.08 284.7C788.26 284.7 793.45 284.7 798.2 285.13C804.68 286.43 811.16 287.72 818.07 287.29C822.82 290.31 828.87 292.04 833.62 295.07C834.92 295.5 835.35 296.8 836.64 297.23C840.1 299.39 843.12 299.82 846.14 302.85C850.89 306.31 852.62 309.33 856.08 314.51L860.83 322.29C862.56 327.04 863.42 332.22 865.15 337.41C866.45 342.59 868.17 347.78 868.61 352.96C869.91 364.62 869.04 374.99 868.61 387.08C868.61 398.74 869.47 410.41 869.91 422.07V438.05V438.06ZM816.78 516.24C818.51 504.58 817.64 491.62 816.35 480.82C817.65 473.48 816.35 467 815.92 458.79C815.92 454.04 816.78 450.15 816.35 445.4C815.92 440.65 815.92 436.76 815.92 432.01C817.22 418.62 815.49 405.66 815.92 392.27C815.92 376.29 819.81 355.55 811.6 342.6C809.44 339.58 806.42 337.42 801.67 335.69L797.78 333.96C787.41 330.94 775.32 335.26 763.66 333.96C762.36 350.81 763.66 369.38 763.23 382.77C762.8 388.39 763.23 393.57 763.23 399.18C763.23 408.25 762.37 417.75 762.37 427.69C762.37 437.63 762.8 447.99 762.8 457.06C762.8 469.59 764.1 482.11 763.66 495.5C763.23 508.89 764.52 523.14 763.23 537.4C770.14 538.7 777.92 537.4 783.1 538.7C792.17 538.27 802.54 535.68 809.02 532.22C811.034 531.067 812.474 529.484 813.34 527.47L816.8 516.24H816.78Z" fill="#27C5CD"/>
<path d="M385.56 379.911C371.13 379.911 361.23 381.591 361.23 381.591C361.23 381.591 361.18 429.531 361.18 468.131C361.18 506.731 351.61 533.921 317.61 533.921C300.04 533.921 286.32 527.781 272.86 509.151C267.14 500.921 261.94 490.231 259.57 484.471L255.49 473.371C248.62 459.201 242.61 445.031 236.17 430.001C232.73 423.131 230.59 414.971 225.43 409.391C230.15 402.951 232.3 396.941 237.02 390.491C238.31 387.481 240.46 385.771 242.17 383.621C243.89 380.611 245.18 378.901 246.46 375.891C248.18 372.881 250.33 371.171 252.04 369.021C252.47 367.731 252.9 366.441 253.76 365.581C255.91 362.141 258.91 359.571 260.2 355.701C268.36 346.681 273.94 335.091 280.81 325.211L284.25 321.341L287.26 315.331L291.13 309.751C294.14 305.031 295 301.161 298 297.731C298 294.291 299.72 292.581 300.15 289.571C298.86 288.281 298.86 287.421 298.43 286.131C286.84 286.131 275.24 282.691 263.65 283.981C257.21 282.691 250.34 284.411 243.9 284.411C243.47 286.131 242.18 286.991 240.89 288.701C239.6 289.991 240.46 291.281 239.17 292.561C235.31 299.861 230.15 306.731 225 313.601C222.85 317.461 221.14 321.331 218.99 324.761C213.84 332.061 209.97 338.931 205.25 346.231C198.81 357.821 192.37 368.561 184.21 378.441C183.78 366.421 185.07 347.091 184.64 331.631L183.78 286.541C179.06 284.821 174.33 284.821 169.61 284.391C168.32 284.391 166.6 283.531 165.32 283.531C161.46 282.241 155.01 282.241 150.29 282.671C143.85 283.961 136.12 283.961 130.54 287.821C130.54 303.711 130.54 317.881 130.97 334.631C130.97 338.491 130.54 343.651 130.54 348.801C130.97 364.261 130.11 379.721 130.54 395.181C130.54 398.191 130.54 401.191 130.97 404.201C130.97 410.641 130.54 417.081 130.11 423.521C130.11 426.531 130.97 428.241 130.97 430.391C130.97 437.691 131.4 445.421 130.97 452.721C130.97 472.041 130.54 490.081 130.97 510.261C132.26 536.031 129.25 560.501 130.54 586.701C132.26 587.991 133.55 585.841 135.26 585.411C138.27 584.981 141.27 586.701 144.71 586.701C146 586.701 145.57 586.271 146.86 586.271C148.15 586.271 148.58 586.701 149.87 586.701C155.02 587.131 160.61 586.701 165.76 586.271C170.91 586.271 176.07 587.131 181.65 587.131C182.08 585.841 183.37 586.701 184.66 585.411C188.1 552.771 182.94 524.861 184.23 493.941C184.23 487.501 184.23 481.921 184.66 475.471L185.09 475.041C185.52 473.321 187.67 471.181 188.95 469.461L192.81 463.451L204.82 488.271L220.52 522.731C236.22 557.191 259.15 580.811 293.03 586.921C326.91 593.031 360.62 584.051 383.71 563.711C406.8 543.361 408.58 499.241 408.58 499.241V387.391C408.58 380.371 400.01 379.881 385.58 379.881L385.56 379.911Z" fill="#27C5CD"/>
<path d="M382.591 314.86L336.551 398.28C335.521 400.14 337.281 402.29 339.411 401.77L384.831 390.8L430.251 401.77C432.381 402.28 434.141 400.14 433.111 398.28L387.071 314.86C386.121 313.13 383.541 313.13 382.581 314.86H382.591Z" fill="#27C5CD"/>
<path d="M329.05 345.516C328.06 345.516 327.13 344.936 326.72 343.966C326.18 342.686 326.79 341.206 328.07 340.666L349.79 331.556C351.07 331.016 352.55 331.626 353.09 332.906C353.63 334.186 353.02 335.666 351.74 336.206L330.02 345.316C329.7 345.446 329.37 345.516 329.05 345.516Z" fill="#27C5CD"/>
<path d="M350.761 312.541C350.451 312.541 350.131 312.481 349.821 312.361L328.111 303.601C326.821 303.081 326.191 301.611 326.711 300.321C327.231 299.031 328.701 298.411 329.991 298.921L351.701 307.681C352.991 308.201 353.621 309.671 353.101 310.961C352.701 311.941 351.761 312.541 350.761 312.541Z" fill="#27C5CD"/>
<path d="M370.441 297.005C369.431 297.005 368.481 296.395 368.091 295.405L359.501 273.445C358.991 272.145 359.631 270.685 360.931 270.175C362.231 269.665 363.691 270.305 364.201 271.605L372.791 293.565C373.301 294.865 372.661 296.325 371.361 296.835C371.061 296.955 370.751 297.005 370.441 297.005Z" fill="#27C5CD"/>
<path d="M399.641 297.227C399.311 297.227 398.961 297.157 398.641 297.017C397.361 296.467 396.78 294.977 397.33 293.697L406.951 271.517C407.501 270.237 408.99 269.657 410.27 270.207C411.55 270.757 412.13 272.247 411.58 273.527L401.96 295.707C401.55 296.657 400.62 297.227 399.65 297.227H399.641Z" fill="#27C5CD"/>
<path d="M420.37 314.165C419.36 314.165 418.4 313.545 418.01 312.545C417.51 311.245 418.16 309.785 419.46 309.285L439.83 301.465C441.13 300.965 442.59 301.615 443.09 302.915C443.59 304.215 442.94 305.675 441.64 306.175L421.27 313.995C420.97 314.105 420.67 314.165 420.37 314.165Z" fill="#27C5CD"/>
<path d="M440.74 347.14C440.39 347.14 440.031 347.07 439.691 346.91L418.941 337.34C417.671 336.76 417.12 335.26 417.71 333.99C418.29 332.72 419.791 332.17 421.061 332.76L441.811 342.33C443.081 342.91 443.631 344.41 443.041 345.68C442.621 346.6 441.701 347.15 440.751 347.15L440.74 347.14Z" fill="#27C5CD"/>
<path d="M151.84 697.481V648.631H143.72C141.62 648.631 140.09 648.571 139.13 648.441C138.17 648.311 137.23 648.031 136.31 647.581C135.06 646.991 134.04 646.001 133.27 644.621C132.5 643.241 132.11 641.701 132.11 640.011C132.11 638.321 132.5 636.781 133.27 635.401C134.04 634.021 135.06 633.031 136.31 632.441C137.23 632.001 138.17 631.711 139.13 631.581C140.09 631.451 141.62 631.391 143.72 631.391H179.41C181.51 631.391 183.04 631.461 184 631.581C184.96 631.711 185.9 631.991 186.82 632.441C188.07 633.031 189.09 634.011 189.86 635.401C190.63 636.781 191.02 638.321 191.02 640.011C191.02 641.701 190.63 643.241 189.86 644.621C189.09 646.001 188.07 646.991 186.82 647.581C185.9 648.021 184.96 648.311 184 648.441C183.04 648.571 181.51 648.631 179.41 648.631H171.29V697.481C171.29 699.871 171.23 701.581 171.1 702.591C170.97 703.601 170.63 704.661 170.08 705.771C169.38 707.171 168.26 708.311 166.74 709.201C165.21 710.081 163.49 710.531 161.57 710.531C159.65 710.531 157.93 710.091 156.4 709.201C154.87 708.321 153.76 707.171 153.06 705.771C152.51 704.661 152.17 703.611 152.04 702.591C151.91 701.581 151.85 699.871 151.85 697.481H151.84Z" fill="#F9F6F2"/>
<path d="M228.25 686.208V662.448C228.25 660.168 228.31 658.528 228.44 657.528C228.57 656.538 228.87 655.558 229.35 654.598C230.01 653.268 231.05 652.208 232.47 651.388C233.89 650.578 235.5 650.168 237.31 650.168C239.12 650.168 240.73 650.578 242.14 651.388C243.56 652.198 244.6 653.268 245.26 654.598C245.74 655.558 246.04 656.528 246.17 657.528C246.3 658.528 246.36 660.158 246.36 662.448V698.248C246.36 700.528 246.3 702.168 246.17 703.168C246.04 704.168 245.74 705.138 245.26 706.098C244.6 707.428 243.56 708.488 242.14 709.298C240.72 710.108 239.11 710.518 237.31 710.518C233.48 710.518 230.64 708.748 228.8 705.218C227.03 706.988 224.88 708.348 222.36 709.308C219.84 710.268 217.34 710.748 214.87 710.748C209.34 710.748 204.89 709.058 201.5 705.668C199.14 703.308 197.56 700.788 196.75 698.098C195.94 695.408 195.53 692.258 195.53 688.648V662.458C195.53 660.178 195.59 658.538 195.72 657.538C195.85 656.538 196.15 655.568 196.63 654.608C197.29 653.278 198.33 652.218 199.75 651.398C201.17 650.588 202.78 650.178 204.58 650.178C206.38 650.178 208 650.588 209.41 651.398C210.83 652.208 211.87 653.278 212.53 654.608C213.01 655.568 213.31 656.538 213.44 657.538C213.57 658.538 213.63 660.168 213.63 662.458V686.218C213.63 687.838 213.89 689.218 214.4 690.358C214.91 691.498 215.58 692.348 216.39 692.898C217.2 693.448 217.97 693.838 218.71 694.058C219.45 694.278 220.18 694.388 220.92 694.388C221.66 694.388 222.39 694.278 223.13 694.058C223.87 693.838 224.64 693.448 225.45 692.898C226.26 692.348 226.92 691.498 227.44 690.358C227.95 689.218 228.21 687.838 228.21 686.218L228.25 686.208Z" fill="#F9F6F2"/>
<path d="M330.911 671.508V698.248C330.911 700.528 330.841 702.168 330.721 703.168C330.591 704.158 330.291 705.138 329.811 706.098C329.151 707.428 328.111 708.488 326.691 709.298C325.271 710.108 323.661 710.518 321.851 710.518C318.021 710.518 315.181 708.748 313.341 705.218C311.171 707.248 309.141 708.658 307.261 709.448C305.381 710.238 302.951 710.638 299.971 710.638C294.001 710.638 289.251 708.868 285.711 705.338C282.171 701.808 280.521 697.238 280.521 691.418C280.521 689.098 280.931 686.938 281.741 684.928C282.551 682.918 283.761 681.098 285.361 679.458C286.961 677.818 289.111 676.528 291.801 675.588C294.491 674.648 297.581 674.178 301.081 674.178H312.791V672.628C312.791 669.978 312.111 668.078 310.751 666.938C309.391 665.798 307.271 665.228 304.391 665.228C302.071 665.228 299.601 665.778 296.991 666.888C294.711 667.848 292.861 668.328 291.461 668.328C289.361 668.328 287.661 667.518 286.381 665.898C285.051 664.278 284.391 662.468 284.391 660.488C284.391 658.758 284.941 657.278 286.051 656.038C287.161 654.808 288.441 653.858 289.921 653.188C294.711 651.048 299.651 649.988 304.731 649.988C313.311 649.988 319.821 651.788 324.261 655.378C328.701 658.968 330.921 664.358 330.921 671.538L330.911 671.508ZM312.791 687.748V686.198H304.171C302.111 686.198 300.541 686.628 299.471 687.498C298.401 688.368 297.871 689.548 297.871 691.058C297.871 692.568 298.421 693.668 299.531 694.568C300.641 695.468 302.261 695.918 304.391 695.918C305.941 695.918 307.181 695.768 308.121 695.478C309.061 695.188 309.991 694.628 310.911 693.818C312.161 692.678 312.791 690.648 312.791 687.738V687.748Z" fill="#F9F6F2"/>
<path d="M376.22 686.208V662.448C376.22 660.168 376.28 658.528 376.41 657.528C376.54 656.538 376.84 655.558 377.32 654.598C377.98 653.268 379.02 652.208 380.44 651.388C381.86 650.578 383.47 650.168 385.28 650.168C387.09 650.168 388.7 650.578 390.11 651.388C391.53 652.198 392.57 653.268 393.23 654.598C393.71 655.558 394.01 656.528 394.14 657.528C394.27 658.528 394.33 660.158 394.33 662.448V698.248C394.33 700.528 394.27 702.168 394.14 703.168C394.01 704.168 393.71 705.138 393.23 706.098C392.57 707.428 391.53 708.488 390.11 709.298C388.69 710.108 387.08 710.518 385.28 710.518C381.45 710.518 378.61 708.748 376.77 705.218C375 706.988 372.85 708.348 370.33 709.308C367.81 710.268 365.31 710.748 362.84 710.748C357.31 710.748 352.86 709.058 349.47 705.668C347.11 703.308 345.53 700.788 344.72 698.098C343.91 695.408 343.5 692.258 343.5 688.648V662.458C343.5 660.178 343.56 658.538 343.69 657.538C343.82 656.538 344.12 655.568 344.6 654.608C345.26 653.278 346.3 652.218 347.72 651.398C349.14 650.588 350.75 650.178 352.55 650.178C354.35 650.178 355.97 650.588 357.38 651.398C358.8 652.208 359.84 653.278 360.5 654.608C360.98 655.568 361.28 656.538 361.41 657.538C361.54 658.538 361.6 660.168 361.6 662.458V686.218C361.6 687.838 361.86 689.218 362.37 690.358C362.88 691.498 363.55 692.348 364.36 692.898C365.17 693.448 365.94 693.838 366.68 694.058C367.42 694.278 368.15 694.388 368.89 694.388C369.63 694.388 370.36 694.278 371.1 694.058C371.84 693.838 372.61 693.448 373.42 692.898C374.23 692.348 374.89 691.498 375.41 690.358C375.92 689.218 376.18 687.838 376.18 686.218L376.22 686.208Z" fill="#F9F6F2"/>
<path d="M426.06 710.08H425.73C422.67 710.08 419.94 709.56 417.52 708.5C415.11 707.45 413.19 706.06 411.77 704.33C410.35 702.6 409.28 700.73 408.56 698.72C407.84 696.71 407.48 694.64 407.48 692.5V643.21C407.48 640.93 407.54 639.29 407.67 638.29C407.8 637.3 408.1 636.32 408.58 635.36C409.24 634.03 410.28 632.97 411.7 632.15C413.12 631.34 414.73 630.93 416.53 630.93C418.33 630.93 419.95 631.34 421.36 632.15C422.78 632.96 423.82 634.03 424.48 635.36C424.96 636.32 425.26 637.29 425.39 638.29C425.52 639.29 425.58 640.92 425.58 643.21V691.17C425.58 693.56 426.7 694.82 428.95 694.93C430.79 695.04 432.28 695.37 433.42 695.92C435.85 697.14 437.07 699.31 437.07 702.44C437.07 705.57 435.82 707.6 433.31 708.85C431.69 709.66 429.26 710.07 426.02 710.07L426.06 710.08Z" fill="#F9F6F2"/>
<path d="M491.04 671.508V698.248C491.04 700.528 490.97 702.168 490.85 703.168C490.72 704.158 490.42 705.138 489.94 706.098C489.28 707.428 488.24 708.488 486.82 709.298C485.4 710.108 483.79 710.518 481.98 710.518C478.15 710.518 475.31 708.748 473.47 705.218C471.3 707.248 469.27 708.658 467.39 709.448C465.51 710.238 463.08 710.638 460.1 710.638C454.13 710.638 449.38 708.868 445.84 705.338C442.3 701.808 440.65 697.238 440.65 691.418C440.65 689.098 441.06 686.938 441.87 684.928C442.68 682.918 443.89 681.098 445.49 679.458C447.09 677.818 449.24 676.528 451.93 675.588C454.62 674.648 457.71 674.178 461.21 674.178H472.92V672.628C472.92 669.978 472.24 668.078 470.88 666.938C469.52 665.798 467.4 665.228 464.52 665.228C462.2 665.228 459.73 665.778 457.12 666.888C454.84 667.848 452.99 668.328 451.59 668.328C449.49 668.328 447.79 667.518 446.51 665.898C445.18 664.278 444.52 662.468 444.52 660.488C444.52 658.758 445.07 657.278 446.18 656.038C447.29 654.808 448.57 653.858 450.05 653.188C454.84 651.048 459.78 649.988 464.86 649.988C473.44 649.988 479.95 651.788 484.39 655.378C488.83 658.968 491.05 664.358 491.05 671.538L491.04 671.508ZM472.92 687.748V686.198H464.3C462.24 686.198 460.67 686.628 459.6 687.498C458.53 688.368 458 689.548 458 691.058C458 692.568 458.55 693.668 459.66 694.568C460.77 695.468 462.39 695.918 464.52 695.918C466.07 695.918 467.31 695.768 468.25 695.478C469.19 695.188 470.12 694.628 471.04 693.818C472.29 692.678 472.92 690.648 472.92 687.738V687.748Z" fill="#F9F6F2"/>
<path d="M552.37 687.759L543.201 686.879C531.711 685.769 525.961 680.029 525.961 669.639C525.961 666.469 526.63 663.609 527.98 661.049C529.32 658.489 531.12 656.419 533.37 654.829C535.62 653.249 538.13 652.039 540.91 651.209C543.69 650.379 546.59 649.969 549.61 649.969C554.99 649.969 559.89 650.779 564.31 652.399C566.78 653.319 568.661 654.429 569.951 655.719C571.281 657.079 571.94 658.809 571.94 660.909C571.94 661.939 571.7 662.999 571.22 664.089C570.74 665.179 570.17 666.029 569.51 666.659C568.07 667.989 566.451 668.649 564.651 668.649C563.471 668.649 561.83 668.209 559.73 667.319C555.24 665.479 551.72 664.559 549.18 664.559C547.49 664.559 546.1 664.899 545.04 665.579C543.97 666.259 543.44 667.149 543.44 668.259C543.44 670.249 544.73 671.369 547.31 671.629L556.48 672.509C562.48 673.099 566.97 675.019 569.94 678.259C572.9 681.499 574.391 685.629 574.391 690.639C574.391 693.369 573.94 695.849 573.04 698.099C572.14 700.349 570.89 702.239 569.31 703.789C567.73 705.339 565.85 706.639 563.67 707.709C561.5 708.779 559.15 709.549 556.63 710.029C554.11 710.509 551.441 710.749 548.651 710.749C544.011 710.749 540.1 710.339 536.94 709.529C533.77 708.719 530.861 707.429 528.211 705.659C525.561 703.859 524.23 701.649 524.23 699.029C524.23 697.809 524.501 696.639 525.031 695.489C525.561 694.349 526.25 693.459 527.1 692.839C528.57 691.699 530.16 691.129 531.85 691.129C533.21 691.129 535.021 691.699 537.271 692.839C540.991 694.759 544.931 695.709 549.091 695.709C551.261 695.709 553.081 695.349 554.531 694.629C555.981 693.909 556.711 692.869 556.711 691.509C556.711 689.259 555.271 688.009 552.401 687.749L552.37 687.759Z" fill="#F9F6F2"/>
<path d="M625.141 686.209H599.561C599.561 688.789 600.521 690.999 602.431 692.839C604.341 694.679 606.961 695.599 610.281 695.599C613.601 695.599 616.501 694.719 619.231 692.949C621.551 691.399 623.651 690.629 625.531 690.629C627.261 690.629 628.891 691.379 630.421 692.869C631.951 694.359 632.711 696.119 632.711 698.149C632.711 700.989 630.831 703.709 627.071 706.329C622.801 709.279 617.121 710.749 610.051 710.749C591.191 710.749 581.761 700.619 581.761 680.359C581.761 670.819 584.211 663.369 589.111 658.009C594.011 652.649 600.441 649.969 608.391 649.969C613.731 649.969 618.421 651.169 622.451 653.559C626.481 655.959 629.531 659.089 631.601 662.949C633.661 666.819 634.801 671.149 635.031 675.929C635.181 679.539 634.371 682.229 632.601 683.999C631.941 684.659 631.141 685.169 630.201 685.519C629.261 685.869 628.461 686.069 627.801 686.129C627.141 686.189 626.251 686.209 625.151 686.209H625.141ZM599.561 674.159H617.241C617.241 672.389 616.911 670.839 616.251 669.519C614.781 666.429 612.161 664.879 608.401 664.879C604.641 664.879 601.951 666.429 600.551 669.519C599.891 670.959 599.561 672.499 599.561 674.159Z" fill="#F9F6F2"/>
<path d="M676.08 705.44V701.35C672.76 704.67 668.49 706.32 663.26 706.32C657.51 706.32 652.87 704.55 649.34 701.02C646.87 698.55 645.33 695.72 644.73 692.54C644.12 689.35 643.82 684.56 643.82 678.15C643.82 671.74 644.12 666.94 644.73 663.76C645.34 660.57 646.88 657.75 649.34 655.28C652.88 651.74 657.55 649.98 663.37 649.98C666.28 649.98 668.74 650.42 670.75 651.31C672.76 652.19 674.72 653.59 676.64 655.51C678.48 651.97 681.32 650.21 685.15 650.21C686.95 650.21 688.57 650.62 689.99 651.43C691.41 652.24 692.45 653.31 693.11 654.64C693.59 655.6 693.89 656.57 694.02 657.57C694.15 658.56 694.21 660.2 694.21 662.49V705.81C694.21 712.88 691.75 718.68 686.83 723.22C681.91 727.75 675.42 730.02 667.35 730.02C661.09 730.02 655.82 728.84 651.55 726.48C647.72 724.38 645.8 721.69 645.8 718.41C645.8 716.31 646.54 714.53 648.01 713.08C649.48 711.62 651.1 710.9 652.87 710.9C654.64 710.9 656.77 711.45 659.06 712.56C662.12 714.03 664.59 714.77 666.46 714.77C669.78 714.77 672.21 713.89 673.75 712.12C675.3 710.35 676.07 708.14 676.07 705.49L676.08 705.44ZM665.72 689.28C666.62 689.74 667.72 689.97 669.01 689.97C670.3 689.97 671.39 689.74 672.3 689.28C673.2 688.82 673.89 688.26 674.37 687.59C674.85 686.93 675.23 686.02 675.5 684.88C675.78 683.74 675.94 682.69 676 681.73C676.06 680.77 676.08 679.58 676.08 678.14C676.08 676.7 676.05 675.51 676 674.55C675.94 673.59 675.78 672.54 675.5 671.4C675.22 670.26 674.84 669.36 674.37 668.69C673.89 668.03 673.2 667.47 672.3 667C671.4 666.54 670.3 666.31 669.01 666.31C667.72 666.31 666.63 666.54 665.72 667C664.82 667.46 664.13 668.02 663.65 668.69C663.17 669.36 662.79 670.26 662.52 671.4C662.24 672.54 662.08 673.59 662.02 674.55C661.96 675.51 661.94 676.71 661.94 678.14C661.94 679.57 661.97 680.77 662.02 681.73C662.08 682.69 662.24 683.74 662.52 684.88C662.8 686.02 663.17 686.92 663.65 687.59C664.13 688.26 664.82 688.81 665.72 689.28Z" fill="#F9F6F2"/>
<path d="M740.06 686.208V662.448C740.06 660.168 740.12 658.528 740.25 657.528C740.38 656.538 740.68 655.558 741.16 654.598C741.82 653.268 742.86 652.208 744.28 651.388C745.7 650.578 747.31 650.168 749.12 650.168C750.93 650.168 752.54 650.578 753.95 651.388C755.37 652.198 756.41 653.268 757.07 654.598C757.55 655.558 757.85 656.528 757.98 657.528C758.11 658.528 758.17 660.158 758.17 662.448V698.248C758.17 700.528 758.11 702.168 757.98 703.168C757.85 704.168 757.55 705.138 757.07 706.098C756.41 707.428 755.37 708.488 753.95 709.298C752.53 710.108 750.92 710.518 749.12 710.518C745.29 710.518 742.45 708.748 740.61 705.218C738.84 706.988 736.69 708.348 734.17 709.308C731.65 710.268 729.15 710.748 726.68 710.748C721.15 710.748 716.7 709.058 713.31 705.668C710.95 703.308 709.37 700.788 708.56 698.098C707.75 695.408 707.34 692.258 707.34 688.648V662.458C707.34 660.178 707.4 658.538 707.53 657.538C707.66 656.538 707.96 655.568 708.44 654.608C709.1 653.278 710.14 652.218 711.56 651.398C712.98 650.588 714.59 650.178 716.39 650.178C718.19 650.178 719.81 650.588 721.22 651.398C722.64 652.208 723.68 653.278 724.34 654.608C724.82 655.568 725.12 656.538 725.25 657.538C725.38 658.538 725.44 660.168 725.44 662.458V686.218C725.44 687.838 725.7 689.218 726.21 690.358C726.72 691.498 727.39 692.348 728.2 692.898C729.01 693.448 729.78 693.838 730.52 694.058C731.26 694.278 731.99 694.388 732.73 694.388C733.47 694.388 734.2 694.278 734.94 694.058C735.68 693.838 736.45 693.448 737.26 692.898C738.07 692.348 738.73 691.498 739.25 690.358C739.76 689.218 740.02 687.838 740.02 686.218L740.06 686.208Z" fill="#F9F6F2"/>
<path d="M771.891 698.259V662.459C771.891 660.179 771.951 658.539 772.081 657.539C772.211 656.549 772.511 655.569 772.991 654.609C773.651 653.279 774.691 652.219 776.111 651.399C777.531 650.589 779.141 650.179 780.951 650.179C784.781 650.179 787.621 651.949 789.461 655.479C790.971 653.969 792.901 652.669 795.241 651.579C797.581 650.489 799.981 649.949 802.451 649.949C806.461 649.949 809.801 650.869 812.451 652.709C815.181 654.629 816.541 656.979 816.541 659.779C816.541 662.429 815.621 664.679 813.781 666.519C812.161 668.139 810.131 668.949 807.701 668.949C806.041 668.949 804.201 668.469 802.171 667.509C800.441 666.699 798.891 666.289 797.531 666.289C796.761 666.289 795.981 666.409 795.211 666.649C794.441 666.889 793.641 667.289 792.811 667.839C791.981 668.389 791.311 669.239 790.791 670.379C790.271 671.519 790.021 672.889 790.021 674.469V698.229C790.021 700.509 789.961 702.149 789.831 703.149C789.701 704.149 789.401 705.119 788.921 706.079C788.261 707.409 787.221 708.469 785.801 709.279C784.381 710.089 782.771 710.499 780.971 710.499C779.171 710.499 777.551 710.089 776.131 709.279C774.711 708.469 773.671 707.399 773.011 706.079C772.531 705.119 772.231 704.149 772.101 703.149C771.971 702.159 771.911 700.519 771.911 698.229L771.891 698.259Z" fill="#F9F6F2"/>
<path d="M869.91 671.508V698.248C869.91 700.528 869.84 702.168 869.72 703.168C869.59 704.158 869.29 705.138 868.81 706.098C868.15 707.428 867.11 708.488 865.69 709.298C864.27 710.108 862.66 710.518 860.85 710.518C857.02 710.518 854.181 708.748 852.341 705.218C850.171 707.248 848.14 708.658 846.26 709.448C844.38 710.238 841.95 710.638 838.97 710.638C833 710.638 828.251 708.868 824.711 705.338C821.251 701.878 819.521 697.238 819.521 691.418C819.521 689.098 819.93 686.938 820.74 684.928C821.55 682.918 822.76 681.098 824.36 679.458C825.96 677.818 828.11 676.528 830.8 675.588C833.49 674.648 836.581 674.178 840.081 674.178H851.79V672.628C851.79 669.978 851.11 668.078 849.75 666.938C848.39 665.798 846.271 665.228 843.391 665.228C841.071 665.228 838.6 665.778 835.99 666.888C833.71 667.848 831.861 668.328 830.461 668.328C828.361 668.328 826.66 667.518 825.38 665.898C824.05 664.278 823.391 662.468 823.391 660.488C823.391 658.758 823.94 657.278 825.05 656.038C826.16 654.808 827.44 653.858 828.92 653.188C833.71 651.048 838.65 649.988 843.73 649.988C852.31 649.988 858.82 651.788 863.26 655.378C867.7 658.968 869.92 664.358 869.92 671.538L869.91 671.508ZM851.79 687.748V686.198H843.17C841.11 686.198 839.54 686.628 838.47 687.498C837.4 688.368 836.87 689.548 836.87 691.058C836.87 692.568 837.421 693.668 838.531 694.568C839.641 695.468 841.261 695.918 843.391 695.918C844.941 695.918 846.18 695.768 847.12 695.478C848.06 695.188 848.99 694.628 849.91 693.818C851.16 692.678 851.79 690.648 851.79 687.738V687.748Z" fill="#F9F6F2"/>
</svg>
