<?xml version="1.0" encoding="UTF-8"?>
<svg  id="Capa_1" data-name="Capa 1" xmlns="http://www.w3.org/2000/svg" viewBox="0 0 1000 1000">
  <defs>
    <style>
      .cls-1 {
        fill: #27c5cd;
      }
    </style>
  </defs>
  <path class="cls-1" d="m682.09,682.4c0,1.54-2.05,1.54-1.54,3.6-14.9,0-29.8,2.06-44.19.51-6.68-.51-13.36-1.54-19.52-1.54-1.54-5.14-3.6-9.76-6.17-13.87-6.17-17.98-14.39-33.4-21.07-51.9-3.6-8.22-7.71-15.41-9.76-25.18l-10.28-26.21c-7.71-21.07-18.5-41.11-28.26-63.2-1.54-4.11-4.11-7.71-4.62-12.33-1.54-.51-2.06-3.6-2.57-5.14-.51,37,.51,70.39,1.03,105.85,0,6.16,0,12.33.51,18.5,0,6.68,1.03,12.85,1.03,19.01,0,4.62-1.03,9.25-1.03,13.36-1.54,12.85-1.54,26.21-1.54,39.05-2.05.51-3.08-.51-3.6,1.54-17.98,6.17-38.54,3.6-58.58,0-1.54-3.6-2.06-11.82,0-14.39-1.54-3.6-1.03-8.73-1.03-12.33.51-6.68,1.03-13.87.51-20.55s-1.54-12.85-1.54-18.5c-.51-7.71.51-14.39,1.03-22.09.51-12.85-1.03-23.64-.51-37.51v-39.56c0-6.17,1.03-12.33.51-17.98-.51-16.44,1.03-33.91,1.03-51.9-.51-39.05-2.06-78.1,0-121.78,16.44-2.57,38.02-4.62,56.01-2.05.51,1.54,1.03.51,2.57,1.03,5.65,8.73,8.73,19.53,12.33,29.8,9.76,14.39,13.87,32.88,21.58,48.81,6.17,13.87,12.33,27.23,17.98,41.11,10.79,28.77,22.09,56.01,35.97,82.21l2.05-32.37c.51-11.82,0-22.09-.51-33.91,0-22.61.51-45.73,0-68.85v-13.87c0-20.04-.51-34.94,0-53.44,21.07-3.6,42.13-4.11,61.15,1.54.51,11.82.51,22.61.51,34.43s.51,23.12.51,34.94c-.51,11.82-1.54,23.64-1.54,35.45,1.54,39.05-2.06,80.67-.51,115.61.51,8.73,0,17.98,0,27.75.51,17.98.51,36.48,2.05,54.47.51,17.98-1.54,34.94,0,51.9Z"/>
  <path class="cls-1" d="m940.03,508.73c0,20.55-1.03,36.48-.51,53.44.51,7.71,0,15.93-.51,24.15,0,4.11-1.54,8.22,1.03,10.79-.51,16.96-6.17,33.4-12.85,47.27-7.71,14.39-18.5,23.64-30.83,33.4l-15.93,5.14c-3.6.51-7.71,0-11.3.51-1.54,0-3.6.51-5.14.51l-18.5,1.03-46.76,2.57c-12.33,0-23.64,0-34.43-.51-3.6-.51-6.68.51-10.28,0-2.06-1.54-1.03-2.57-4.62-2.06-1.54-10.28-2.06-19.01-2.57-28.77-.51-2.06.51-3.6.51-5.65,0-4.11-.51-8.22-.51-12.33,0-18.5.51-35.45,1.03-53.95,0-6.68-.51-13.87-.51-21.58s-.51-14.9-.51-22.61c0-5.65,2.06-11.3.51-16.96,0-1.54-.51-2.57-.51-4.11-.51-2.57,0-5.14,0-8.74,0-8.22-.51-20.04,0-28.77,0-13.87-1.03-29.29-.51-43.16.51-15.93.51-31.86-1.03-47.79v-10.28c-.51-14.9,2.05-34.94.51-51.38.51-1.54,3.6-1.54,3.6-3.6,26.2-1.54,58.06-1.03,87.35,1.03,6.17,0,12.33,0,17.98.51,7.71,1.54,15.41,3.08,23.64,2.57,5.65,3.6,12.85,5.65,18.5,9.25,1.54.51,2.06,2.06,3.6,2.57,4.11,2.57,7.71,3.08,11.3,6.68,5.65,4.11,7.71,7.71,11.82,13.87l5.65,9.25c2.06,5.65,3.08,11.82,5.14,17.98,1.54,6.17,3.6,12.33,4.11,18.5,1.54,13.87.51,26.21,0,40.59,0,13.87,1.03,27.75,1.54,41.62v19.01Zm-63.2,93c2.05-13.87,1.03-29.29-.51-42.13,1.54-8.73,0-16.44-.51-26.21,0-5.65,1.03-10.28.51-15.93-.51-5.65-.51-10.28-.51-15.93,1.54-15.93-.51-31.34,0-47.27,0-19.01,4.62-43.67-5.14-59.09-2.57-3.6-6.16-6.17-11.82-8.22l-4.63-2.06c-12.33-3.6-26.72,1.54-40.59,0-1.54,20.04,0,42.13-.51,58.06-.51,6.68,0,12.85,0,19.53,0,10.79-1.03,22.09-1.03,33.91s.51,24.15.51,34.94c0,14.9,1.54,29.8,1.03,45.73-.51,15.93,1.03,32.88-.51,49.84,8.22,1.54,17.47,0,23.64,1.54,10.79-.51,23.12-3.6,30.83-7.71q3.6-2.06,5.14-5.65l4.11-13.36Z"/>
  <path class="cls-1" d="m363.87,439.56c-17.16,0-28.95,1.99-28.95,1.99,0,0-.07,57.03-.07,102.94s-11.39,78.27-51.82,78.27c-20.9,0-37.22-7.3-53.24-29.47-6.81-9.8-12.99-22.51-15.81-29.36l-4.86-13.2c-8.17-16.86-15.33-33.72-22.99-51.59-4.09-8.17-6.64-17.88-12.77-24.52,5.62-7.66,8.17-14.81,13.79-22.48,1.53-3.58,4.09-5.62,6.13-8.17,2.04-3.58,3.58-5.62,5.11-9.2,2.04-3.58,4.6-5.62,6.64-8.17.51-1.53,1.02-3.06,2.04-4.09,2.55-4.09,6.13-7.15,7.66-11.75,9.71-10.73,16.35-24.52,24.52-36.27l4.09-4.6,3.58-7.15,4.6-6.64c3.58-5.62,4.6-10.22,8.17-14.3,0-4.09,2.04-6.13,2.55-9.71-1.53-1.53-1.53-2.55-2.04-4.09-13.79,0-27.59-4.09-41.38-2.55-7.66-1.53-15.84.51-23.5.51-.51,2.04-2.04,3.06-3.58,5.11-1.53,1.53-.51,3.06-2.04,4.6-4.6,8.68-10.73,16.86-16.86,25.03-2.55,4.6-4.6,9.19-7.15,13.28-6.13,8.68-10.73,16.86-16.35,25.54-7.66,13.79-15.32,26.56-25.03,38.31-.51-14.3,1.02-37.29.51-55.68l-1.02-53.64c-5.62-2.04-11.24-2.04-16.86-2.55-1.53,0-3.58-1.02-5.11-1.02-4.6-1.53-12.26-1.53-17.88-1.02-7.66,1.53-16.86,1.53-23.5,6.13,0,18.9,0,35.76.51,55.68,0,4.6-.51,10.73-.51,16.86.51,18.39-.51,36.78,0,55.17,0,3.58,0,7.15.51,10.73,0,7.66-.51,15.32-1.02,22.99,0,3.58,1.02,5.62,1.02,8.17,0,8.68.51,17.88,0,26.56,0,22.99-.51,44.44,0,68.45,1.53,30.65-2.04,59.77-.51,90.93,2.04,1.53,3.58-1.02,5.62-1.53,3.58-.51,7.15,1.53,11.24,1.53,1.53,0,1.02-.51,2.55-.51s2.04.51,3.58.51c6.13.51,12.77,0,18.9-.51,6.13,0,12.26,1.02,18.9,1.02.51-1.53,2.04-.51,3.58-2.04,4.09-38.82-2.04-72.03-.51-108.81,0-7.66,0-14.3.51-21.97l.51-.51c.51-2.04,3.06-4.6,4.6-6.64l4.6-7.15,14.29,29.53,18.67,40.99c18.67,40.99,45.95,69.09,86.26,76.36,40.3,7.26,80.4-3.41,107.87-27.61,27.47-24.2,29.58-76.69,29.58-76.69v-133.05c0-8.35-10.2-8.94-27.36-8.94Z"/>
  <g>
    <path class="cls-1" d="m360.34,362.18l-54.77,99.23c-1.22,2.21.87,4.77,3.41,4.16l54.03-13.04,54.03,13.04c2.54.61,4.63-1.94,3.41-4.16l-54.77-99.23c-1.13-2.05-4.2-2.05-5.34,0Z"/>
    <g>
      <path class="cls-1" d="m296.65,398.65c-1.17,0-2.29-.69-2.77-1.84-.64-1.53.08-3.29,1.61-3.93l25.84-10.84c1.53-.64,3.29.08,3.93,1.61.64,1.53-.08,3.29-1.61,3.93l-25.84,10.84c-.38.16-.77.23-1.16.23Z"/>
      <path class="cls-1" d="m322.47,359.42c-.37,0-.75-.07-1.12-.22l-25.83-10.42c-1.54-.62-2.28-2.37-1.66-3.9.62-1.54,2.37-2.28,3.9-1.66l25.83,10.42c1.54.62,2.28,2.37,1.66,3.9-.47,1.17-1.6,1.88-2.78,1.88Z"/>
      <path class="cls-1" d="m345.88,340.94c-1.2,0-2.33-.72-2.79-1.91l-10.21-26.12c-.6-1.54.16-3.28,1.7-3.89,1.54-.6,3.28.16,3.89,1.7l10.21,26.12c.6,1.54-.16,3.28-1.7,3.89-.36.14-.73.21-1.09.21Z"/>
      <path class="cls-1" d="m380.62,341.2c-.4,0-.8-.08-1.19-.25-1.52-.66-2.22-2.43-1.56-3.95l11.44-26.38c.66-1.52,2.43-2.22,3.95-1.56,1.52.66,2.22,2.43,1.56,3.95l-11.44,26.38c-.49,1.13-1.59,1.81-2.75,1.81Z"/>
      <path class="cls-1" d="m405.28,361.36c-1.21,0-2.34-.73-2.8-1.93-.59-1.55.18-3.28,1.73-3.88l24.24-9.3c1.54-.59,3.28.18,3.88,1.73.59,1.55-.18,3.28-1.73,3.88l-24.24,9.3c-.35.14-.72.2-1.07.2Z"/>
      <path class="cls-1" d="m429.51,400.58c-.42,0-.85-.09-1.25-.28l-24.68-11.38c-1.5-.69-2.16-2.48-1.47-3.98.69-1.51,2.48-2.16,3.98-1.47l24.68,11.38c1.5.69,2.16,2.48,1.47,3.98-.51,1.1-1.59,1.74-2.73,1.74Z"/>
    </g>
  </g>
</svg>