<?xml version="1.0" encoding="UTF-8"?>
<svg id="Capa_1" data-name="Capa 1" xmlns="http://www.w3.org/2000/svg" viewBox="0 0 1000 1000">
  <defs>
    <style>
      .cls-1 {
        fill: #ff6801;
      }

      .cls-2 {
        fill: #27c5cd;
      }
    </style>
  </defs>
  <g>
    <path class="cls-2" d="m653.08,649.85c0,1.3-1.73,1.3-1.3,3.02-12.53,0-25.05,1.73-37.15.43-5.62-.43-11.23-1.3-16.41-1.3-1.3-4.32-3.02-8.21-5.18-11.66-5.18-15.12-12.09-28.08-17.71-43.63-3.02-6.91-6.48-12.96-8.21-21.17l-8.64-22.03c-6.48-17.71-15.55-34.56-23.76-53.13-1.3-3.46-3.46-6.48-3.89-10.37-1.3-.43-1.73-3.02-2.16-4.32-.43,31.1.43,59.18.86,88.98,0,5.18,0,10.37.43,15.55,0,5.62.86,10.8.86,15.98,0,3.89-.86,7.77-.86,11.23-1.3,10.8-1.3,22.03-1.3,32.83-1.73.43-2.59-.43-3.02,1.3-15.12,5.18-32.4,3.02-49.24,0-1.3-3.02-1.73-9.94,0-12.09-1.3-3.02-.86-7.34-.86-10.37.43-5.62.86-11.66.43-17.28-.43-5.62-1.3-10.8-1.3-15.55-.43-6.48.43-12.09.86-18.57.43-10.8-.86-19.87-.43-31.53v-33.26c0-5.18.86-10.37.43-15.12-.43-13.82.86-28.51.86-43.63-.43-32.83-1.73-65.66,0-102.37,13.82-2.16,31.96-3.89,47.08-1.73.43,1.3.86.43,2.16.86,4.75,7.34,7.34,16.41,10.37,25.05,8.21,12.1,11.66,27.64,18.14,41.04,5.18,11.66,10.37,22.89,15.12,34.56,9.07,24.19,18.57,47.08,30.24,69.11l1.73-27.21c.43-9.93,0-18.57-.43-28.51,0-19.01.43-38.44,0-57.88v-11.66c0-16.85-.43-29.37,0-44.92,17.71-3.02,35.42-3.46,51.4,1.3.43,9.94.43,19.01.43,28.94s.43,19.44.43,29.37c-.43,9.94-1.3,19.87-1.3,29.81,1.3,32.83-1.73,67.82-.43,97.19.43,7.34,0,15.12,0,23.33.43,15.12.43,30.67,1.73,45.79.43,15.12-1.3,29.37,0,43.63Z"/>
    <path class="cls-2" d="m869.91,503.85c0,17.28-.86,30.67-.43,44.92.43,6.48,0,13.39-.43,20.3,0,3.46-1.3,6.91.86,9.07-.43,14.25-5.18,28.08-10.8,39.74-6.48,12.1-15.55,19.87-25.92,28.08l-13.39,4.32c-3.02.43-6.48,0-9.5.43-1.3,0-3.02.43-4.32.43l-15.55.86-39.31,2.16c-10.37,0-19.87,0-28.94-.43-3.02-.43-5.62.43-8.64,0-1.73-1.3-.86-2.16-3.89-1.73-1.3-8.64-1.73-15.98-2.16-24.19-.43-1.73.43-3.02.43-4.75,0-3.46-.43-6.91-.43-10.37,0-15.55.43-29.81.86-45.36,0-5.62-.43-11.66-.43-18.14s-.43-12.53-.43-19.01c0-4.75,1.73-9.5.43-14.25,0-1.3-.43-2.16-.43-3.46-.43-2.16,0-4.32,0-7.34,0-6.91-.43-16.85,0-24.19,0-11.66-.86-24.62-.43-36.28.43-13.39.43-26.78-.86-40.17v-8.64c-.43-12.53,1.73-29.37.43-43.2.43-1.3,3.02-1.3,3.02-3.02,22.03-1.3,48.81-.86,73.43.86,5.18,0,10.37,0,15.12.43,6.48,1.3,12.96,2.59,19.87,2.16,4.75,3.02,10.8,4.75,15.55,7.78,1.3.43,1.73,1.73,3.02,2.16,3.46,2.16,6.48,2.59,9.5,5.62,4.75,3.46,6.48,6.48,9.94,11.66l4.75,7.78c1.73,4.75,2.59,9.93,4.32,15.12,1.3,5.18,3.02,10.37,3.46,15.55,1.3,11.66.43,22.03,0,34.12,0,11.66.86,23.33,1.3,34.99v15.98Zm-53.13,78.18c1.73-11.66.86-24.62-.43-35.42,1.3-7.34,0-13.82-.43-22.03,0-4.75.86-8.64.43-13.39-.43-4.75-.43-8.64-.43-13.39,1.3-13.39-.43-26.35,0-39.74,0-15.98,3.89-36.72-4.32-49.67-2.16-3.02-5.18-5.18-9.93-6.91l-3.89-1.73c-10.37-3.02-22.46,1.3-34.12,0-1.3,16.85,0,35.42-.43,48.81-.43,5.62,0,10.8,0,16.41,0,9.07-.86,18.57-.86,28.51s.43,20.3.43,29.37c0,12.53,1.3,25.05.86,38.44-.43,13.39.86,27.64-.43,41.9,6.91,1.3,14.69,0,19.87,1.3,9.07-.43,19.44-3.02,25.92-6.48q3.02-1.73,4.32-4.75l3.46-11.23Z"/>
    <path class="cls-2" d="m385.56,445.7c-14.43,0-24.33,1.68-24.33,1.68,0,0-.05,47.94-.05,86.54s-9.57,65.79-43.57,65.79c-17.57,0-31.29-6.14-44.75-24.77-5.72-8.23-10.92-18.92-13.29-24.68l-4.08-11.1c-6.87-14.17-12.88-28.34-19.32-43.37-3.44-6.87-5.58-15.03-10.74-20.61,4.72-6.44,6.87-12.45,11.59-18.9,1.29-3.01,3.44-4.72,5.15-6.87,1.72-3.01,3.01-4.72,4.29-7.73,1.72-3.01,3.87-4.72,5.58-6.87.43-1.29.86-2.58,1.72-3.44,2.15-3.44,5.15-6.01,6.44-9.88,8.16-9.02,13.74-20.61,20.61-30.49l3.44-3.87,3.01-6.01,3.87-5.58c3.01-4.72,3.87-8.59,6.87-12.02,0-3.44,1.72-5.15,2.15-8.16-1.29-1.29-1.29-2.15-1.72-3.44-11.59,0-23.19-3.44-34.78-2.15-6.44-1.29-13.31.43-19.75.43-.43,1.72-1.72,2.58-3.01,4.29-1.29,1.29-.43,2.58-1.72,3.86-3.86,7.3-9.02,14.17-14.17,21.04-2.15,3.86-3.86,7.73-6.01,11.16-5.15,7.3-9.02,14.17-13.74,21.47-6.44,11.59-12.88,22.33-21.04,32.21-.43-12.02.86-31.35.43-46.81l-.86-45.09c-4.72-1.72-9.45-1.72-14.17-2.15-1.29,0-3.01-.86-4.29-.86-3.86-1.29-10.31-1.29-15.03-.86-6.44,1.29-14.17,1.29-19.75,5.15,0,15.89,0,30.06.43,46.81,0,3.86-.43,9.02-.43,14.17.43,15.46-.43,30.92,0,46.38,0,3.01,0,6.01.43,9.02,0,6.44-.43,12.88-.86,19.32,0,3.01.86,4.72.86,6.87,0,7.3.43,15.03,0,22.33,0,19.32-.43,37.36,0,57.54,1.29,25.77-1.72,50.24-.43,76.44,1.72,1.29,3.01-.86,4.72-1.29,3.01-.43,6.01,1.29,9.45,1.29,1.29,0,.86-.43,2.15-.43s1.72.43,3.01.43c5.15.43,10.74,0,15.89-.43,5.15,0,10.31.86,15.89.86.43-1.29,1.72-.43,3.01-1.72,3.44-32.64-1.72-60.55-.43-91.47,0-6.44,0-12.02.43-18.47l.43-.43c.43-1.72,2.58-3.86,3.86-5.58l3.86-6.01,12.01,24.82,15.7,34.46c15.7,34.46,38.63,58.08,72.51,64.19,33.88,6.11,67.59-2.87,90.68-23.21,23.09-20.35,24.87-64.47,24.87-64.47v-111.85c0-7.02-8.57-7.51-23-7.51Z"/>
    <g>
      <path class="cls-2" d="m382.59,380.65l-46.04,83.42c-1.03,1.86.73,4.01,2.86,3.49l45.42-10.97,45.42,10.97c2.13.51,3.89-1.63,2.86-3.49l-46.04-83.42c-.95-1.73-3.53-1.73-4.49,0Z"/>
      <g>
        <path class="cls-2" d="m329.05,411.31c-.99,0-1.92-.58-2.33-1.55-.54-1.28.07-2.76,1.35-3.3l21.72-9.11c1.28-.54,2.76.07,3.3,1.35.54,1.28-.07,2.76-1.35,3.3l-21.72,9.11c-.32.13-.65.2-.97.2Z"/>
        <path class="cls-2" d="m350.76,378.33c-.31,0-.63-.06-.94-.18l-21.71-8.76c-1.29-.52-1.92-1.99-1.4-3.28.52-1.29,1.99-1.91,3.28-1.4l21.71,8.76c1.29.52,1.92,1.99,1.4,3.28-.4.98-1.34,1.58-2.34,1.58Z"/>
        <path class="cls-2" d="m370.44,362.8c-1.01,0-1.96-.61-2.35-1.6l-8.59-21.96c-.51-1.3.13-2.76,1.43-3.27,1.3-.51,2.76.13,3.27,1.43l8.59,21.96c.51,1.3-.13,2.76-1.43,3.27-.3.12-.61.17-.92.17Z"/>
        <path class="cls-2" d="m399.64,363.02c-.33,0-.68-.07-1-.21-1.28-.55-1.86-2.04-1.31-3.32l9.62-22.18c.55-1.28,2.04-1.86,3.32-1.31,1.28.55,1.86,2.04,1.31,3.32l-9.62,22.18c-.41.95-1.34,1.52-2.31,1.52Z"/>
        <path class="cls-2" d="m420.37,379.96c-1.01,0-1.97-.62-2.36-1.62-.5-1.3.15-2.76,1.45-3.26l20.37-7.82c1.3-.5,2.76.15,3.26,1.45.5,1.3-.15,2.76-1.45,3.26l-20.37,7.82c-.3.11-.6.17-.9.17Z"/>
        <path class="cls-2" d="m440.74,412.93c-.35,0-.71-.07-1.05-.23l-20.75-9.57c-1.27-.58-1.82-2.08-1.23-3.35.58-1.27,2.08-1.82,3.35-1.23l20.75,9.57c1.27.58,1.82,2.08,1.23,3.35-.42.92-1.34,1.47-2.29,1.47Z"/>
      </g>
    </g>
  </g>
  <g>
    <path class="cls-1" d="m179.03,295.51h-35.28c-1.53,0-2.73-.03-3.62-.1s-2.02-.34-3.4-.83c-1.38-.49-2.55-1.22-3.53-2.19-.98-.97-1.71-2.15-2.19-3.53-.49-1.38-.76-2.51-.83-3.4-.06-.89-.1-2.1-.1-3.62v-63.18c0-1.53.03-2.73.1-3.62.06-.89.34-2.02.83-3.4.49-1.38,1.22-2.55,2.19-3.53.97-.97,2.15-1.71,3.53-2.19,1.38-.49,2.51-.76,3.4-.83s2.1-.1,3.62-.1h35.28c2.42,0,4.17.07,5.28.22,1.1.15,2.18.48,3.24.99,1.44.68,2.61,1.81,3.5,3.4.89,1.59,1.33,3.36,1.33,5.31s-.45,3.72-1.33,5.31c-.89,1.59-2.06,2.72-3.5,3.4-1.06.51-2.14.84-3.24.99-1.1.15-2.86.22-5.28.22h-26.57v15.13h20.85c2.42,0,4.17.07,5.28.22,1.1.15,2.18.48,3.24.99,1.44.68,2.61,1.81,3.5,3.4.89,1.59,1.33,3.36,1.33,5.31s-.45,3.72-1.33,5.31c-.89,1.59-2.06,2.72-3.5,3.4-1.06.51-2.14.84-3.24.98-1.1.15-2.86.22-5.28.22h-20.85v15.89h26.57c2.42,0,4.17.07,5.28.22,1.1.15,2.18.48,3.24.99,1.44.68,2.61,1.81,3.5,3.4.89,1.59,1.33,3.36,1.33,5.31s-.45,3.72-1.33,5.31c-.89,1.59-2.06,2.72-3.5,3.4-1.06.51-2.14.84-3.24.98-1.1.15-2.86.22-5.28.22Z"/>
    <path class="cls-1" d="m238.71,260.55l-10.93-1.53c-8.05-1.14-14.11-3.81-18.18-8.01-4.15-4.28-6.23-10.34-6.23-18.18,0-8.43,2.98-15.31,8.93-20.63,5.95-5.32,13.99-7.98,24.12-7.98,7.12,0,13.6,1.14,19.45,3.43,2.88,1.14,5.15,2.66,6.8,4.54,1.65,1.89,2.48,4.02,2.48,6.39s-.89,4.75-2.67,6.86c-1.65,2.03-3.81,3.05-6.48,3.05-1.82,0-4.45-.72-7.88-2.16-3.98-1.69-8.09-2.54-12.33-2.54-3.56,0-6.27.79-8.14,2.38-1.87,1.59-2.8,3.34-2.8,5.24,0,2.03.59,3.65,1.78,4.83,1.4,1.4,3.47,2.29,6.23,2.67l10.93,1.53c8.01,1.14,13.94,3.65,17.8,7.5,4.49,4.36,6.74,10.98,6.74,19.83,0,5.93-1.6,11.09-4.8,15.48-3.2,4.39-7.4,7.65-12.62,9.79-5.21,2.14-11.06,3.21-17.54,3.21-8.69,0-15.59-1.02-20.72-3.05-3.98-1.57-6.95-3.34-8.9-5.31-1.95-1.97-2.92-4.52-2.92-7.66,0-2.8,1.02-5.21,3.05-7.25,1.61-1.61,3.64-2.42,6.1-2.42,1.06,0,2.13.18,3.21.54,1.08.36,2.89,1.07,5.43,2.13,5.13,2.2,10.08,3.31,14.87,3.31,4.32,0,7.56-.71,9.72-2.13,2.16-1.42,3.24-3.46,3.24-6.13,0-2.25-.59-4.02-1.78-5.34-1.27-1.27-3.26-2.08-5.97-2.42Z"/>
    <path class="cls-1" d="m282.7,281.02v-62.35c0-1.53.03-2.73.1-3.62.06-.89.34-2.02.83-3.4.49-1.38,1.22-2.55,2.19-3.53.97-.97,2.15-1.71,3.53-2.19,1.38-.49,2.51-.76,3.4-.83s2.1-.1,3.62-.1h22.31c4.87,0,9.3.82,13.28,2.45,3.98,1.63,7.24,3.81,9.76,6.55,2.52,2.73,4.46,5.83,5.82,9.28,1.36,3.45,2.03,7.07,2.03,10.84s-.68,7.38-2.03,10.84c-1.36,3.45-3.29,6.55-5.82,9.28-2.52,2.73-5.77,4.92-9.76,6.55-3.98,1.63-8.41,2.45-13.28,2.45h-13.6v17.8c0,2.76-.07,4.71-.22,5.88-.15,1.17-.54,2.38-1.18,3.65-.81,1.61-2.09,2.92-3.85,3.94-1.76,1.02-3.74,1.53-5.94,1.53s-4.19-.51-5.94-1.53c-1.76-1.02-3.04-2.33-3.85-3.94-.64-1.27-1.03-2.49-1.18-3.65-.15-1.16-.22-3.12-.22-5.88Zm22.37-37.63h12.58c2.92,0,5.26-.92,7.02-2.76,1.76-1.84,2.64-4.01,2.64-6.52s-.88-4.67-2.64-6.52c-1.76-1.84-4.1-2.77-7.02-2.77h-12.58v18.56Z"/>
    <path class="cls-1" d="m351.47,278.48l24.15-64.13c1.36-3.56,2.9-6.02,4.64-7.37,2.08-1.65,4.7-2.48,7.88-2.48s5.81.83,7.88,2.48c1.74,1.36,3.28,3.81,4.64,7.37l24.15,64.13c.85,2.29,1.43,4.08,1.75,5.37.32,1.29.32,2.75,0,4.39-.32,1.63-1.16,3.13-2.51,4.48-2.2,2.2-4.87,3.31-8.01,3.31-2.54,0-4.64-.76-6.29-2.29-.93-.85-1.68-1.8-2.26-2.86-.57-1.06-1.28-2.77-2.13-5.15l-1.33-3.69h-31.78l-1.33,3.69c-.85,2.37-1.56,4.09-2.13,5.15-.57,1.06-1.32,2.01-2.26,2.86-1.65,1.53-3.75,2.29-6.29,2.29-3.14,0-5.81-1.1-8.01-3.31-1.36-1.36-2.19-2.85-2.51-4.48-.32-1.63-.32-3.09,0-4.39.32-1.29.9-3.08,1.75-5.37Zm45.83-15l-9.15-25.17-9.15,25.17h18.31Z"/>
    <path class="cls-1" d="m434.2,259.12c-.06-2.05-.1-5.01-.1-8.87s.03-6.81.1-8.87c.06-2.06.25-4.6.57-7.63.32-3.03.78-5.51,1.4-7.44.61-1.93,1.54-3.99,2.76-6.2,1.23-2.2,2.73-4.19,4.51-5.97,6.61-6.61,14.94-9.92,24.98-9.92,5.55,0,10.04.52,13.48,1.56,3.43,1.04,6.55,2.81,9.34,5.31,3.09,2.8,5.3,5.69,6.61,8.68,1.31,2.99,1.97,5.69,1.97,8.1,0,3.56-1.04,6.38-3.11,8.45-2.08,2.08-4.64,3.11-7.69,3.11-2.37,0-4.37-.57-5.98-1.72-1.86-1.27-3.83-3.75-5.91-7.44-1.27-2.25-2.62-3.85-4.04-4.8s-3.15-1.43-5.18-1.43c-3.35,0-6.02,1.31-8.01,3.94-1.36,1.78-2.27,4.12-2.73,7.02-.47,2.9-.7,7.98-.7,15.22s.23,12.32.7,15.22c.47,2.9,1.38,5.24,2.73,7.02,1.99,2.63,4.66,3.94,8.01,3.94,2.03,0,3.76-.48,5.18-1.43,1.42-.95,2.77-2.55,4.04-4.8,2.08-3.69,4.05-6.17,5.91-7.44,1.61-1.14,3.6-1.72,5.98-1.72,3.05,0,5.61,1.04,7.69,3.11,2.08,2.08,3.11,4.89,3.11,8.45,0,2.42-.66,5.12-1.97,8.1-1.31,2.99-3.52,5.88-6.61,8.68-2.8,2.5-5.91,4.27-9.34,5.31-3.43,1.04-7.92,1.56-13.48,1.56-10.04,0-18.37-3.31-24.98-9.92-1.78-1.78-3.28-3.77-4.51-5.97-1.23-2.2-2.15-4.27-2.76-6.2-.62-1.93-1.08-4.41-1.4-7.44-.32-3.03-.51-5.57-.57-7.63Z"/>
    <path class="cls-1" d="m513.87,281.02v-61.53c0-2.75.07-4.71.22-5.88.15-1.16.54-2.38,1.18-3.65.8-1.61,2.09-2.92,3.85-3.94,1.76-1.02,3.74-1.53,5.94-1.53s4.18.51,5.94,1.53c1.76,1.02,3.04,2.33,3.85,3.94.64,1.27,1.03,2.49,1.18,3.65.15,1.17.22,3.13.22,5.88v61.53c0,2.76-.07,4.71-.22,5.88-.15,1.17-.54,2.38-1.18,3.65-.81,1.61-2.09,2.92-3.85,3.94-1.76,1.02-3.74,1.53-5.94,1.53s-4.19-.51-5.94-1.53c-1.76-1.02-3.04-2.33-3.85-3.94-.64-1.27-1.03-2.49-1.18-3.65-.15-1.16-.22-3.12-.22-5.88Z"/>
    <path class="cls-1" d="m611.18,286.36c-3.35,3.35-7.04,5.84-11.09,7.47-4.05,1.63-8.76,2.45-14.14,2.45s-10.1-.82-14.14-2.45c-4.05-1.63-7.75-4.12-11.09-7.47-1.78-1.78-3.28-3.77-4.51-5.97-1.23-2.2-2.15-4.27-2.76-6.2-.62-1.93-1.08-4.41-1.4-7.44-.32-3.03-.51-5.57-.57-7.63-.06-2.05-.1-5.01-.1-8.87s.03-6.81.1-8.87c.06-2.06.25-4.6.57-7.63.32-3.03.78-5.51,1.4-7.44.61-1.93,1.54-3.99,2.76-6.2,1.23-2.2,2.73-4.19,4.51-5.97,3.35-3.35,7.04-5.84,11.09-7.47,4.05-1.63,8.76-2.45,14.14-2.45s10.09.82,14.14,2.45c4.05,1.63,7.74,4.12,11.09,7.47,1.78,1.78,3.28,3.77,4.51,5.97,1.23,2.2,2.15,4.27,2.76,6.2.61,1.93,1.08,4.41,1.4,7.44.32,3.03.51,5.57.57,7.63.06,2.06.09,5.01.09,8.87s-.03,6.81-.09,8.87c-.06,2.06-.25,4.6-.57,7.63-.32,3.03-.79,5.51-1.4,7.44-.62,1.93-1.54,3.99-2.76,6.2-1.23,2.2-2.73,4.19-4.51,5.97Zm-16.33-13.98c1.19-1.57,2.03-3.75,2.54-6.55.51-2.8.76-7.99.76-15.57s-.25-12.81-.76-15.67c-.51-2.86-1.36-5.05-2.54-6.58-.89-1.14-2.11-2.09-3.66-2.83-1.55-.74-3.29-1.11-5.24-1.11s-3.7.37-5.24,1.11c-1.55.74-2.76,1.68-3.65,2.83-1.19,1.53-2.03,3.72-2.54,6.58s-.76,8.08-.76,15.67.25,12.78.76,15.57c.51,2.8,1.36,4.98,2.54,6.55,2.08,2.71,5.04,4.07,8.9,4.07s6.82-1.36,8.9-4.07Z"/>
  </g>
  <g>
    <path class="cls-1" d="m151.84,763.27v-48.85h-8.12c-2.1,0-3.63-.06-4.59-.19-.96-.13-1.9-.41-2.82-.86-1.25-.59-2.27-1.58-3.04-2.96-.77-1.38-1.16-2.92-1.16-4.61s.39-3.23,1.16-4.61c.77-1.38,1.79-2.37,3.04-2.96.92-.44,1.86-.73,2.82-.86.96-.13,2.49-.19,4.59-.19h35.69c2.1,0,3.63.07,4.59.19.96.13,1.9.41,2.82.86,1.25.59,2.27,1.57,3.04,2.96.77,1.38,1.16,2.92,1.16,4.61s-.39,3.23-1.16,4.61c-.77,1.38-1.79,2.37-3.04,2.96-.92.44-1.86.73-2.82.86-.96.13-2.49.19-4.59.19h-8.12v48.85c0,2.39-.06,4.1-.19,5.11-.13,1.01-.47,2.07-1.02,3.18-.7,1.4-1.82,2.54-3.34,3.43-1.53.88-3.25,1.33-5.17,1.33s-3.64-.44-5.17-1.33c-1.53-.88-2.64-2.03-3.34-3.43-.55-1.11-.89-2.16-1.02-3.18-.13-1.01-.19-2.72-.19-5.11Z"/>
    <path class="cls-1" d="m228.25,752v-23.76c0-2.28.06-3.92.19-4.92.13-.99.43-1.97.91-2.93.66-1.33,1.7-2.39,3.12-3.21,1.42-.81,3.03-1.22,4.84-1.22s3.42.41,4.83,1.22c1.42.81,2.46,1.88,3.12,3.21.48.96.78,1.93.91,2.93s.19,2.63.19,4.92v35.8c0,2.28-.06,3.92-.19,4.92s-.43,1.97-.91,2.93c-.66,1.33-1.7,2.39-3.12,3.2-1.42.81-3.03,1.22-4.83,1.22-3.83,0-6.67-1.77-8.51-5.3-1.77,1.77-3.92,3.13-6.44,4.09s-5.02,1.44-7.49,1.44c-5.53,0-9.98-1.69-13.37-5.08-2.36-2.36-3.94-4.88-4.75-7.57-.81-2.69-1.22-5.84-1.22-9.45v-26.19c0-2.28.06-3.92.19-4.92s.43-1.97.91-2.93c.66-1.33,1.7-2.39,3.12-3.21,1.42-.81,3.03-1.22,4.83-1.22s3.42.41,4.83,1.22c1.42.81,2.46,1.88,3.12,3.21.48.96.78,1.93.91,2.93s.19,2.63.19,4.92v23.76c0,1.62.26,3,.77,4.14.51,1.14,1.18,1.99,1.99,2.54.81.55,1.58.94,2.32,1.16.74.22,1.47.33,2.21.33s1.47-.11,2.21-.33c.74-.22,1.51-.61,2.32-1.16.81-.55,1.47-1.4,1.99-2.54.51-1.14.77-2.52.77-4.14Z"/>
    <path class="cls-1" d="m330.91,737.3v26.74c0,2.28-.07,3.92-.19,4.92-.13.99-.43,1.97-.91,2.93-.66,1.33-1.7,2.39-3.12,3.2-1.42.81-3.03,1.22-4.84,1.22-3.83,0-6.67-1.77-8.51-5.3-2.17,2.03-4.2,3.44-6.08,4.23s-4.31,1.19-7.29,1.19c-5.97,0-10.72-1.77-14.26-5.3s-5.19-8.1-5.19-13.92c0-2.32.41-4.48,1.22-6.49.81-2.01,2.02-3.83,3.62-5.47,1.6-1.64,3.75-2.93,6.44-3.87,2.69-.94,5.78-1.41,9.28-1.41h11.71v-1.55c0-2.65-.68-4.55-2.04-5.69-1.36-1.14-3.48-1.71-6.36-1.71-2.32,0-4.79.55-7.4,1.66-2.28.96-4.13,1.44-5.53,1.44-2.1,0-3.8-.81-5.08-2.43-1.33-1.62-1.99-3.43-1.99-5.41,0-1.73.55-3.21,1.66-4.45,1.11-1.23,2.39-2.18,3.87-2.85,4.79-2.14,9.73-3.2,14.81-3.2,8.58,0,15.09,1.8,19.53,5.39s6.66,8.98,6.66,16.16Zm-18.12,16.24v-1.55h-8.62c-2.06,0-3.63.43-4.7,1.3-1.07.87-1.6,2.05-1.6,3.56s.55,2.61,1.66,3.51c1.11.9,2.73,1.35,4.86,1.35,1.55,0,2.79-.15,3.73-.44.94-.29,1.87-.85,2.79-1.66,1.25-1.14,1.88-3.17,1.88-6.08Z"/>
    <path class="cls-1" d="m376.22,752v-23.76c0-2.28.06-3.92.19-4.92.13-.99.43-1.97.91-2.93.66-1.33,1.7-2.39,3.12-3.21,1.42-.81,3.03-1.22,4.84-1.22s3.42.41,4.83,1.22c1.42.81,2.46,1.88,3.12,3.21.48.96.78,1.93.91,2.93s.19,2.63.19,4.92v35.8c0,2.28-.06,3.92-.19,4.92s-.43,1.97-.91,2.93c-.66,1.33-1.7,2.39-3.12,3.2-1.42.81-3.03,1.22-4.83,1.22-3.83,0-6.67-1.77-8.51-5.3-1.77,1.77-3.92,3.13-6.44,4.09-2.52.96-5.02,1.44-7.49,1.44-5.53,0-9.98-1.69-13.37-5.08-2.36-2.36-3.94-4.88-4.75-7.57-.81-2.69-1.22-5.84-1.22-9.45v-26.19c0-2.28.06-3.92.19-4.92s.43-1.97.91-2.93c.66-1.33,1.7-2.39,3.12-3.21,1.42-.81,3.03-1.22,4.83-1.22s3.42.41,4.83,1.22c1.42.81,2.46,1.88,3.12,3.21.48.96.78,1.93.91,2.93s.19,2.63.19,4.92v23.76c0,1.62.26,3,.77,4.14.51,1.14,1.18,1.99,1.99,2.54.81.55,1.58.94,2.32,1.16.74.22,1.47.33,2.21.33s1.47-.11,2.21-.33c.74-.22,1.51-.61,2.32-1.16.81-.55,1.47-1.4,1.99-2.54.51-1.14.77-2.52.77-4.14Z"/>
    <path class="cls-1" d="m426.06,775.87h-.33c-3.06,0-5.79-.52-8.21-1.58-2.41-1.05-4.33-2.44-5.75-4.17-1.42-1.73-2.49-3.6-3.21-5.61-.72-2.01-1.08-4.08-1.08-6.22v-49.29c0-2.28.06-3.92.19-4.92.13-.99.43-1.97.91-2.93.66-1.33,1.7-2.39,3.12-3.21,1.42-.81,3.03-1.22,4.83-1.22s3.42.41,4.83,1.22c1.42.81,2.46,1.88,3.12,3.21.48.96.78,1.93.91,2.93.13,1,.19,2.63.19,4.92v47.96c0,2.39,1.12,3.65,3.37,3.76,1.84.11,3.33.44,4.47.99,2.43,1.22,3.65,3.39,3.65,6.52s-1.25,5.16-3.76,6.41c-1.62.81-4.05,1.22-7.29,1.22Z"/>
    <path class="cls-1" d="m491.04,737.3v26.74c0,2.28-.07,3.92-.19,4.92-.13.99-.43,1.97-.91,2.93-.66,1.33-1.7,2.39-3.12,3.2-1.42.81-3.03,1.22-4.84,1.22-3.83,0-6.67-1.77-8.51-5.3-2.17,2.03-4.2,3.44-6.08,4.23s-4.31,1.19-7.29,1.19c-5.97,0-10.72-1.77-14.26-5.3s-5.19-8.1-5.19-13.92c0-2.32.41-4.48,1.22-6.49s2.02-3.83,3.62-5.47c1.6-1.64,3.75-2.93,6.44-3.87,2.69-.94,5.78-1.41,9.28-1.41h11.71v-1.55c0-2.65-.68-4.55-2.04-5.69-1.36-1.14-3.48-1.71-6.36-1.71-2.32,0-4.79.55-7.4,1.66-2.28.96-4.13,1.44-5.53,1.44-2.1,0-3.8-.81-5.08-2.43-1.33-1.62-1.99-3.43-1.99-5.41,0-1.73.55-3.21,1.66-4.45,1.11-1.23,2.39-2.18,3.87-2.85,4.79-2.14,9.73-3.2,14.81-3.2,8.58,0,15.09,1.8,19.53,5.39,4.44,3.59,6.66,8.98,6.66,16.16Zm-18.12,16.24v-1.55h-8.62c-2.06,0-3.63.43-4.7,1.3-1.07.87-1.6,2.05-1.6,3.56s.55,2.61,1.66,3.51c1.11.9,2.73,1.35,4.86,1.35,1.55,0,2.79-.15,3.73-.44.94-.29,1.87-.85,2.79-1.66,1.25-1.14,1.88-3.17,1.88-6.08Z"/>
    <path class="cls-1" d="m552.37,753.55l-9.17-.88c-11.49-1.11-17.24-6.85-17.24-17.24,0-3.17.67-6.03,2.02-8.59,1.34-2.56,3.14-4.63,5.39-6.22,2.25-1.58,4.76-2.79,7.54-3.62,2.78-.83,5.68-1.24,8.7-1.24,5.38,0,10.28.81,14.7,2.43,2.47.92,4.35,2.03,5.64,3.32,1.33,1.36,1.99,3.09,1.99,5.19,0,1.03-.24,2.09-.72,3.18-.48,1.09-1.05,1.94-1.71,2.57-1.44,1.33-3.06,1.99-4.86,1.99-1.18,0-2.82-.44-4.92-1.33-4.49-1.84-8.01-2.76-10.55-2.76-1.69,0-3.08.34-4.14,1.02-1.07.68-1.6,1.57-1.6,2.68,0,1.99,1.29,3.11,3.87,3.37l9.17.88c6,.59,10.49,2.51,13.46,5.75,2.96,3.24,4.45,7.37,4.45,12.38,0,2.73-.45,5.21-1.35,7.46-.9,2.25-2.15,4.14-3.73,5.69-1.58,1.55-3.46,2.85-5.64,3.92-2.17,1.07-4.52,1.84-7.04,2.32-2.52.48-5.19.72-7.98.72-4.64,0-8.55-.41-11.71-1.22-3.17-.81-6.08-2.1-8.73-3.87-2.65-1.8-3.98-4.01-3.98-6.63,0-1.22.27-2.39.8-3.54.53-1.14,1.22-2.03,2.07-2.65,1.47-1.14,3.06-1.71,4.75-1.71,1.36,0,3.17.57,5.42,1.71,3.72,1.92,7.66,2.87,11.82,2.87,2.17,0,3.99-.36,5.44-1.08,1.45-.72,2.18-1.76,2.18-3.12,0-2.25-1.44-3.5-4.31-3.76Z"/>
    <path class="cls-1" d="m625.14,752h-25.58c0,2.58.96,4.79,2.87,6.63,1.91,1.84,4.53,2.76,7.85,2.76s6.22-.88,8.95-2.65c2.32-1.55,4.42-2.32,6.3-2.32,1.73,0,3.36.75,4.89,2.24,1.53,1.49,2.29,3.25,2.29,5.28,0,2.84-1.88,5.56-5.64,8.18-4.27,2.95-9.95,4.42-17.02,4.42-18.86,0-28.29-10.13-28.29-30.39,0-9.54,2.45-16.99,7.35-22.35,4.9-5.36,11.33-8.04,19.28-8.04,5.34,0,10.03,1.2,14.06,3.59,4.03,2.4,7.08,5.53,9.15,9.39,2.06,3.87,3.2,8.2,3.43,12.98.15,3.61-.66,6.3-2.43,8.07-.66.66-1.46,1.17-2.4,1.52-.94.35-1.74.55-2.4.61s-1.55.08-2.65.08Zm-25.58-12.05h17.68c0-1.77-.33-3.32-.99-4.64-1.47-3.09-4.09-4.64-7.85-4.64s-6.45,1.55-7.85,4.64c-.66,1.44-.99,2.98-.99,4.64Z"/>
    <path class="cls-1" d="m676.08,771.23v-4.09c-3.32,3.32-7.59,4.97-12.82,4.97-5.75,0-10.39-1.77-13.92-5.3-2.47-2.47-4.01-5.3-4.61-8.48-.61-3.19-.91-7.98-.91-14.39s.3-11.21.91-14.39c.61-3.19,2.15-6.01,4.61-8.48,3.54-3.54,8.21-5.3,14.03-5.3,2.91,0,5.37.44,7.38,1.33,2.01.88,3.97,2.28,5.89,4.2,1.84-3.54,4.68-5.3,8.51-5.3,1.8,0,3.42.41,4.84,1.22,1.42.81,2.46,1.88,3.12,3.21.48.96.78,1.93.91,2.93.13.99.19,2.63.19,4.92v43.32c0,7.07-2.46,12.87-7.38,17.41-4.92,4.53-11.41,6.8-19.48,6.8-6.26,0-11.53-1.18-15.8-3.54-3.83-2.1-5.75-4.79-5.75-8.07,0-2.1.74-3.88,2.21-5.33,1.47-1.46,3.09-2.18,4.86-2.18s3.9.55,6.19,1.66c3.06,1.47,5.53,2.21,7.4,2.21,3.32,0,5.75-.88,7.29-2.65,1.55-1.77,2.32-3.98,2.32-6.63Zm-10.36-16.16c.9.46,2,.69,3.29.69s2.38-.23,3.29-.69c.9-.46,1.59-1.02,2.07-1.69.48-.66.86-1.57,1.13-2.71.28-1.14.44-2.19.5-3.15.06-.96.08-2.15.08-3.59s-.03-2.63-.08-3.59c-.06-.96-.22-2.01-.5-3.15-.28-1.14-.66-2.04-1.13-2.71-.48-.66-1.17-1.22-2.07-1.69-.9-.46-2-.69-3.29-.69s-2.38.23-3.29.69c-.9.46-1.59,1.02-2.07,1.69s-.86,1.57-1.13,2.71c-.28,1.14-.44,2.19-.5,3.15-.06.96-.08,2.16-.08,3.59s.03,2.63.08,3.59c.06.96.22,2.01.5,3.15.28,1.14.65,2.04,1.13,2.71s1.17,1.22,2.07,1.69Z"/>
    <path class="cls-1" d="m740.06,752v-23.76c0-2.28.06-3.92.19-4.92.13-.99.43-1.97.91-2.93.66-1.33,1.7-2.39,3.12-3.21,1.42-.81,3.03-1.22,4.84-1.22s3.42.41,4.83,1.22c1.42.81,2.46,1.88,3.12,3.21.48.96.78,1.93.91,2.93s.19,2.63.19,4.92v35.8c0,2.28-.06,3.92-.19,4.92s-.43,1.97-.91,2.93c-.66,1.33-1.7,2.39-3.12,3.2-1.42.81-3.03,1.22-4.83,1.22-3.83,0-6.67-1.77-8.51-5.3-1.77,1.77-3.92,3.13-6.44,4.09-2.52.96-5.02,1.44-7.49,1.44-5.53,0-9.98-1.69-13.37-5.08-2.36-2.36-3.94-4.88-4.75-7.57-.81-2.69-1.22-5.84-1.22-9.45v-26.19c0-2.28.06-3.92.19-4.92s.43-1.97.91-2.93c.66-1.33,1.7-2.39,3.12-3.21,1.42-.81,3.03-1.22,4.83-1.22s3.42.41,4.83,1.22c1.42.81,2.46,1.88,3.12,3.21.48.96.78,1.93.91,2.93s.19,2.63.19,4.92v23.76c0,1.62.26,3,.77,4.14.51,1.14,1.18,1.99,1.99,2.54.81.55,1.58.94,2.32,1.16.74.22,1.47.33,2.21.33s1.47-.11,2.21-.33c.74-.22,1.51-.61,2.32-1.16.81-.55,1.47-1.4,1.99-2.54.51-1.14.77-2.52.77-4.14Z"/>
    <path class="cls-1" d="m771.89,764.05v-35.8c0-2.28.06-3.92.19-4.92.13-.99.43-1.97.91-2.93.66-1.33,1.7-2.39,3.12-3.21,1.42-.81,3.03-1.22,4.84-1.22,3.83,0,6.67,1.77,8.51,5.3,1.51-1.51,3.44-2.81,5.78-3.9,2.34-1.09,4.74-1.63,7.21-1.63,4.01,0,7.35.92,10,2.76,2.73,1.92,4.09,4.27,4.09,7.07,0,2.65-.92,4.9-2.76,6.74-1.62,1.62-3.65,2.43-6.08,2.43-1.66,0-3.5-.48-5.53-1.44-1.73-.81-3.28-1.22-4.64-1.22-.77,0-1.55.12-2.32.36-.77.24-1.57.64-2.4,1.19-.83.55-1.5,1.4-2.02,2.54-.52,1.14-.77,2.51-.77,4.09v23.76c0,2.28-.06,3.92-.19,4.92s-.43,1.97-.91,2.93c-.66,1.33-1.7,2.39-3.12,3.2-1.42.81-3.03,1.22-4.83,1.22s-3.42-.41-4.84-1.22c-1.42-.81-2.46-1.88-3.12-3.2-.48-.96-.78-1.93-.91-2.93-.13-.99-.19-2.63-.19-4.92Z"/>
    <path class="cls-1" d="m869.91,737.3v26.74c0,2.28-.07,3.92-.19,4.92-.13.99-.43,1.97-.91,2.93-.66,1.33-1.7,2.39-3.12,3.2-1.42.81-3.03,1.22-4.84,1.22-3.83,0-6.67-1.77-8.51-5.3-2.17,2.03-4.2,3.44-6.08,4.23s-4.31,1.19-7.29,1.19c-5.97,0-10.72-1.77-14.26-5.3-3.46-3.46-5.19-8.1-5.19-13.92,0-2.32.41-4.48,1.22-6.49.81-2.01,2.02-3.83,3.62-5.47,1.6-1.64,3.75-2.93,6.44-3.87,2.69-.94,5.78-1.41,9.28-1.41h11.71v-1.55c0-2.65-.68-4.55-2.04-5.69-1.36-1.14-3.48-1.71-6.36-1.71-2.32,0-4.79.55-7.4,1.66-2.28.96-4.13,1.44-5.53,1.44-2.1,0-3.8-.81-5.08-2.43-1.33-1.62-1.99-3.43-1.99-5.41,0-1.73.55-3.21,1.66-4.45,1.11-1.23,2.39-2.18,3.87-2.85,4.79-2.14,9.73-3.2,14.81-3.2,8.58,0,15.09,1.8,19.53,5.39,4.44,3.59,6.66,8.98,6.66,16.16Zm-18.12,16.24v-1.55h-8.62c-2.06,0-3.63.43-4.7,1.3-1.07.87-1.6,2.05-1.6,3.56s.55,2.61,1.66,3.51c1.11.9,2.73,1.35,4.86,1.35,1.55,0,2.79-.15,3.73-.44.94-.29,1.87-.85,2.79-1.66,1.25-1.14,1.88-3.17,1.88-6.08Z"/>
  </g>
</svg>