<?xml version="1.0" encoding="UTF-8"?>
<svg id="Capa_1" data-name="Capa 1" xmlns="http://www.w3.org/2000/svg" viewBox="0 0 1000 1000">
  <defs>
    <style>
      .cls-1 {
        fill: #f8f5f0;
      }

      .cls-2 {
        fill: #27c5cd;
      }
    </style>
  </defs>
  <rect class="cls-2" x="98.52" y="98.52" width="802.96" height="802.96" rx="157.3" ry="157.3"/>
  <g>
    <path class="cls-1" d="m653.51,422.17c-22.11,0-37.3,2.57-37.3,2.57,0,0-.08,73.49-.08,132.65s-14.67,100.85-66.78,100.85c-26.93,0-47.96-9.41-68.6-37.97-8.77-12.62-16.73-29-20.37-37.84l-6.26-17.01c-10.53-21.72-19.75-43.45-29.62-66.48-5.27-10.53-8.56-23.04-16.46-31.6,7.24-9.87,10.53-19.09,17.77-28.96,1.98-4.61,5.27-7.24,7.9-10.53,2.63-4.61,4.61-7.24,6.58-11.85,2.63-4.61,5.92-7.24,8.56-10.53.66-1.97,1.32-3.95,2.63-5.27,3.29-5.27,7.9-9.22,9.87-15.14,12.51-13.82,21.06-31.6,31.6-46.74l5.27-5.93,4.61-9.22,5.92-8.56c4.61-7.24,5.92-13.17,10.53-18.43,0-5.27,2.63-7.9,3.29-12.51-1.98-1.98-1.98-3.29-2.63-5.27-17.77,0-35.55-5.27-53.32-3.29-9.87-1.98-20.41.66-30.28.66-.66,2.63-2.63,3.95-4.61,6.58-1.97,1.97-.66,3.95-2.63,5.92-5.92,11.19-13.82,21.72-21.72,32.25-3.29,5.92-5.92,11.85-9.22,17.11-7.9,11.19-13.82,21.72-21.06,32.91-9.87,17.77-19.75,34.23-32.26,49.37-.66-18.43,1.32-48.05.66-71.75l-1.32-69.12c-7.24-2.63-14.48-2.63-21.72-3.29-1.98,0-4.61-1.32-6.58-1.32-5.92-1.97-15.8-1.97-23.04-1.32-9.87,1.98-21.72,1.98-30.28,7.9,0,24.36,0,46.08.66,71.75,0,5.92-.66,13.82-.66,21.72.66,23.7-.66,47.4,0,71.09,0,4.61,0,9.22.66,13.82,0,9.87-.66,19.75-1.32,29.62,0,4.61,1.32,7.24,1.32,10.53,0,11.19.66,23.04,0,34.23,0,29.62-.66,57.27,0,88.21,1.98,39.5-2.63,77.02-.66,117.17,2.63,1.98,4.61-1.32,7.24-1.98,4.61-.66,9.22,1.98,14.48,1.98,1.98,0,1.32-.66,3.29-.66s2.63.66,4.61.66c7.9.66,16.46,0,24.36-.66,7.9,0,15.8,1.32,24.36,1.32.66-1.98,2.63-.66,4.61-2.63,5.27-50.03-2.63-92.82-.66-140.21,0-9.87,0-18.43.66-28.31l.66-.66c.66-2.63,3.95-5.92,5.92-8.56l5.92-9.22,18.41,38.05,24.06,52.82c24.06,52.82,59.22,89.03,111.15,98.39,51.93,9.36,103.61-4.39,139.01-35.58,35.4-31.19,38.12-98.83,38.12-98.83v-171.44c0-10.76-13.14-11.51-35.25-11.51Z"/>
    <g>
      <path class="cls-1" d="m648.96,322.46l-70.58,127.87c-1.57,2.85,1.12,6.14,4.39,5.36l69.63-16.81,69.63,16.81c3.27.79,5.96-2.5,4.39-5.36l-70.58-127.87c-1.46-2.65-5.42-2.65-6.88,0Z"/>
      <g>
        <path class="cls-1" d="m566.88,369.46c-1.51,0-2.95-.89-3.57-2.37-.83-1.97.1-4.23,2.07-5.06l33.3-13.97c1.97-.83,4.23.1,5.06,2.07.83,1.97-.1,4.23-2.07,5.06l-33.3,13.97c-.49.2-1,.3-1.49.3Z"/>
        <path class="cls-1" d="m600.16,318.9c-.48,0-.97-.09-1.45-.28l-33.28-13.43c-1.98-.8-2.94-3.05-2.14-5.03.8-1.98,3.06-2.94,5.03-2.14l33.28,13.43c1.98.8,2.94,3.05,2.14,5.03-.61,1.51-2.06,2.42-3.59,2.42Z"/>
        <path class="cls-1" d="m630.33,295.1c-1.54,0-3-.93-3.6-2.46l-13.16-33.66c-.78-1.99.2-4.23,2.19-5.01,1.99-.78,4.23.2,5.01,2.19l13.16,33.66c.78,1.99-.2,4.23-2.19,5.01-.46.18-.94.27-1.41.27Z"/>
        <path class="cls-1" d="m675.09,295.43c-.51,0-1.04-.1-1.54-.32-1.96-.85-2.86-3.13-2.01-5.08l14.75-33.99c.85-1.96,3.13-2.86,5.08-2.01,1.96.85,2.86,3.13,2.01,5.08l-14.75,33.99c-.63,1.46-2.06,2.33-3.55,2.33Z"/>
        <path class="cls-1" d="m706.87,321.4c-1.55,0-3.02-.94-3.61-2.48-.76-1.99.23-4.23,2.22-4.99l31.23-11.99c1.99-.77,4.23.23,4.99,2.22.76,1.99-.23,4.23-2.22,4.99l-31.23,11.99c-.46.17-.92.26-1.38.26Z"/>
        <path class="cls-1" d="m738.1,371.94c-.54,0-1.09-.11-1.62-.36l-31.8-14.66c-1.94-.89-2.79-3.19-1.89-5.13.89-1.94,3.2-2.78,5.13-1.89l31.8,14.66c1.94.89,2.79,3.19,1.89,5.13-.65,1.41-2.05,2.25-3.51,2.25Z"/>
      </g>
    </g>
  </g>
</svg>