<svg  height="150" viewBox="0 0 392 314" fill="none" xmlns="http://www.w3.org/2000/svg">
<path d="M276.405 235.788C276.405 236.476 275.491 236.476 275.718 237.386C269.096 237.386 262.479 238.302 256.084 237.614C253.114 237.386 250.149 236.926 247.412 236.926C246.725 234.64 245.816 232.582 244.674 230.757C241.937 222.757 238.285 215.9 235.315 207.673C233.719 204.017 231.89 200.816 230.976 196.472L226.41 184.817C222.985 175.447 218.191 166.532 213.853 156.706C213.166 154.876 212.024 153.278 211.797 151.22C211.11 150.992 210.882 149.622 210.655 148.934C210.428 165.389 210.882 180.245 211.11 196.012C211.11 198.753 211.11 201.499 211.337 204.239C211.337 207.213 211.791 209.953 211.791 212.694C211.791 214.752 211.337 216.805 211.337 218.636C210.65 224.35 210.65 230.291 210.65 236.005C209.736 236.233 209.281 235.778 209.054 236.693C201.063 239.434 191.931 238.291 183.031 236.693C182.344 235.095 182.117 231.434 183.031 230.297C182.344 228.699 182.576 226.413 182.576 224.81C182.804 221.837 183.031 218.641 182.804 215.667C182.576 212.694 182.117 209.953 182.117 207.44C181.889 204.012 182.344 201.044 182.571 197.615C182.798 191.901 182.117 187.102 182.344 180.933V163.336C182.344 160.595 182.798 157.849 182.571 155.336C182.344 148.024 183.026 140.252 183.026 132.252C182.798 114.882 182.111 97.5127 183.026 78.0901C190.329 76.9473 199.916 76.032 207.907 77.1748C208.134 77.8626 208.362 77.4023 209.049 77.6298C211.559 81.5133 212.928 86.312 214.529 90.8833C218.868 97.2852 220.691 105.507 224.116 112.597C226.854 118.766 229.596 124.708 232.107 130.882C236.9 143.68 241.921 155.791 248.088 167.447L249.003 153.051C249.23 147.797 249.003 143.225 248.775 137.966C248.775 127.908 249.003 117.628 248.775 107.343V101.174C248.775 92.2589 248.548 85.6348 248.775 77.4076C258.135 75.8097 267.495 75.5769 275.94 78.0954C276.167 83.3544 276.167 88.1532 276.167 93.407C276.167 98.6608 276.394 103.692 276.394 108.946C276.167 114.205 275.707 119.459 275.707 124.718C276.394 142.088 274.793 160.601 275.48 176.14C275.707 180.023 275.48 184.139 275.48 188.483C275.707 196.483 275.707 204.71 276.394 212.71C276.622 220.71 275.707 228.249 276.394 235.794L276.405 235.788Z" fill="white"/>
<path d="M390.995 158.541C390.995 167.684 390.541 174.768 390.768 182.308C390.995 185.736 390.768 189.392 390.541 193.048C390.541 194.879 389.854 196.704 390.995 197.847C390.768 205.386 388.258 212.703 385.288 218.872C381.863 225.274 377.069 229.385 371.589 233.729L364.513 236.015C362.916 236.242 361.088 236.015 359.492 236.242C358.805 236.242 357.896 236.47 357.209 236.47L348.991 236.925L328.216 238.068C322.735 238.068 317.714 238.068 312.921 237.84C311.325 237.613 309.951 238.068 308.355 237.84C307.441 237.152 307.9 236.697 306.299 236.925C305.612 232.353 305.385 228.47 305.158 224.126C304.93 223.211 305.385 222.528 305.385 221.613C305.385 219.782 305.158 217.957 305.158 216.126C305.158 207.899 305.385 200.355 305.612 192.127C305.612 189.154 305.385 185.958 305.385 182.53C305.385 179.101 305.158 175.9 305.158 172.472C305.158 169.959 306.072 167.446 305.385 164.932C305.385 164.245 305.158 163.79 305.158 163.102C304.93 161.959 305.158 160.816 305.158 159.218C305.158 155.562 304.93 150.303 305.158 146.42C305.158 140.251 304.703 133.394 304.93 127.225C305.158 120.14 305.158 113.056 304.476 105.971V101.4C304.249 94.7708 305.39 85.8611 304.703 78.5438C304.93 77.856 306.299 77.856 306.299 76.946C317.942 76.2582 332.095 76.491 345.106 77.401C347.844 77.401 350.587 77.401 353.097 77.6285C356.522 78.3163 359.946 78.9988 363.598 78.7713C366.109 80.3692 369.306 81.2845 371.816 82.8876C372.503 83.1151 372.731 83.8029 373.412 84.0304C375.241 85.1732 376.837 85.4008 378.433 87.0039C380.943 88.8345 381.858 90.4323 383.686 93.173L386.197 97.2892C387.111 99.8024 387.565 102.543 388.48 105.289C389.167 108.03 390.076 110.776 390.308 113.516C390.995 119.685 390.535 125.172 390.308 131.569C390.308 137.738 390.763 143.912 390.995 150.081V158.536V158.541ZM362.916 199.905C363.831 193.736 363.371 186.879 362.689 181.165C363.376 177.281 362.689 173.853 362.462 169.509C362.462 166.996 362.916 164.938 362.689 162.425C362.462 159.911 362.462 157.853 362.462 155.34C363.149 148.256 362.235 141.399 362.462 134.314C362.462 125.86 364.518 114.887 360.179 108.035C359.037 106.437 357.441 105.294 354.931 104.379L352.875 103.464C347.395 101.866 341.005 104.151 334.843 103.464C334.156 112.379 334.843 122.204 334.616 129.288C334.388 132.262 334.616 135.002 334.616 137.97C334.616 142.769 334.161 147.795 334.161 153.055C334.161 158.314 334.388 163.795 334.388 168.594C334.388 175.223 335.075 181.847 334.843 188.932C334.616 196.016 335.297 203.555 334.616 211.1C338.268 211.788 342.379 211.1 345.117 211.788C349.91 211.56 355.391 210.19 358.815 208.36C359.879 207.749 360.64 206.912 361.098 205.846L362.927 199.905H362.916Z" fill="white"/>
<path d="M135.021 127.779C127.395 127.779 122.163 128.668 122.163 128.668C122.163 128.668 122.136 154.032 122.136 174.455C122.136 194.878 117.079 209.263 99.1099 209.263C89.8243 209.263 82.5734 206.015 75.4599 196.158C72.4369 191.804 69.6887 186.148 68.4362 183.1L66.28 177.227C62.6492 169.73 59.473 162.233 56.0695 154.281C54.2515 150.646 53.1205 146.329 50.3935 143.377C52.888 139.969 54.0242 136.79 56.5187 133.377C57.2005 131.785 58.3367 130.88 59.2404 129.742C60.1494 128.15 60.8312 127.245 61.5077 125.652C62.4167 124.06 63.5529 123.155 64.4567 122.018C64.6839 121.335 64.9112 120.653 65.3657 120.198C66.5019 118.378 68.0874 117.018 68.7692 114.97C73.0817 110.198 76.0306 104.066 79.6614 98.8386L81.4794 96.791L83.0702 93.6112L85.1154 90.6589C86.7062 88.1617 87.1607 86.1141 88.7462 84.2994C88.7462 82.4793 89.6552 81.5746 89.8824 79.982C89.2007 79.2995 89.2007 78.8445 88.9734 78.162C82.8482 78.162 76.7177 76.342 70.5924 77.0245C67.189 76.342 63.5582 77.252 60.1547 77.252C59.9275 78.162 59.2457 78.617 58.564 79.5217C57.8822 80.2043 58.3367 80.8868 57.655 81.564C55.615 85.4263 52.888 89.0611 50.1662 92.6959C49.03 94.7382 48.1262 96.7857 46.99 98.6005C44.2682 102.463 42.223 106.098 39.7285 109.96C36.325 116.092 32.9215 121.774 28.609 127.002C28.3818 120.642 29.0635 110.415 28.8363 102.235L28.3818 78.3789C25.8873 77.4689 23.3875 77.4689 20.893 77.2414C20.2113 77.2414 19.3023 76.7864 18.6258 76.7864C16.5858 76.1039 13.177 76.1039 10.6826 76.3314C7.27906 77.0139 3.19381 77.0139 0.244826 79.0561C0.244826 87.4633 0.24483 94.9604 0.472082 103.823C0.472082 105.865 0.244826 108.595 0.244826 111.32C0.472078 119.499 0.0175743 127.679 0.244826 135.858C0.244826 137.451 0.24483 139.038 0.472082 140.631C0.472082 144.038 0.24483 147.445 0.0175781 150.853C0.0175781 152.445 0.472082 153.35 0.472082 154.487C0.472082 158.35 0.699334 162.44 0.472082 166.302C0.472082 176.524 0.24483 186.068 0.472082 196.745C1.15384 210.38 -0.436929 223.326 0.244826 237.188C1.15383 237.871 1.83559 236.733 2.73931 236.506C4.33007 236.278 5.91556 237.188 7.73357 237.188C8.41533 237.188 8.18807 236.961 8.86983 236.961C9.55158 236.961 9.77883 237.188 10.4606 237.188C13.1823 237.416 16.1366 237.188 18.8583 236.961C21.5801 236.961 24.3071 237.416 27.2561 237.416C27.4833 236.733 28.1651 237.188 28.8468 236.506C30.6649 219.237 27.9378 204.47 28.6196 188.111C28.6196 184.703 28.6196 181.751 28.8468 178.339L29.0741 178.111C29.3013 177.201 30.4376 176.069 31.1141 175.159L33.154 171.979L39.5012 185.111L47.7986 203.343C56.0959 221.575 68.2142 234.072 86.1196 237.305C104.025 240.537 121.84 235.786 134.043 225.025C146.246 214.258 147.187 190.915 147.187 190.915V131.737C147.187 128.023 142.658 127.764 135.032 127.764L135.021 127.779Z" fill="white"/>
<path d="M133.451 93.3662L109.119 137.502C108.575 138.486 109.505 139.624 110.63 139.349L134.635 133.545L158.639 139.349C159.764 139.619 160.694 138.486 160.15 137.502L135.818 93.3662C135.316 92.4509 133.953 92.4509 133.445 93.3662H133.451Z" fill="white"/>
<path d="M105.156 109.6C104.633 109.6 104.141 109.293 103.924 108.779C103.639 108.102 103.961 107.319 104.638 107.033L116.117 102.214C116.793 101.928 117.575 102.251 117.861 102.928C118.146 103.605 117.824 104.388 117.147 104.674L105.668 109.494C105.499 109.562 105.325 109.6 105.156 109.6Z" fill="white"/>
<path d="M116.629 92.1442C116.465 92.1442 116.296 92.1125 116.132 92.049L104.659 87.4142C103.977 87.1391 103.644 86.3613 103.919 85.6788C104.194 84.9963 104.97 84.6683 105.652 84.9381L117.126 89.5729C117.807 89.848 118.14 90.6257 117.866 91.3083C117.654 91.8268 117.157 92.1442 116.629 92.1442Z" fill="white"/>
<path d="M127.029 83.9287C126.495 83.9287 125.993 83.606 125.787 83.0822L121.247 71.4635C120.977 70.7757 121.316 70.0033 122.003 69.7334C122.69 69.4636 123.461 69.8022 123.731 70.49L128.271 82.1087C128.54 82.7965 128.202 83.5689 127.515 83.8388C127.356 83.9023 127.193 83.9287 127.029 83.9287Z" fill="white"/>
<path d="M142.463 84.0462C142.289 84.0462 142.104 84.0092 141.935 83.9351C141.258 83.6441 140.952 82.8558 141.242 82.1785L146.327 70.4435C146.617 69.7663 147.405 69.4594 148.081 69.7504C148.758 70.0414 149.064 70.8297 148.773 71.5069L143.689 83.242C143.473 83.7446 142.981 84.0462 142.469 84.0462H142.463Z" fill="white"/>
<path d="M153.416 93.0038C152.883 93.0038 152.375 92.6758 152.169 92.1467C151.905 91.4589 152.248 90.6865 152.935 90.4219L163.701 86.2845C164.388 86.02 165.16 86.3639 165.424 87.0517C165.688 87.7395 165.344 88.5119 164.657 88.7765L153.892 92.9139C153.734 92.9721 153.575 93.0038 153.416 93.0038Z" fill="white"/>
<path d="M164.183 110.452C163.998 110.452 163.808 110.415 163.628 110.331L152.662 105.267C151.991 104.96 151.7 104.167 152.012 103.495C152.318 102.823 153.111 102.532 153.782 102.844L164.749 107.907C165.42 108.214 165.71 109.008 165.399 109.68C165.177 110.167 164.69 110.458 164.188 110.458L164.183 110.452Z" fill="white"/>
<path d="M25.8697 48.2988H7.22449C6.4159 48.2988 5.78171 48.2829 5.31135 48.2459C4.84099 48.2089 4.24379 48.066 3.51447 47.8067C2.78515 47.5475 2.16682 47.1613 1.64889 46.6481C1.13097 46.1349 0.745171 45.5105 0.491494 44.7804C0.232533 44.0503 0.0898389 43.4524 0.0528444 42.9815C0.0211349 42.5106 0 41.8704 0 41.0662V7.63881C0 6.82931 0.0158499 6.19441 0.0528444 5.72352C0.084554 5.25264 0.232533 4.65478 0.491494 3.92465C0.750455 3.19451 1.13626 2.57549 1.64889 2.05699C2.16153 1.54377 2.78515 1.15225 3.51447 0.898293C4.24379 0.639042 4.84099 0.496189 5.31135 0.459153C5.78171 0.422118 6.42118 0.40625 7.22449 0.40625H25.8697C27.1487 0.40625 28.0735 0.443286 28.6601 0.522649C29.2415 0.602011 29.8123 0.776603 30.3725 1.04644C31.1335 1.40621 31.7518 2.00408 32.2222 2.84532C32.6925 3.68656 32.9251 4.62304 32.9251 5.65475C32.9251 6.68646 32.6873 7.62293 32.2222 8.46418C31.7518 9.30542 31.1335 9.90328 30.3725 10.2631C29.8123 10.5329 29.2415 10.7075 28.6601 10.7868C28.0788 10.8662 27.1487 10.9032 25.8697 10.9032H11.8277V18.9083H22.8467C24.1257 18.9083 25.0505 18.9453 25.6372 19.0247C26.2185 19.104 26.7893 19.2786 27.3495 19.5485C28.1105 19.9082 28.7289 20.5061 29.1992 21.3473C29.6696 22.1886 29.9021 23.1251 29.9021 24.1568C29.9021 25.1885 29.6643 26.125 29.1992 26.9662C28.7289 27.8074 28.1105 28.4053 27.3495 28.7651C26.7893 29.0349 26.2185 29.2095 25.6372 29.2836C25.0558 29.3629 24.1257 29.4 22.8467 29.4H11.8277V37.8071H25.8697C27.1487 37.8071 28.0735 37.8441 28.6601 37.9235C29.2415 38.0029 29.8123 38.1775 30.3725 38.4473C31.1335 38.8071 31.7518 39.4049 32.2222 40.2462C32.6925 41.0874 32.9251 42.0239 32.9251 43.0556C32.9251 44.0873 32.6873 45.0238 32.2222 45.865C31.7518 46.7063 31.1335 47.3041 30.3725 47.6639C29.8123 47.9337 29.2415 48.1083 28.6601 48.1824C28.0788 48.2618 27.1487 48.2988 25.8697 48.2988Z" fill="#FF6801"/>
<path d="M57.4099 29.8032L51.6335 28.9937C47.3791 28.3906 44.1765 26.9779 42.0255 24.7558C39.8323 22.4913 38.733 19.2851 38.733 15.1371C38.733 10.6769 40.3079 7.0368 43.4524 4.22208C46.597 1.40736 50.846 0 56.1997 0C59.9625 0 63.3872 0.60315 66.4788 1.81475C68.0009 2.4179 69.2006 3.22211 70.0726 4.21679C70.9446 5.21676 71.3833 6.3437 71.3833 7.59763C71.3833 8.85155 70.9129 10.1108 69.9722 11.2271C69.1002 12.3012 67.9586 12.8408 66.5476 12.8408C65.5857 12.8408 64.1958 12.4599 62.383 11.698C60.2796 10.8039 58.1075 10.3541 55.8667 10.3541C53.9853 10.3541 52.5531 10.7721 51.5648 11.6134C50.5765 12.4546 50.085 13.3805 50.085 14.3858C50.085 15.4598 50.3968 16.3169 51.0257 16.9412C51.7656 17.6819 52.8596 18.1528 54.3182 18.3539L60.0947 19.1634C64.3279 19.7665 67.4618 21.0945 69.5018 23.1315C71.8748 25.4383 73.0639 28.9408 73.0639 33.6232C73.0639 36.7607 72.2183 39.4907 70.5271 41.8134C68.8359 44.1361 66.6163 45.8609 63.8575 46.9931C61.1041 48.1254 58.0124 48.6915 54.5878 48.6915C49.9952 48.6915 46.3486 48.1518 43.6374 47.0778C41.534 46.2471 39.9644 45.3106 38.9338 44.2684C37.9033 43.2261 37.3906 41.8769 37.3906 40.2156C37.3906 38.7341 37.9297 37.4591 39.0025 36.3797C39.8534 35.5279 40.9262 35.0993 42.2263 35.0993C42.7865 35.0993 43.352 35.1946 43.9228 35.3851C44.4936 35.5755 45.4501 35.9512 46.7925 36.512C49.5037 37.676 52.1197 38.2633 54.6512 38.2633C56.9343 38.2633 58.6466 37.8876 59.7881 37.1363C60.9297 36.385 61.5004 35.3057 61.5004 33.893C61.5004 32.7026 61.1886 31.7661 60.5597 31.0677C59.8885 30.3958 58.8368 29.9672 57.4046 29.7873L57.4099 29.8032Z" fill="#FF6801"/>
<path d="M80.6582 40.6349V7.64662C80.6582 6.83712 80.674 6.20223 80.711 5.73134C80.7427 5.26046 80.8907 4.66259 81.1497 3.93246C81.4087 3.20232 81.7945 2.5833 82.3071 2.0648C82.8197 1.55159 83.4434 1.16007 84.1727 0.906105C84.902 0.646855 85.4992 0.50401 85.9695 0.466974C86.4399 0.429938 87.0794 0.414062 87.8827 0.414062H99.6734C102.247 0.414062 104.588 0.847909 106.692 1.71031C108.795 2.57272 110.518 3.72612 111.85 5.17581C113.182 6.6202 114.207 8.26036 114.926 10.0857C115.644 11.911 115.998 13.8263 115.998 15.8209C115.998 17.8156 115.639 19.7256 114.926 21.5562C114.207 23.3815 113.187 25.0217 111.85 26.4661C110.518 27.9105 108.8 29.0692 106.692 29.9316C104.588 30.794 102.247 31.2278 99.6734 31.2278H92.4859V40.6455C92.4859 42.1058 92.4489 43.1375 92.3696 43.7565C92.2903 44.3755 92.0842 45.0157 91.746 45.6877C91.3179 46.5395 90.6414 47.2326 89.7113 47.7723C88.7811 48.3119 87.7347 48.5817 86.572 48.5817C85.4094 48.5817 84.3577 48.3119 83.4328 47.7723C82.5026 47.2326 81.8262 46.5395 81.3981 45.6877C81.0599 45.0157 80.8537 44.3703 80.7745 43.7565C80.6952 43.1428 80.6582 42.1058 80.6582 40.6455V40.6349ZM92.4806 20.7255H99.129C100.672 20.7255 101.909 20.2388 102.839 19.2653C103.769 18.2918 104.234 17.1437 104.234 15.8157C104.234 14.4877 103.769 13.3448 102.839 12.366C101.909 11.3925 100.672 10.9005 99.129 10.9005H92.4806V20.7203V20.7255Z" fill="#FF6801"/>
<path d="M117.003 39.29L129.766 5.3599C130.485 3.47637 131.299 2.17482 132.218 1.46056C133.317 0.587574 134.702 0.148438 136.383 0.148438C138.063 0.148438 139.453 0.587574 140.547 1.46056C141.467 2.18011 142.281 3.47637 142.999 5.3599L155.763 39.29C156.212 40.5016 156.518 41.4486 156.687 42.1311C156.856 42.8137 156.856 43.5861 156.687 44.4538C156.518 45.3162 156.074 46.1098 155.361 46.8241C154.198 47.9881 152.787 48.5754 151.128 48.5754C149.785 48.5754 148.675 48.1733 147.803 47.3638C147.312 46.914 146.916 46.4114 146.609 45.8506C146.308 45.2898 145.933 44.385 145.483 43.1258L144.78 41.1735H127.985L127.282 43.1258C126.833 44.3797 126.458 45.2898 126.156 45.8506C125.855 46.4114 125.459 46.914 124.962 47.3638C124.09 48.1733 122.98 48.5754 121.638 48.5754C119.978 48.5754 118.567 47.9934 117.405 46.8241C116.686 46.1045 116.247 45.3162 116.078 44.4538C115.909 43.5914 115.909 42.8189 116.078 42.1311C116.247 41.4486 116.554 40.5016 117.003 39.29ZM141.224 31.3537L136.388 18.0367L131.552 31.3537H141.229H141.224Z" fill="#FF6801"/>
<path d="M160.725 29.0466C160.693 27.962 160.672 26.3959 160.672 24.3537C160.672 22.3114 160.688 20.7506 160.725 19.6607C160.756 18.5708 160.857 17.2269 161.026 15.6238C161.195 14.0207 161.438 12.7086 161.766 11.6874C162.088 10.6663 162.58 9.5764 163.224 8.40712C163.875 7.24314 164.667 6.19027 165.608 5.2485C169.101 1.75126 173.504 0 178.81 0C181.743 0 184.116 0.275122 185.934 0.825368C187.747 1.37561 189.395 2.31209 190.87 3.6348C192.503 5.11623 193.671 6.64528 194.363 8.22724C195.056 9.80919 195.404 11.2377 195.404 12.5128C195.404 14.3963 194.855 15.8884 193.761 16.9836C192.662 18.084 191.309 18.629 189.697 18.629C188.444 18.629 187.387 18.3274 186.536 17.719C185.553 17.047 184.512 15.7349 183.413 13.7826C182.742 12.5922 182.028 11.7456 181.278 11.243C180.527 10.7404 179.613 10.4864 178.54 10.4864C176.77 10.4864 175.359 11.1795 174.307 12.571C173.588 13.5128 173.107 14.7508 172.864 16.2852C172.616 17.8195 172.494 20.5072 172.494 24.3378C172.494 28.1684 172.616 30.8561 172.864 32.3904C173.113 33.9248 173.594 35.1628 174.307 36.1046C175.359 37.4961 176.77 38.1892 178.54 38.1892C179.613 38.1892 180.527 37.9352 181.278 37.4326C182.028 36.93 182.742 36.0834 183.413 34.893C184.512 32.9407 185.553 31.6286 186.536 30.9566C187.387 30.3535 188.439 30.0466 189.697 30.0466C191.309 30.0466 192.662 30.5968 193.761 31.692C194.86 32.7925 195.404 34.2793 195.404 36.1628C195.404 37.4432 195.056 38.8717 194.363 40.4484C193.671 42.0303 192.503 43.5594 190.87 45.0408C189.39 46.3635 187.747 47.3 185.934 47.8502C184.121 48.4005 181.748 48.6756 178.81 48.6756C173.504 48.6756 169.101 46.9243 165.608 43.4271C164.667 42.4853 163.875 41.4325 163.224 40.2685C162.574 39.1045 162.088 38.0093 161.766 36.9882C161.438 35.967 161.195 34.6549 161.026 33.0518C160.857 31.4487 160.756 30.1048 160.725 29.0149V29.0466Z" fill="#FF6801"/>
<path d="M202.83 40.6313V8.07686C202.83 6.62189 202.867 5.58488 202.946 4.96586C203.026 4.35212 203.232 3.70664 203.57 3.03471C203.993 2.18288 204.675 1.48978 205.605 0.950121C206.535 0.410456 207.581 0.140625 208.744 0.140625C209.907 0.140625 210.953 0.410456 211.883 0.950121C212.813 1.48978 213.49 2.18288 213.918 3.03471C214.256 3.70664 214.462 4.35212 214.541 4.96586C214.621 5.58488 214.658 6.62189 214.658 8.07686V40.6313C214.658 42.0916 214.621 43.1233 214.541 43.7423C214.462 44.3613 214.256 45.0015 213.918 45.6735C213.49 46.5253 212.813 47.2184 211.883 47.758C210.953 48.2977 209.907 48.5675 208.744 48.5675C207.581 48.5675 206.53 48.2977 205.605 47.758C204.675 47.2184 203.998 46.5253 203.57 45.6735C203.232 45.0015 203.026 44.356 202.946 43.7423C202.867 43.1286 202.83 42.0916 202.83 40.6313Z" fill="#FF6801"/>
<path d="M254.258 43.4588C252.488 45.2313 250.538 46.5487 248.397 47.4111C246.257 48.2735 243.768 48.7073 240.924 48.7073C238.081 48.7073 235.587 48.2735 233.451 47.4111C231.311 46.5487 229.356 45.2313 227.59 43.4588C226.65 42.5171 225.857 41.4642 225.207 40.3002C224.557 39.1362 224.071 38.041 223.748 37.0199C223.421 35.9988 223.177 34.6867 223.008 33.0835C222.839 31.4804 222.739 30.1365 222.707 29.0466C222.675 27.962 222.654 26.3959 222.654 24.3537C222.654 22.3114 222.67 20.7506 222.707 19.6607C222.739 18.5708 222.839 17.2269 223.008 15.6238C223.177 14.0207 223.421 12.7086 223.748 11.6874C224.071 10.6663 224.562 9.57639 225.207 8.40712C225.857 7.24314 226.65 6.19027 227.59 5.2485C229.361 3.47607 231.311 2.15866 233.451 1.29625C235.592 0.433846 238.081 0 240.924 0C243.768 0 246.257 0.433846 248.397 1.29625C250.538 2.15866 252.488 3.47607 254.258 5.2485C255.199 6.19027 255.992 7.24314 256.642 8.40712C257.292 9.5711 257.778 10.6663 258.1 11.6874C258.423 12.7086 258.671 14.0207 258.84 15.6238C259.009 17.2269 259.11 18.5708 259.141 19.6607C259.173 20.7506 259.189 22.3114 259.189 24.3537C259.189 26.3959 259.173 27.9567 259.141 29.0466C259.11 30.1365 259.009 31.4804 258.84 33.0835C258.671 34.6867 258.423 35.9988 258.1 37.0199C257.773 38.041 257.286 39.131 256.642 40.3002C255.992 41.4642 255.199 42.5171 254.258 43.4588ZM245.628 36.0623C246.257 35.2316 246.701 34.0782 246.97 32.5968C247.24 31.1153 247.372 28.3694 247.372 24.359C247.372 20.3485 247.24 17.5814 246.97 16.0682C246.701 14.5551 246.251 13.3964 245.628 12.5869C245.157 11.9837 244.513 11.4811 243.694 11.0896C242.874 10.698 241.955 10.5023 240.924 10.5023C239.894 10.5023 238.969 10.698 238.155 11.0896C237.336 11.4811 236.696 11.9784 236.226 12.5869C235.597 13.3964 235.153 14.5551 234.884 16.0682C234.614 17.5814 234.482 20.3432 234.482 24.359C234.482 28.3747 234.614 31.1206 234.884 32.5968C235.153 34.0782 235.602 35.2316 236.226 36.0623C237.325 37.4961 238.89 38.2156 240.93 38.2156C242.97 38.2156 244.534 37.4961 245.633 36.0623H245.628Z" fill="#FF6801"/>
<path d="M11.5014 295.787V269.942H7.21002C6.10018 269.942 5.29159 269.91 4.78424 269.841C4.27689 269.772 3.7801 269.624 3.29389 269.386C2.63327 269.074 2.09421 268.55 1.68727 267.82C1.28033 267.09 1.07422 266.275 1.07422 265.381C1.07422 264.487 1.28033 263.672 1.68727 262.942C2.09421 262.212 2.63327 261.688 3.29389 261.376C3.7801 261.143 4.27689 260.99 4.78424 260.921C5.29159 260.852 6.10018 260.82 7.21002 260.82H26.0719C27.1817 260.82 27.9903 260.857 28.4977 260.921C29.005 260.99 29.5018 261.138 29.988 261.376C30.6487 261.688 31.1877 262.207 31.5947 262.942C32.0016 263.672 32.2077 264.487 32.2077 265.381C32.2077 266.275 32.0016 267.09 31.5947 267.82C31.1877 268.55 30.6487 269.074 29.988 269.386C29.5018 269.619 29.005 269.772 28.4977 269.841C27.9903 269.91 27.1817 269.942 26.0719 269.942H21.7805V295.787C21.7805 297.052 21.7488 297.957 21.6801 298.491C21.6114 299.025 21.4317 299.586 21.1411 300.173C20.7711 300.914 20.1792 301.517 19.3759 301.988C18.5673 302.454 17.6583 302.692 16.6436 302.692C15.6289 302.692 14.7199 302.459 13.9113 301.988C13.1027 301.523 12.5161 300.914 12.1461 300.173C11.8555 299.586 11.6758 299.031 11.6071 298.491C11.5384 297.957 11.5067 297.052 11.5067 295.787H11.5014Z" fill="#FF6801"/>
<path d="M51.8841 289.826V277.255C51.8841 276.049 51.9158 275.181 51.9845 274.652C52.0532 274.128 52.2117 273.61 52.4654 273.102C52.8142 272.398 53.3639 271.837 54.1143 271.403C54.8648 270.975 55.7156 270.758 56.6722 270.758C57.6288 270.758 58.4797 270.975 59.2248 271.403C59.9753 271.832 60.5249 272.398 60.8737 273.102C61.1274 273.61 61.286 274.123 61.3547 274.652C61.4234 275.181 61.4551 276.043 61.4551 277.255V296.196C61.4551 297.402 61.4234 298.27 61.3547 298.799C61.286 299.328 61.1274 299.841 60.8737 300.349C60.5249 301.053 59.9753 301.614 59.2248 302.042C58.4744 302.471 57.6235 302.688 56.6722 302.688C54.6481 302.688 53.1472 301.751 52.1747 299.884C51.2393 300.82 50.1031 301.54 48.7713 302.048C47.4394 302.556 46.1182 302.81 44.8128 302.81C41.8903 302.81 39.5385 301.915 37.7469 300.122C36.4997 298.873 35.6646 297.54 35.2366 296.117C34.8085 294.694 34.5918 293.027 34.5918 291.117V277.26C34.5918 276.054 34.6235 275.186 34.6922 274.657C34.7609 274.128 34.9195 273.615 35.1731 273.107C35.5219 272.403 36.0716 271.842 36.822 271.409C37.5725 270.98 38.4234 270.763 39.3747 270.763C40.3259 270.763 41.1821 270.98 41.9273 271.409C42.6777 271.837 43.2274 272.403 43.5762 273.107C43.8298 273.615 43.9884 274.128 44.0571 274.657C44.1258 275.186 44.1575 276.049 44.1575 277.26V289.831C44.1575 290.688 44.2949 291.418 44.5644 292.022C44.834 292.625 45.1881 293.075 45.6161 293.366C46.0442 293.656 46.4512 293.863 46.8423 293.979C47.2333 294.096 47.6191 294.154 48.0102 294.154C48.4013 294.154 48.7871 294.096 49.1782 293.979C49.5693 293.863 49.9762 293.656 50.4043 293.366C50.8324 293.075 51.1812 292.625 51.456 292.022C51.7255 291.418 51.8629 290.688 51.8629 289.831L51.8841 289.826Z" fill="#FF6801"/>
<path d="M106.139 282.05V296.198C106.139 297.404 106.102 298.272 106.038 298.801C105.969 299.324 105.811 299.843 105.557 300.351C105.208 301.055 104.659 301.615 103.908 302.044C103.158 302.473 102.307 302.689 101.35 302.689C99.3263 302.689 97.8254 301.753 96.8529 299.885C95.7061 300.959 94.6333 301.705 93.6397 302.123C92.6461 302.541 91.3619 302.753 89.787 302.753C86.6319 302.753 84.1216 301.816 82.2507 299.949C80.3798 298.081 79.5078 295.663 79.5078 292.584C79.5078 291.356 79.7245 290.214 80.1526 289.15C80.5807 288.087 81.2201 287.124 82.0657 286.256C82.9113 285.388 84.0476 284.706 85.4692 284.209C86.8909 283.711 88.5239 283.463 90.3736 283.463H96.5623V282.642C96.5623 281.24 96.2029 280.235 95.4841 279.632C94.7654 279.029 93.645 278.727 92.1229 278.727C90.8968 278.727 89.5915 279.018 88.2121 279.606C87.0071 280.113 86.0294 280.367 85.2895 280.367C84.1797 280.367 83.2813 279.939 82.6048 279.082C81.9019 278.225 81.5531 277.267 81.5531 276.219C81.5531 275.304 81.8437 274.521 82.4304 273.865C83.017 273.214 83.6935 272.712 84.4757 272.357C87.0071 271.225 89.6179 270.664 92.3026 270.664C96.8371 270.664 100.278 271.616 102.624 273.516C104.971 275.415 106.144 278.267 106.144 282.066L106.139 282.05ZM96.5623 290.642V289.822H92.0067C90.918 289.822 90.0882 290.05 89.5228 290.51C88.9573 290.97 88.6772 291.595 88.6772 292.393C88.6772 293.192 88.9678 293.774 89.5545 294.251C90.1411 294.727 90.9973 294.965 92.1229 294.965C92.9421 294.965 93.5974 294.885 94.0942 294.732C94.591 294.579 95.0825 294.282 95.5687 293.854C96.2293 293.251 96.5623 292.177 96.5623 290.637V290.642Z" fill="#FF6801"/>
<path d="M130.085 289.826V277.255C130.085 276.049 130.117 275.181 130.186 274.652C130.254 274.128 130.413 273.61 130.667 273.102C131.015 272.398 131.565 271.837 132.315 271.403C133.066 270.975 133.917 270.758 134.873 270.758C135.83 270.758 136.681 270.975 137.426 271.403C138.176 271.832 138.726 272.398 139.075 273.102C139.329 273.61 139.487 274.123 139.556 274.652C139.625 275.181 139.656 276.043 139.656 277.255V296.196C139.656 297.402 139.625 298.27 139.556 298.799C139.487 299.328 139.329 299.841 139.075 300.349C138.726 301.053 138.176 301.614 137.426 302.042C136.676 302.471 135.825 302.688 134.873 302.688C132.849 302.688 131.348 301.751 130.376 299.884C129.44 300.82 128.304 301.54 126.972 302.048C125.641 302.556 124.319 302.81 123.014 302.81C120.091 302.81 117.74 301.915 115.948 300.122C114.701 298.873 113.866 297.54 113.438 296.117C113.01 294.694 112.793 293.027 112.793 291.117V277.26C112.793 276.054 112.825 275.186 112.893 274.657C112.962 274.128 113.121 273.615 113.374 273.107C113.723 272.403 114.273 271.842 115.023 271.409C115.774 270.98 116.625 270.763 117.576 270.763C118.527 270.763 119.383 270.98 120.128 271.409C120.879 271.837 121.429 272.403 121.777 273.107C122.031 273.615 122.19 274.128 122.258 274.657C122.327 275.186 122.359 276.049 122.359 277.26V289.831C122.359 290.688 122.496 291.418 122.766 292.022C123.035 292.625 123.389 293.075 123.817 293.366C124.245 293.656 124.652 293.863 125.043 293.979C125.435 294.096 125.82 294.154 126.211 294.154C126.602 294.154 126.988 294.096 127.379 293.979C127.77 293.863 128.177 293.656 128.605 293.366C129.034 293.075 129.382 292.625 129.657 292.022C129.927 291.418 130.064 290.688 130.064 289.831L130.085 289.826Z" fill="#FF6801"/>
<path d="M156.423 302.455H156.249C154.631 302.455 153.189 302.18 151.91 301.619C150.636 301.064 149.621 300.328 148.871 299.413C148.12 298.497 147.555 297.508 147.174 296.445C146.794 295.381 146.604 294.286 146.604 293.154V267.075C146.604 265.869 146.635 265.001 146.704 264.472C146.773 263.948 146.931 263.43 147.185 262.922C147.534 262.218 148.083 261.657 148.834 261.224C149.584 260.795 150.435 260.578 151.386 260.578C152.338 260.578 153.194 260.795 153.939 261.224C154.689 261.652 155.239 262.218 155.588 262.922C155.842 263.43 156 263.943 156.069 264.472C156.138 265.001 156.169 265.864 156.169 267.075V292.45C156.169 293.715 156.761 294.381 157.95 294.439C158.923 294.498 159.71 294.672 160.313 294.963C161.597 295.609 162.242 296.757 162.242 298.413C162.242 300.069 161.581 301.143 160.254 301.804C159.398 302.233 158.114 302.45 156.402 302.45L156.423 302.455Z" fill="#FF6801"/>
<path d="M190.766 282.05V296.198C190.766 297.404 190.729 298.272 190.665 298.801C190.596 299.324 190.438 299.843 190.184 300.351C189.835 301.055 189.286 301.615 188.535 302.044C187.785 302.473 186.934 302.689 185.977 302.689C183.953 302.689 182.452 301.753 181.48 299.885C180.333 300.959 179.26 301.705 178.267 302.123C177.273 302.541 175.989 302.753 174.414 302.753C171.259 302.753 168.749 301.816 166.878 299.949C165.007 298.081 164.135 295.663 164.135 292.584C164.135 291.356 164.351 290.214 164.78 289.15C165.208 288.087 165.847 287.124 166.693 286.256C167.538 285.388 168.675 284.706 170.096 284.209C171.518 283.711 173.151 283.463 175.001 283.463H181.189V282.642C181.189 281.24 180.83 280.235 180.111 279.632C179.392 279.029 178.272 278.727 176.75 278.727C175.524 278.727 174.218 279.018 172.839 279.606C171.634 280.113 170.656 280.367 169.916 280.367C168.807 280.367 167.908 279.939 167.232 279.082C166.529 278.225 166.18 277.267 166.18 276.219C166.18 275.304 166.471 274.521 167.057 273.865C167.644 273.214 168.32 272.712 169.103 272.357C171.634 271.225 174.245 270.664 176.93 270.664C181.464 270.664 184.905 271.616 187.251 273.516C189.598 275.415 190.771 278.267 190.771 282.066L190.766 282.05ZM181.189 290.642V289.822H176.634C175.545 289.822 174.715 290.05 174.15 290.51C173.584 290.97 173.304 291.595 173.304 292.393C173.304 293.192 173.595 293.774 174.181 294.251C174.768 294.727 175.624 294.965 176.75 294.965C177.569 294.965 178.224 294.885 178.721 294.732C179.218 294.579 179.709 294.282 180.196 293.854C180.856 293.251 181.189 292.177 181.189 290.637V290.642Z" fill="#FF6801"/>
<path d="M223.178 290.642L218.332 290.177C212.26 289.59 209.221 286.553 209.221 281.055C209.221 279.378 209.575 277.865 210.288 276.511C210.997 275.156 211.948 274.061 213.137 273.22C214.326 272.384 215.653 271.744 217.122 271.304C218.591 270.865 220.124 270.648 221.72 270.648C224.563 270.648 227.153 271.077 229.489 271.934C230.794 272.421 231.788 273.008 232.469 273.691C233.172 274.41 233.521 275.326 233.521 276.437C233.521 276.982 233.394 277.542 233.14 278.119C232.887 278.696 232.586 279.146 232.237 279.479C231.476 280.183 230.62 280.532 229.668 280.532C229.045 280.532 228.178 280.299 227.068 279.828C224.695 278.854 222.835 278.368 221.493 278.368C220.599 278.368 219.865 278.548 219.305 278.907C218.739 279.267 218.459 279.738 218.459 280.325C218.459 281.378 219.141 281.971 220.504 282.108L225.351 282.574C228.521 282.886 230.894 283.902 232.464 285.616C234.028 287.33 234.816 289.516 234.816 292.166C234.816 293.611 234.578 294.923 234.102 296.113C233.627 297.304 232.966 298.304 232.131 299.124C231.296 299.944 230.302 300.632 229.15 301.198C228.004 301.764 226.762 302.171 225.43 302.425C224.098 302.679 222.687 302.806 221.212 302.806C218.76 302.806 216.694 302.589 215.024 302.161C213.348 301.732 211.811 301.05 210.41 300.113C209.01 299.161 208.307 297.991 208.307 296.605C208.307 295.96 208.449 295.341 208.729 294.732C209.01 294.129 209.374 293.658 209.823 293.33C210.6 292.727 211.441 292.425 212.334 292.425C213.052 292.425 214.009 292.727 215.198 293.33C217.164 294.346 219.246 294.849 221.445 294.849C222.592 294.849 223.554 294.658 224.32 294.277C225.086 293.896 225.472 293.346 225.472 292.627C225.472 291.436 224.711 290.775 223.194 290.637L223.178 290.642Z" fill="#FF6801"/>
<path d="M261.637 289.822H248.118C248.118 291.187 248.625 292.357 249.635 293.33C250.644 294.304 252.029 294.79 253.784 294.79C255.538 294.79 257.071 294.325 258.514 293.388C259.74 292.568 260.849 292.161 261.843 292.161C262.757 292.161 263.619 292.558 264.427 293.346C265.236 294.134 265.638 295.066 265.638 296.14C265.638 297.642 264.644 299.081 262.657 300.468C260.4 302.028 257.398 302.806 253.662 302.806C243.695 302.806 238.711 297.446 238.711 286.727C238.711 281.68 240.006 277.738 242.595 274.902C245.185 272.066 248.583 270.648 252.785 270.648C255.607 270.648 258.085 271.283 260.215 272.548C262.345 273.818 263.957 275.474 265.051 277.516C266.14 279.563 266.742 281.854 266.864 284.383C266.943 286.293 266.515 287.717 265.579 288.653C265.231 289.002 264.808 289.272 264.311 289.457C263.814 289.642 263.392 289.748 263.043 289.78C262.694 289.812 262.224 289.822 261.642 289.822H261.637ZM248.118 283.447H257.462C257.462 282.51 257.287 281.69 256.939 280.992C256.162 279.357 254.777 278.537 252.79 278.537C250.803 278.537 249.381 279.357 248.641 280.992C248.292 281.754 248.118 282.569 248.118 283.447Z" fill="#FF6801"/>
<path d="M288.559 299.999V297.835C286.804 299.592 284.548 300.465 281.784 300.465C278.745 300.465 276.293 299.528 274.427 297.661C273.122 296.354 272.308 294.856 271.991 293.174C271.668 291.486 271.51 288.952 271.51 285.56C271.51 282.169 271.668 279.629 271.991 277.947C272.313 276.259 273.127 274.767 274.427 273.46C276.298 271.587 278.766 270.656 281.842 270.656C283.38 270.656 284.68 270.889 285.742 271.36C286.804 271.825 287.84 272.566 288.855 273.582C289.827 271.709 291.328 270.778 293.352 270.778C294.304 270.778 295.16 270.995 295.91 271.423C296.661 271.852 297.21 272.418 297.559 273.122C297.813 273.63 297.971 274.143 298.04 274.672C298.109 275.196 298.141 276.063 298.141 277.275V300.195C298.141 303.936 296.84 307.004 294.24 309.406C291.64 311.803 288.21 313.004 283.945 313.004C280.637 313.004 277.852 312.38 275.595 311.131C273.571 310.02 272.556 308.597 272.556 306.861C272.556 305.75 272.947 304.809 273.724 304.041C274.501 303.269 275.357 302.888 276.293 302.888C277.228 302.888 278.354 303.179 279.564 303.766C281.181 304.544 282.487 304.935 283.475 304.935C285.229 304.935 286.514 304.47 287.328 303.533C288.147 302.597 288.554 301.428 288.554 300.026L288.559 299.999ZM283.084 291.449C283.559 291.693 284.141 291.814 284.822 291.814C285.504 291.814 286.08 291.693 286.561 291.449C287.037 291.206 287.402 290.91 287.655 290.555C287.909 290.206 288.11 289.724 288.252 289.121C288.4 288.518 288.485 287.963 288.517 287.455C288.548 286.947 288.559 286.317 288.559 285.555C288.559 284.793 288.543 284.164 288.517 283.656C288.485 283.148 288.4 282.592 288.252 281.989C288.104 281.386 287.904 280.91 287.655 280.555C287.402 280.206 287.037 279.91 286.561 279.661C286.086 279.418 285.504 279.296 284.822 279.296C284.141 279.296 283.565 279.418 283.084 279.661C282.608 279.905 282.243 280.201 281.99 280.555C281.736 280.91 281.535 281.386 281.393 281.989C281.245 282.592 281.16 283.148 281.128 283.656C281.097 284.164 281.086 284.799 281.086 285.555C281.086 286.312 281.102 286.947 281.128 287.455C281.16 287.963 281.245 288.518 281.393 289.121C281.541 289.724 281.736 290.201 281.99 290.555C282.243 290.91 282.608 291.201 283.084 291.449Z" fill="#FF6801"/>
<path d="M322.37 289.826V277.255C322.37 276.049 322.402 275.181 322.471 274.652C322.54 274.128 322.698 273.61 322.952 273.102C323.301 272.398 323.85 271.837 324.601 271.403C325.351 270.975 326.202 270.758 327.159 270.758C328.115 270.758 328.966 270.975 329.711 271.403C330.462 271.832 331.011 272.398 331.36 273.102C331.614 273.61 331.772 274.123 331.841 274.652C331.91 275.181 331.941 276.043 331.941 277.255V296.196C331.941 297.402 331.91 298.27 331.841 298.799C331.772 299.328 331.614 299.841 331.36 300.349C331.011 301.053 330.462 301.614 329.711 302.042C328.961 302.471 328.11 302.688 327.159 302.688C325.134 302.688 323.633 301.751 322.661 299.884C321.726 300.82 320.589 301.54 319.258 302.048C317.926 302.556 316.605 302.81 315.299 302.81C312.377 302.81 310.025 301.915 308.233 300.122C306.986 298.873 306.151 297.54 305.723 296.117C305.295 294.694 305.078 293.027 305.078 291.117V277.26C305.078 276.054 305.11 275.186 305.179 274.657C305.247 274.128 305.406 273.615 305.659 273.107C306.008 272.403 306.558 271.842 307.308 271.409C308.059 270.98 308.91 270.763 309.861 270.763C310.812 270.763 311.668 270.98 312.414 271.409C313.164 271.837 313.714 272.403 314.062 273.107C314.316 273.615 314.475 274.128 314.543 274.657C314.612 275.186 314.644 276.049 314.644 277.26V289.831C314.644 290.688 314.781 291.418 315.051 292.022C315.32 292.625 315.674 293.075 316.102 293.366C316.531 293.656 316.937 293.863 317.329 293.979C317.72 294.096 318.105 294.154 318.497 294.154C318.888 294.154 319.273 294.096 319.665 293.979C320.056 293.863 320.463 293.656 320.891 293.366C321.319 293.075 321.667 292.625 321.942 292.022C322.212 291.418 322.349 290.688 322.349 289.831L322.37 289.826Z" fill="#FF6801"/>
<path d="M339.191 296.201V277.259C339.191 276.053 339.223 275.185 339.292 274.656C339.361 274.133 339.519 273.614 339.773 273.106C340.122 272.402 340.671 271.842 341.422 271.408C342.172 270.979 343.023 270.762 343.98 270.762C346.004 270.762 347.505 271.699 348.477 273.566C349.275 272.768 350.295 272.08 351.532 271.503C352.768 270.926 354.037 270.641 355.342 270.641C357.461 270.641 359.227 271.127 360.627 272.101C362.07 273.117 362.789 274.36 362.789 275.842C362.789 277.244 362.302 278.434 361.33 279.408C360.474 280.265 359.401 280.693 358.117 280.693C357.239 280.693 356.267 280.439 355.194 279.931C354.28 279.503 353.461 279.286 352.742 279.286C352.335 279.286 351.923 279.349 351.516 279.476C351.109 279.603 350.686 279.815 350.247 280.106C349.809 280.397 349.455 280.847 349.18 281.45C348.905 282.053 348.773 282.778 348.773 283.614V296.185C348.773 297.391 348.741 298.259 348.673 298.788C348.604 299.317 348.445 299.83 348.192 300.338C347.843 301.042 347.293 301.603 346.543 302.031C345.792 302.46 344.941 302.677 343.99 302.677C343.039 302.677 342.183 302.46 341.432 302.031C340.682 301.603 340.132 301.036 339.783 300.338C339.53 299.83 339.371 299.317 339.302 298.788C339.234 298.264 339.202 297.396 339.202 296.185L339.191 296.201Z" fill="#FF6801"/>
<path d="M390.996 282.05V296.198C390.996 297.404 390.959 298.272 390.896 298.801C390.827 299.324 390.668 299.843 390.415 300.351C390.066 301.055 389.516 301.615 388.766 302.044C388.015 302.473 387.164 302.689 386.208 302.689C384.184 302.689 382.683 301.753 381.71 299.885C380.564 300.959 379.491 301.705 378.497 302.123C377.504 302.541 376.219 302.753 374.644 302.753C371.489 302.753 368.979 301.816 367.108 299.949C365.28 298.118 364.365 295.663 364.365 292.584C364.365 291.356 364.582 290.214 365.01 289.15C365.438 288.087 366.078 287.124 366.923 286.256C367.769 285.388 368.905 284.706 370.327 284.209C371.748 283.711 373.381 283.463 375.231 283.463H381.42V282.642C381.42 281.24 381.06 280.235 380.342 279.632C379.623 279.029 378.502 278.727 376.98 278.727C375.754 278.727 374.449 279.018 373.069 279.606C371.865 280.113 370.887 280.367 370.147 280.367C369.037 280.367 368.139 279.939 367.462 279.082C366.759 278.225 366.41 277.267 366.41 276.219C366.41 275.304 366.701 274.521 367.288 273.865C367.874 273.214 368.551 272.712 369.333 272.357C371.865 271.225 374.475 270.664 377.16 270.664C381.694 270.664 385.135 271.616 387.481 273.516C389.828 275.415 391.001 278.267 391.001 282.066L390.996 282.05ZM381.42 290.642V289.822H376.864C375.775 289.822 374.946 290.05 374.38 290.51C373.815 290.97 373.535 291.595 373.535 292.393C373.535 293.192 373.825 293.774 374.412 294.251C374.999 294.727 375.855 294.965 376.98 294.965C377.8 294.965 378.455 294.885 378.952 294.732C379.448 294.579 379.94 294.282 380.426 293.854C381.087 293.251 381.42 292.177 381.42 290.637V290.642Z" fill="#FF6801"/>
</svg>
