<svg width="740" height="592" viewBox="0 0 740 592" fill="none" xmlns="http://www.w3.org/2000/svg">
<path d="M523 380.056C523 381.356 521.27 381.356 521.7 383.076C509.17 383.076 496.65 384.806 484.55 383.506C478.93 383.076 473.32 382.206 468.14 382.206C466.84 377.886 465.12 373.996 462.96 370.546C457.78 355.426 450.87 342.466 445.25 326.916C442.23 320.006 438.77 313.956 437.04 305.746L428.4 283.716C421.92 266.006 412.85 249.156 404.64 230.586C403.34 227.126 401.18 224.106 400.75 220.216C399.45 219.786 399.02 217.196 398.59 215.896C398.16 246.996 399.02 275.076 399.45 304.876C399.45 310.056 399.45 315.246 399.88 320.426C399.88 326.046 400.74 331.226 400.74 336.406C400.74 340.296 399.88 344.176 399.88 347.636C398.58 358.436 398.58 369.666 398.58 380.466C396.85 380.896 395.99 380.036 395.56 381.766C380.44 386.946 363.16 384.786 346.32 381.766C345.02 378.746 344.59 371.826 346.32 369.676C345.02 366.656 345.46 362.336 345.46 359.306C345.89 353.686 346.32 347.646 345.89 342.026C345.46 336.406 344.59 331.226 344.59 326.476C344.16 319.996 345.02 314.386 345.45 307.906C345.88 297.106 344.59 288.036 345.02 276.376V243.116C345.02 237.936 345.88 232.746 345.45 227.996C345.02 214.176 346.31 199.486 346.31 184.366C345.88 151.536 344.58 118.706 346.31 81.9962C360.13 79.8362 378.27 78.1062 393.39 80.2662C393.82 81.5662 394.25 80.6962 395.55 81.1262C400.3 88.4662 402.89 97.5362 405.92 106.176C414.13 118.276 417.58 133.816 424.06 147.216C429.24 158.876 434.43 170.106 439.18 181.776C448.25 205.966 457.75 228.856 469.42 250.886L471.15 223.676C471.58 213.746 471.15 205.106 470.72 195.166C470.72 176.156 471.15 156.726 470.72 137.286V125.626C470.72 108.776 470.29 96.2562 470.72 80.7062C488.43 77.6862 506.14 77.2461 522.12 82.0061C522.55 91.9461 522.55 101.016 522.55 110.946C522.55 120.876 522.98 130.386 522.98 140.316C522.55 150.256 521.68 160.186 521.68 170.126C522.98 202.956 519.95 237.946 521.25 267.316C521.68 274.656 521.25 282.436 521.25 290.646C521.68 305.766 521.68 321.316 522.98 336.436C523.41 351.556 521.68 365.806 522.98 380.066L523 380.056Z" fill="#27C5CD"/>
<path d="M739.83 234.056C739.83 251.336 738.97 264.726 739.4 278.976C739.83 285.456 739.4 292.366 738.97 299.276C738.97 302.736 737.67 306.186 739.83 308.346C739.4 322.596 734.65 336.426 729.03 348.086C722.55 360.186 713.48 367.956 703.11 376.166L689.72 380.486C686.7 380.916 683.24 380.486 680.22 380.916C678.92 380.916 677.2 381.346 675.9 381.346L660.35 382.206L621.04 384.366C610.67 384.366 601.17 384.366 592.1 383.936C589.08 383.506 586.48 384.366 583.46 383.936C581.73 382.636 582.6 381.776 579.57 382.206C578.27 373.566 577.84 366.226 577.41 358.016C576.98 356.286 577.84 354.996 577.84 353.266C577.84 349.806 577.41 346.356 577.41 342.896C577.41 327.346 577.84 313.086 578.27 297.536C578.27 291.916 577.84 285.876 577.84 279.396C577.84 272.916 577.41 266.866 577.41 260.386C577.41 255.636 579.14 250.886 577.84 246.136C577.84 244.836 577.41 243.976 577.41 242.676C576.98 240.516 577.41 238.356 577.41 235.336C577.41 228.426 576.98 218.486 577.41 211.146C577.41 199.486 576.55 186.526 576.98 174.866C577.41 161.476 577.41 148.086 576.12 134.696V126.056C575.69 113.526 577.85 96.6864 576.55 82.8564C576.98 81.5564 579.57 81.5564 579.57 79.8364C601.6 78.5364 628.38 78.9764 653 80.6964C658.18 80.6964 663.37 80.6964 668.12 81.1264C674.6 82.4264 681.08 83.7164 687.99 83.2864C692.74 86.3064 698.79 88.0364 703.54 91.0664C704.84 91.4964 705.27 92.7964 706.56 93.2264C710.02 95.3864 713.04 95.8164 716.06 98.8464C720.81 102.306 722.54 105.326 726 110.506L730.75 118.286C732.48 123.036 733.34 128.216 735.07 133.406C736.37 138.586 738.09 143.776 738.53 148.956C739.83 160.616 738.96 170.986 738.53 183.076C738.53 194.736 739.39 206.406 739.83 218.066V234.046V234.056ZM686.7 312.236C688.43 300.576 687.56 287.616 686.27 276.816C687.57 269.476 686.27 262.996 685.84 254.786C685.84 250.036 686.7 246.146 686.27 241.396C685.84 236.646 685.84 232.756 685.84 228.006C687.14 214.616 685.41 201.656 685.84 188.266C685.84 172.286 689.73 151.546 681.52 138.596C679.36 135.576 676.34 133.416 671.59 131.686L667.7 129.956C657.33 126.936 645.24 131.256 633.58 129.956C632.28 146.806 633.58 165.376 633.15 178.766C632.72 184.386 633.15 189.566 633.15 195.176C633.15 204.246 632.29 213.746 632.29 223.686C632.29 233.626 632.72 243.986 632.72 253.056C632.72 265.586 634.02 278.106 633.58 291.496C633.15 304.886 634.44 319.136 633.15 333.396C640.06 334.696 647.84 333.396 653.02 334.696C662.09 334.266 672.46 331.676 678.94 328.216C680.953 327.063 682.393 325.48 683.26 323.466L686.72 312.236H686.7Z" fill="#27C5CD"/>
<path d="M255.48 175.907C241.05 175.907 231.15 177.587 231.15 177.587C231.15 177.587 231.1 225.527 231.1 264.127C231.1 302.727 221.53 329.917 187.53 329.917C169.96 329.917 156.24 323.777 142.78 305.147C137.06 296.917 131.86 286.227 129.49 280.467L125.41 269.367C118.54 255.197 112.53 241.027 106.09 225.997C102.65 219.127 100.51 210.967 95.3503 205.387C100.07 198.947 102.22 192.937 106.94 186.487C108.23 183.477 110.38 181.767 112.09 179.617C113.81 176.607 115.1 174.897 116.38 171.887C118.1 168.877 120.25 167.167 121.96 165.017C122.39 163.727 122.82 162.437 123.68 161.577C125.83 158.137 128.83 155.567 130.12 151.697C138.28 142.677 143.86 131.087 150.73 121.207L154.17 117.337L157.18 111.327L161.05 105.747C164.06 101.027 164.92 97.1573 167.92 93.7273C167.92 90.2873 169.64 88.5773 170.07 85.5673C168.78 84.2773 168.78 83.4173 168.35 82.1273C156.76 82.1273 145.16 78.6873 133.57 79.9773C127.13 78.6873 120.26 80.4073 113.82 80.4073C113.39 82.1273 112.1 82.9873 110.81 84.6973C109.52 85.9873 110.38 87.2773 109.09 88.5573C105.23 95.8573 100.07 102.727 94.9203 109.597C92.7703 113.457 91.0603 117.327 88.9103 120.757C83.7603 128.057 79.8903 134.927 75.1703 142.227C68.7303 153.817 62.2903 164.557 54.1303 174.437C53.7003 162.417 54.9903 143.087 54.5603 127.627L53.7003 82.5373C48.9803 80.8173 44.2503 80.8173 39.5303 80.3873C38.2403 80.3873 36.5203 79.5273 35.2403 79.5273C31.3803 78.2373 24.9303 78.2373 20.2103 78.6673C13.7703 79.9573 6.04027 79.9573 0.460266 83.8173C0.460266 99.7073 0.460274 113.877 0.890274 130.627C0.890274 134.487 0.460266 139.647 0.460266 144.797C0.890266 160.257 0.0302661 175.717 0.460266 191.177C0.460266 194.187 0.460274 197.187 0.890274 200.197C0.890274 206.637 0.460273 213.077 0.0302734 219.517C0.0302734 222.527 0.890274 224.237 0.890274 226.387C0.890274 233.687 1.32027 241.417 0.890274 248.717C0.890274 268.037 0.460274 286.077 0.890274 306.257C2.18027 332.027 -0.829734 356.497 0.460266 382.697C2.18027 383.987 3.47027 381.837 5.18027 381.407C8.19027 380.977 11.1903 382.697 14.6303 382.697C15.9203 382.697 15.4903 382.267 16.7803 382.267C18.0703 382.267 18.5003 382.697 19.7903 382.697C24.9403 383.127 30.5303 382.697 35.6803 382.267C40.8303 382.267 45.9903 383.127 51.5703 383.127C52.0003 381.837 53.2903 382.697 54.5803 381.407C58.0203 348.767 52.8603 320.857 54.1503 289.937C54.1503 283.497 54.1503 277.917 54.5803 271.467L55.0103 271.037C55.4403 269.317 57.5903 267.177 58.8703 265.457L62.7303 259.447L74.7403 284.267L90.4403 318.727C106.14 353.187 129.07 376.807 162.95 382.917C196.83 389.027 230.54 380.047 253.63 359.707C276.72 339.357 278.5 295.237 278.5 295.237V183.387C278.5 176.367 269.93 175.877 255.5 175.877L255.48 175.907Z" fill="#27C5CD"/>
<path d="M252.511 110.856L206.471 194.276C205.441 196.136 207.201 198.286 209.331 197.766L254.751 186.796L300.171 197.766C302.301 198.276 304.061 196.136 303.031 194.276L256.991 110.856C256.041 109.126 253.461 109.126 252.501 110.856H252.511Z" fill="#27C5CD"/>
<path d="M198.97 141.516C197.98 141.516 197.05 140.936 196.64 139.966C196.1 138.686 196.71 137.206 197.99 136.666L219.71 127.556C220.99 127.016 222.47 127.626 223.01 128.906C223.55 130.186 222.94 131.666 221.66 132.206L199.94 141.316C199.62 141.446 199.29 141.516 198.97 141.516Z" fill="#27C5CD"/>
<path d="M220.681 108.537C220.371 108.537 220.051 108.477 219.741 108.357L198.031 99.5966C196.741 99.0766 196.111 97.6066 196.631 96.3166C197.151 95.0266 198.621 94.4066 199.911 94.9166L221.621 103.677C222.911 104.197 223.541 105.667 223.021 106.957C222.621 107.937 221.681 108.537 220.681 108.537Z" fill="#27C5CD"/>
<path d="M240.361 93.0093C239.351 93.0093 238.401 92.3993 238.011 91.4093L229.421 69.4493C228.911 68.1493 229.551 66.6893 230.851 66.1793C232.151 65.6693 233.611 66.3093 234.121 67.6093L242.711 89.5693C243.221 90.8693 242.58 92.3293 241.28 92.8393C240.98 92.9593 240.671 93.0093 240.361 93.0093Z" fill="#27C5CD"/>
<path d="M269.56 93.2274C269.23 93.2274 268.88 93.1574 268.56 93.0174C267.28 92.4674 266.7 90.9774 267.25 89.6974L276.87 67.5174C277.42 66.2374 278.91 65.6574 280.19 66.2074C281.47 66.7574 282.05 68.2475 281.5 69.5275L271.88 91.7074C271.47 92.6574 270.54 93.2274 269.57 93.2274H269.56Z" fill="#27C5CD"/>
<path d="M290.29 110.169C289.28 110.169 288.32 109.549 287.93 108.549C287.43 107.249 288.08 105.789 289.38 105.289L309.75 97.4694C311.05 96.9694 312.51 97.6193 313.01 98.9193C313.51 100.219 312.86 101.679 311.56 102.179L291.19 109.999C290.89 110.109 290.59 110.169 290.29 110.169Z" fill="#27C5CD"/>
<path d="M310.66 143.136C310.31 143.136 309.95 143.066 309.61 142.906L288.86 133.336C287.59 132.756 287.04 131.256 287.63 129.986C288.21 128.716 289.71 128.166 290.98 128.756L311.73 138.326C313 138.906 313.55 140.406 312.96 141.676C312.54 142.596 311.62 143.146 310.67 143.146L310.66 143.136Z" fill="#27C5CD"/>
<path d="M21.7603 493.477V444.627H13.6403C11.5403 444.627 10.0103 444.567 9.05028 444.437C8.09028 444.307 7.15027 444.027 6.23027 443.577C4.98027 442.987 3.96028 441.997 3.19028 440.617C2.42028 439.237 2.03027 437.697 2.03027 436.007C2.03027 434.317 2.42028 432.777 3.19028 431.397C3.96028 430.017 4.98027 429.027 6.23027 428.437C7.15027 427.997 8.09028 427.707 9.05028 427.577C10.0103 427.447 11.5403 427.387 13.6403 427.387H49.3303C51.4303 427.387 52.9603 427.457 53.9203 427.577C54.8803 427.707 55.8203 427.987 56.7403 428.437C57.9903 429.027 59.0103 430.007 59.7803 431.397C60.5503 432.777 60.9403 434.317 60.9403 436.007C60.9403 437.697 60.5503 439.237 59.7803 440.617C59.0103 441.997 57.9903 442.987 56.7403 443.577C55.8203 444.017 54.8803 444.307 53.9203 444.437C52.9603 444.567 51.4303 444.627 49.3303 444.627H41.2103V493.477C41.2103 495.867 41.1503 497.577 41.0203 498.587C40.8903 499.597 40.5503 500.657 40.0003 501.767C39.3003 503.167 38.1803 504.307 36.6603 505.197C35.1303 506.077 33.4103 506.527 31.4903 506.527C29.5703 506.527 27.8503 506.087 26.3203 505.197C24.7903 504.317 23.6803 503.167 22.9803 501.767C22.4303 500.657 22.0903 499.607 21.9603 498.587C21.8303 497.577 21.7703 495.867 21.7703 493.477H21.7603Z" fill="#FF6801"/>
<path d="M98.1702 482.204V458.444C98.1702 456.164 98.2302 454.524 98.3602 453.524C98.4902 452.534 98.7902 451.554 99.2702 450.594C99.9302 449.264 100.97 448.204 102.39 447.384C103.81 446.574 105.42 446.164 107.23 446.164C109.04 446.164 110.65 446.574 112.06 447.384C113.48 448.194 114.52 449.264 115.18 450.594C115.66 451.554 115.96 452.524 116.09 453.524C116.22 454.524 116.28 456.154 116.28 458.444V494.244C116.28 496.524 116.22 498.164 116.09 499.164C115.96 500.164 115.66 501.134 115.18 502.094C114.52 503.424 113.48 504.484 112.06 505.294C110.64 506.104 109.03 506.514 107.23 506.514C103.4 506.514 100.56 504.744 98.7202 501.214C96.9502 502.984 94.8002 504.344 92.2802 505.304C89.7602 506.264 87.2602 506.744 84.7902 506.744C79.2602 506.744 74.8102 505.054 71.4202 501.664C69.0602 499.304 67.4802 496.784 66.6702 494.094C65.8602 491.404 65.4502 488.254 65.4502 484.644V458.454C65.4502 456.174 65.5102 454.534 65.6402 453.534C65.7702 452.534 66.0702 451.564 66.5502 450.604C67.2102 449.274 68.2502 448.214 69.6702 447.394C71.0902 446.584 72.7002 446.174 74.5002 446.174C76.3002 446.174 77.9202 446.584 79.3302 447.394C80.7502 448.204 81.7902 449.274 82.4502 450.604C82.9302 451.564 83.2302 452.534 83.3602 453.534C83.4902 454.534 83.5502 456.164 83.5502 458.454V482.214C83.5502 483.834 83.8102 485.214 84.3202 486.354C84.8302 487.494 85.5002 488.344 86.3102 488.894C87.1202 489.444 87.8902 489.834 88.6302 490.054C89.3702 490.274 90.1002 490.384 90.8402 490.384C91.5802 490.384 92.3102 490.274 93.0502 490.054C93.7902 489.834 94.5602 489.444 95.3702 488.894C96.1802 488.344 96.8402 487.494 97.3602 486.354C97.8702 485.214 98.1302 483.834 98.1302 482.214L98.1702 482.204Z" fill="#FF6801"/>
<path d="M200.83 467.504V494.244C200.83 496.524 200.76 498.164 200.64 499.164C200.51 500.154 200.21 501.134 199.73 502.094C199.07 503.424 198.03 504.484 196.61 505.294C195.19 506.104 193.58 506.514 191.77 506.514C187.94 506.514 185.1 504.744 183.26 501.214C181.09 503.244 179.06 504.654 177.18 505.444C175.3 506.234 172.87 506.634 169.89 506.634C163.92 506.634 159.17 504.864 155.63 501.334C152.09 497.804 150.44 493.234 150.44 487.414C150.44 485.094 150.85 482.934 151.66 480.924C152.47 478.914 153.68 477.094 155.28 475.454C156.88 473.814 159.03 472.524 161.72 471.584C164.41 470.644 167.5 470.174 171 470.174H182.71V468.624C182.71 465.974 182.03 464.074 180.67 462.934C179.31 461.794 177.19 461.224 174.31 461.224C171.99 461.224 169.52 461.774 166.91 462.884C164.63 463.844 162.78 464.324 161.38 464.324C159.28 464.324 157.58 463.514 156.3 461.894C154.97 460.274 154.31 458.464 154.31 456.484C154.31 454.754 154.86 453.274 155.97 452.034C157.08 450.804 158.36 449.854 159.84 449.184C164.63 447.044 169.57 445.984 174.65 445.984C183.23 445.984 189.74 447.784 194.18 451.374C198.62 454.964 200.84 460.354 200.84 467.534L200.83 467.504ZM182.71 483.744V482.194H174.09C172.03 482.194 170.46 482.624 169.39 483.494C168.32 484.364 167.79 485.544 167.79 487.054C167.79 488.564 168.34 489.664 169.45 490.564C170.56 491.464 172.18 491.914 174.31 491.914C175.86 491.914 177.1 491.764 178.04 491.474C178.98 491.184 179.91 490.624 180.83 489.814C182.08 488.674 182.71 486.644 182.71 483.734V483.744Z" fill="#FF6801"/>
<path d="M246.14 482.204V458.444C246.14 456.164 246.2 454.524 246.33 453.524C246.46 452.534 246.76 451.554 247.24 450.594C247.9 449.264 248.94 448.204 250.36 447.384C251.78 446.574 253.39 446.164 255.2 446.164C257.01 446.164 258.62 446.574 260.03 447.384C261.45 448.194 262.49 449.264 263.15 450.594C263.63 451.554 263.93 452.524 264.06 453.524C264.19 454.524 264.25 456.154 264.25 458.444V494.244C264.25 496.524 264.19 498.164 264.06 499.164C263.93 500.164 263.63 501.134 263.15 502.094C262.49 503.424 261.45 504.484 260.03 505.294C258.61 506.104 257 506.514 255.2 506.514C251.37 506.514 248.53 504.744 246.69 501.214C244.92 502.984 242.77 504.344 240.25 505.304C237.73 506.264 235.23 506.744 232.76 506.744C227.23 506.744 222.78 505.054 219.39 501.664C217.03 499.304 215.45 496.784 214.64 494.094C213.83 491.404 213.42 488.254 213.42 484.644V458.454C213.42 456.174 213.48 454.534 213.61 453.534C213.74 452.534 214.04 451.564 214.52 450.604C215.18 449.274 216.22 448.214 217.64 447.394C219.06 446.584 220.67 446.174 222.47 446.174C224.27 446.174 225.89 446.584 227.3 447.394C228.72 448.204 229.76 449.274 230.42 450.604C230.9 451.564 231.2 452.534 231.33 453.534C231.46 454.534 231.52 456.164 231.52 458.454V482.214C231.52 483.834 231.78 485.214 232.29 486.354C232.8 487.494 233.47 488.344 234.28 488.894C235.09 489.444 235.86 489.834 236.6 490.054C237.34 490.274 238.07 490.384 238.81 490.384C239.55 490.384 240.28 490.274 241.02 490.054C241.76 489.834 242.53 489.444 243.34 488.894C244.15 488.344 244.81 487.494 245.33 486.354C245.84 485.214 246.1 483.834 246.1 482.214L246.14 482.204Z" fill="#FF6801"/>
<path d="M295.98 506.076H295.65C292.59 506.076 289.86 505.556 287.44 504.496C285.03 503.446 283.11 502.056 281.69 500.326C280.27 498.596 279.2 496.726 278.48 494.716C277.76 492.706 277.4 490.636 277.4 488.496V439.206C277.4 436.926 277.46 435.286 277.59 434.286C277.72 433.296 278.02 432.316 278.5 431.356C279.16 430.026 280.2 428.966 281.62 428.146C283.04 427.336 284.65 426.926 286.45 426.926C288.25 426.926 289.87 427.336 291.28 428.146C292.7 428.956 293.74 430.026 294.4 431.356C294.88 432.316 295.18 433.286 295.31 434.286C295.44 435.286 295.5 436.916 295.5 439.206V487.166C295.5 489.556 296.62 490.816 298.87 490.926C300.71 491.036 302.2 491.366 303.34 491.916C305.77 493.136 306.99 495.306 306.99 498.436C306.99 501.566 305.74 503.596 303.23 504.846C301.61 505.656 299.18 506.066 295.94 506.066L295.98 506.076Z" fill="#FF6801"/>
<path d="M360.96 467.504V494.244C360.96 496.524 360.89 498.164 360.77 499.164C360.64 500.154 360.34 501.134 359.86 502.094C359.2 503.424 358.16 504.484 356.74 505.294C355.32 506.104 353.71 506.514 351.9 506.514C348.07 506.514 345.23 504.744 343.39 501.214C341.22 503.244 339.19 504.654 337.31 505.444C335.43 506.234 333 506.634 330.02 506.634C324.05 506.634 319.3 504.864 315.76 501.334C312.22 497.804 310.57 493.234 310.57 487.414C310.57 485.094 310.98 482.934 311.79 480.924C312.6 478.914 313.81 477.094 315.41 475.454C317.01 473.814 319.16 472.524 321.85 471.584C324.54 470.644 327.63 470.174 331.13 470.174H342.84V468.624C342.84 465.974 342.16 464.074 340.8 462.934C339.44 461.794 337.32 461.224 334.44 461.224C332.12 461.224 329.65 461.774 327.04 462.884C324.76 463.844 322.91 464.324 321.51 464.324C319.41 464.324 317.71 463.514 316.43 461.894C315.1 460.274 314.44 458.464 314.44 456.484C314.44 454.754 314.99 453.274 316.1 452.034C317.21 450.804 318.49 449.854 319.97 449.184C324.76 447.044 329.7 445.984 334.78 445.984C343.36 445.984 349.87 447.784 354.31 451.374C358.75 454.964 360.97 460.354 360.97 467.534L360.96 467.504ZM342.84 483.744V482.194H334.22C332.16 482.194 330.59 482.624 329.52 483.494C328.45 484.364 327.92 485.544 327.92 487.054C327.92 488.564 328.47 489.664 329.58 490.564C330.69 491.464 332.31 491.914 334.44 491.914C335.99 491.914 337.23 491.764 338.17 491.474C339.11 491.184 340.04 490.624 340.96 489.814C342.21 488.674 342.84 486.644 342.84 483.734V483.744Z" fill="#FF6801"/>
<path d="M422.29 483.755L413.12 482.875C401.63 481.765 395.88 476.025 395.88 465.635C395.88 462.465 396.55 459.605 397.9 457.045C399.24 454.485 401.04 452.415 403.29 450.825C405.54 449.245 408.05 448.035 410.83 447.205C413.61 446.375 416.51 445.965 419.53 445.965C424.91 445.965 429.81 446.775 434.23 448.395C436.7 449.315 438.58 450.425 439.87 451.715C441.2 453.075 441.86 454.805 441.86 456.905C441.86 457.935 441.62 458.995 441.14 460.085C440.66 461.175 440.09 462.025 439.43 462.655C437.99 463.985 436.37 464.645 434.57 464.645C433.39 464.645 431.75 464.205 429.65 463.315C425.16 461.475 421.64 460.555 419.1 460.555C417.41 460.555 416.02 460.895 414.96 461.575C413.89 462.255 413.36 463.145 413.36 464.255C413.36 466.245 414.65 467.365 417.23 467.625L426.4 468.505C432.4 469.095 436.89 471.015 439.86 474.255C442.82 477.495 444.31 481.625 444.31 486.635C444.31 489.365 443.86 491.845 442.96 494.095C442.06 496.345 440.81 498.235 439.23 499.785C437.65 501.335 435.77 502.635 433.59 503.705C431.42 504.775 429.07 505.545 426.55 506.025C424.03 506.505 421.36 506.745 418.57 506.745C413.93 506.745 410.02 506.335 406.86 505.525C403.69 504.715 400.78 503.425 398.13 501.655C395.48 499.855 394.15 497.645 394.15 495.025C394.15 493.805 394.42 492.635 394.95 491.485C395.48 490.345 396.17 489.455 397.02 488.835C398.49 487.695 400.08 487.125 401.77 487.125C403.13 487.125 404.94 487.695 407.19 488.835C410.91 490.755 414.85 491.705 419.01 491.705C421.18 491.705 423 491.345 424.45 490.625C425.9 489.905 426.63 488.865 426.63 487.505C426.63 485.255 425.19 484.005 422.32 483.745L422.29 483.755Z" fill="#FF6801"/>
<path d="M495.061 482.205H469.481C469.481 484.785 470.441 486.995 472.351 488.835C474.261 490.675 476.881 491.595 480.201 491.595C483.521 491.595 486.421 490.715 489.151 488.945C491.471 487.395 493.571 486.625 495.451 486.625C497.181 486.625 498.811 487.375 500.341 488.865C501.871 490.355 502.631 492.115 502.631 494.145C502.631 496.985 500.751 499.705 496.991 502.325C492.721 505.275 487.041 506.745 479.971 506.745C461.111 506.745 451.681 496.615 451.681 476.355C451.681 466.815 454.131 459.365 459.031 454.005C463.931 448.645 470.361 445.965 478.311 445.965C483.651 445.965 488.341 447.165 492.371 449.555C496.401 451.955 499.451 455.085 501.521 458.945C503.581 462.815 504.721 467.145 504.951 471.925C505.101 475.535 504.291 478.225 502.521 479.995C501.861 480.655 501.061 481.165 500.121 481.515C499.181 481.865 498.381 482.065 497.721 482.125C497.061 482.185 496.171 482.205 495.071 482.205H495.061ZM469.481 470.155H487.161C487.161 468.385 486.831 466.835 486.171 465.515C484.701 462.425 482.081 460.875 478.321 460.875C474.561 460.875 471.871 462.425 470.471 465.515C469.811 466.955 469.481 468.495 469.481 470.155Z" fill="#FF6801"/>
<path d="M546 501.437V497.347C542.68 500.667 538.41 502.317 533.18 502.317C527.43 502.317 522.79 500.547 519.26 497.017C516.79 494.547 515.25 491.717 514.65 488.537C514.04 485.347 513.74 480.557 513.74 474.147C513.74 467.737 514.04 462.937 514.65 459.757C515.26 456.567 516.8 453.747 519.26 451.277C522.8 447.737 527.47 445.977 533.29 445.977C536.2 445.977 538.66 446.417 540.67 447.307C542.68 448.187 544.64 449.587 546.56 451.507C548.4 447.967 551.24 446.207 555.07 446.207C556.87 446.207 558.49 446.617 559.91 447.427C561.33 448.237 562.37 449.307 563.03 450.637C563.51 451.597 563.81 452.567 563.94 453.567C564.07 454.557 564.13 456.197 564.13 458.487V501.807C564.13 508.877 561.67 514.677 556.75 519.217C551.83 523.747 545.34 526.017 537.27 526.017C531.01 526.017 525.74 524.837 521.47 522.477C517.64 520.377 515.72 517.687 515.72 514.407C515.72 512.307 516.46 510.527 517.93 509.077C519.4 507.617 521.02 506.897 522.79 506.897C524.56 506.897 526.69 507.447 528.98 508.557C532.04 510.027 534.51 510.767 536.38 510.767C539.7 510.767 542.13 509.887 543.67 508.117C545.22 506.347 545.99 504.137 545.99 501.487L546 501.437ZM535.64 485.277C536.54 485.737 537.64 485.967 538.93 485.967C540.22 485.967 541.31 485.737 542.22 485.277C543.12 484.817 543.81 484.257 544.29 483.587C544.77 482.927 545.15 482.017 545.42 480.877C545.7 479.737 545.86 478.687 545.92 477.727C545.98 476.767 546 475.577 546 474.137C546 472.697 545.97 471.507 545.92 470.547C545.86 469.587 545.7 468.537 545.42 467.397C545.14 466.257 544.76 465.357 544.29 464.687C543.81 464.027 543.12 463.467 542.22 462.997C541.32 462.537 540.22 462.307 538.93 462.307C537.64 462.307 536.55 462.537 535.64 462.997C534.74 463.457 534.05 464.017 533.57 464.687C533.09 465.357 532.71 466.257 532.44 467.397C532.16 468.537 532 469.587 531.94 470.547C531.88 471.507 531.86 472.707 531.86 474.137C531.86 475.567 531.89 476.767 531.94 477.727C532 478.687 532.16 479.737 532.44 480.877C532.72 482.017 533.09 482.917 533.57 483.587C534.05 484.257 534.74 484.807 535.64 485.277Z" fill="#FF6801"/>
<path d="M609.981 482.204V458.444C609.981 456.164 610.041 454.524 610.171 453.524C610.301 452.534 610.601 451.554 611.081 450.594C611.741 449.264 612.781 448.204 614.201 447.384C615.621 446.574 617.231 446.164 619.041 446.164C620.851 446.164 622.461 446.574 623.871 447.384C625.291 448.194 626.331 449.264 626.991 450.594C627.471 451.554 627.771 452.524 627.901 453.524C628.031 454.524 628.091 456.154 628.091 458.444V494.244C628.091 496.524 628.031 498.164 627.901 499.164C627.771 500.164 627.471 501.134 626.991 502.094C626.331 503.424 625.291 504.484 623.871 505.294C622.451 506.104 620.841 506.514 619.041 506.514C615.211 506.514 612.371 504.744 610.531 501.214C608.761 502.984 606.611 504.344 604.091 505.304C601.571 506.264 599.071 506.744 596.601 506.744C591.071 506.744 586.621 505.054 583.231 501.664C580.871 499.304 579.291 496.784 578.481 494.094C577.671 491.404 577.261 488.254 577.261 484.644V458.454C577.261 456.174 577.321 454.534 577.451 453.534C577.581 452.534 577.881 451.564 578.361 450.604C579.021 449.274 580.061 448.214 581.481 447.394C582.901 446.584 584.511 446.174 586.311 446.174C588.111 446.174 589.731 446.584 591.141 447.394C592.561 448.204 593.601 449.274 594.261 450.604C594.741 451.564 595.041 452.534 595.171 453.534C595.301 454.534 595.361 456.164 595.361 458.454V482.214C595.361 483.834 595.621 485.214 596.131 486.354C596.641 487.494 597.311 488.344 598.121 488.894C598.931 489.444 599.701 489.834 600.441 490.054C601.181 490.274 601.911 490.384 602.651 490.384C603.391 490.384 604.121 490.274 604.861 490.054C605.601 489.834 606.371 489.444 607.181 488.894C607.991 488.344 608.651 487.494 609.171 486.354C609.681 485.214 609.941 483.834 609.941 482.214L609.981 482.204Z" fill="#FF6801"/>
<path d="M641.811 494.255V458.455C641.811 456.175 641.871 454.535 642.001 453.535C642.131 452.545 642.431 451.565 642.911 450.605C643.571 449.275 644.611 448.215 646.031 447.395C647.451 446.585 649.061 446.175 650.871 446.175C654.701 446.175 657.541 447.945 659.381 451.475C660.891 449.965 662.821 448.665 665.161 447.575C667.501 446.485 669.901 445.945 672.371 445.945C676.381 445.945 679.721 446.865 682.371 448.705C685.101 450.625 686.461 452.975 686.461 455.775C686.461 458.425 685.541 460.675 683.701 462.515C682.081 464.135 680.051 464.945 677.621 464.945C675.961 464.945 674.121 464.465 672.091 463.505C670.361 462.695 668.811 462.285 667.451 462.285C666.681 462.285 665.901 462.405 665.131 462.645C664.361 462.885 663.561 463.285 662.731 463.835C661.901 464.385 661.231 465.235 660.711 466.375C660.191 467.515 659.941 468.885 659.941 470.465V494.225C659.941 496.505 659.881 498.145 659.751 499.145C659.621 500.145 659.321 501.115 658.841 502.075C658.181 503.405 657.141 504.465 655.721 505.275C654.301 506.085 652.691 506.495 650.891 506.495C649.091 506.495 647.471 506.085 646.051 505.275C644.631 504.465 643.591 503.395 642.931 502.075C642.451 501.115 642.151 500.145 642.021 499.145C641.891 498.155 641.831 496.515 641.831 494.225L641.811 494.255Z" fill="#FF6801"/>
<path d="M739.83 467.504V494.244C739.83 496.524 739.76 498.164 739.64 499.164C739.51 500.154 739.21 501.134 738.73 502.094C738.07 503.424 737.03 504.484 735.61 505.294C734.19 506.104 732.58 506.514 730.77 506.514C726.94 506.514 724.1 504.744 722.26 501.214C720.09 503.244 718.06 504.654 716.18 505.444C714.3 506.234 711.87 506.634 708.89 506.634C702.92 506.634 698.17 504.864 694.63 501.334C691.17 497.874 689.44 493.234 689.44 487.414C689.44 485.094 689.85 482.934 690.66 480.924C691.47 478.914 692.68 477.094 694.28 475.454C695.88 473.814 698.03 472.524 700.72 471.584C703.41 470.644 706.5 470.174 710 470.174H721.71V468.624C721.71 465.974 721.03 464.074 719.67 462.934C718.31 461.794 716.19 461.224 713.31 461.224C710.99 461.224 708.52 461.774 705.91 462.884C703.63 463.844 701.78 464.324 700.38 464.324C698.28 464.324 696.58 463.514 695.3 461.894C693.97 460.274 693.31 458.464 693.31 456.484C693.31 454.754 693.86 453.274 694.97 452.034C696.08 450.804 697.36 449.854 698.84 449.184C703.63 447.044 708.57 445.984 713.65 445.984C722.23 445.984 728.74 447.784 733.18 451.374C737.62 454.964 739.84 460.354 739.84 467.534L739.83 467.504ZM721.71 483.744V482.194H713.09C711.03 482.194 709.46 482.624 708.39 483.494C707.32 484.364 706.79 485.544 706.79 487.054C706.79 488.564 707.34 489.664 708.45 490.564C709.56 491.464 711.18 491.914 713.31 491.914C714.86 491.914 716.1 491.764 717.04 491.474C717.98 491.184 718.91 490.624 719.83 489.814C721.08 488.674 721.71 486.644 721.71 483.734V483.744Z" fill="#FF6801"/>
</svg>
