<?xml version="1.0" encoding="UTF-8"?>
<svg id="Capa_1" data-name="Capa 1" xmlns="http://www.w3.org/2000/svg" viewBox="0 0 1000 1000">
  <defs>
    <style>
      .cls-1 {
        fill: #27c5cd;
      }
    </style>
  </defs>
  <path class="cls-1" d="m752.1,372.18c-36.31,0-61.26,4.22-61.26,4.22,0,0-.14,120.69-.14,217.84s-24.1,165.63-109.67,165.63c-44.22,0-78.76-15.46-112.66-62.35-14.41-20.73-27.48-47.63-33.45-62.13l-10.28-27.94c-17.3-35.67-32.43-71.35-48.65-109.18-8.65-17.3-14.05-37.84-27.03-51.89,11.89-16.22,17.3-31.35,29.19-47.57,3.24-7.57,8.65-11.89,12.97-17.3,4.32-7.57,7.57-11.89,10.81-19.46,4.32-7.57,9.73-11.89,14.05-17.3,1.08-3.24,2.16-6.49,4.32-8.65,5.4-8.65,12.97-15.13,16.21-24.86,20.54-22.7,34.59-51.89,51.89-76.75l8.65-9.73,7.57-15.13,9.73-14.05c7.57-11.89,9.73-21.62,17.3-30.27,0-8.65,4.32-12.97,5.41-20.54-3.24-3.24-3.24-5.4-4.32-8.65-29.19,0-58.38-8.65-87.56-5.4-16.21-3.24-33.51,1.08-49.73,1.08-1.08,4.32-4.32,6.49-7.57,10.81-3.24,3.24-1.08,6.49-4.32,9.73-9.73,18.38-22.7,35.67-35.67,52.97-5.4,9.73-9.73,19.46-15.13,28.11-12.97,18.38-22.7,35.68-34.59,54.05-16.21,29.19-32.43,56.21-52.97,81.08-1.08-30.27,2.16-78.91,1.08-117.83l-2.16-113.51c-11.89-4.32-23.78-4.32-35.67-5.4-3.24,0-7.57-2.16-10.81-2.16-9.73-3.24-25.94-3.24-37.84-2.16-16.21,3.24-35.67,3.24-49.73,12.97,0,40,0,75.67,1.08,117.83,0,9.73-1.08,22.7-1.08,35.67,1.08,38.92-1.08,77.83,0,116.75,0,7.57,0,15.13,1.08,22.7,0,16.21-1.08,32.43-2.16,48.65,0,7.57,2.16,11.89,2.16,17.3,0,18.38,1.08,37.84,0,56.21,0,48.65-1.08,94.05,0,144.86,3.24,64.86-4.32,126.48-1.08,192.42,4.32,3.24,7.57-2.16,11.89-3.24,7.57-1.08,15.13,3.24,23.78,3.24,3.24,0,2.16-1.08,5.41-1.08s4.32,1.08,7.57,1.08c12.97,1.08,27.03,0,40-1.08,12.97,0,25.94,2.16,40,2.16,1.08-3.24,4.32-1.08,7.57-4.32,8.65-82.16-4.32-152.42-1.08-230.26,0-16.22,0-30.27,1.08-46.48l1.08-1.08c1.08-4.32,6.49-9.73,9.73-14.05l9.73-15.14,30.24,62.48,39.52,86.73c39.52,86.73,97.25,146.21,182.54,161.58,85.29,15.37,170.15-7.22,228.28-58.43,58.13-51.22,62.6-162.3,62.6-162.3v-281.55c0-17.67-21.57-18.91-57.89-18.91Z"/>
  <g>
    <path class="cls-1" d="m744.63,208.43l-115.91,210c-2.59,4.69,1.84,10.09,7.21,8.79l114.35-27.6,114.35,27.6c5.36,1.3,9.79-4.11,7.21-8.79l-115.91-210c-2.4-4.35-8.9-4.35-11.3,0Z"/>
    <g>
      <path class="cls-1" d="m609.84,285.62c-2.48,0-4.84-1.46-5.86-3.89-1.36-3.23.17-6.95,3.4-8.31l54.69-22.94c3.23-1.36,6.95.17,8.31,3.4,1.36,3.23-.17,6.95-3.4,8.31l-54.69,22.94c-.8.34-1.63.5-2.45.5Z"/>
      <path class="cls-1" d="m664.49,202.6c-.79,0-1.6-.15-2.37-.46l-54.65-22.05c-3.25-1.31-4.82-5.01-3.51-8.26,1.31-3.25,5.01-4.82,8.26-3.51l54.65,22.05c3.25,1.31,4.82,5.01,3.51,8.26-1,2.47-3.38,3.97-5.89,3.97Z"/>
      <path class="cls-1" d="m714.02,163.5c-2.54,0-4.93-1.53-5.92-4.04l-21.61-55.28c-1.28-3.27.34-6.95,3.6-8.22,3.27-1.28,6.95.34,8.22,3.6l21.61,55.28c1.28,3.27-.34,6.95-3.6,8.22-.76.3-1.54.44-2.31.44Z"/>
      <path class="cls-1" d="m787.54,164.05c-.84,0-1.7-.17-2.52-.53-3.22-1.4-4.69-5.13-3.3-8.35l24.21-55.82c1.39-3.22,5.13-4.69,8.35-3.3,3.22,1.4,4.69,5.13,3.3,8.35l-24.21,55.82c-1.04,2.39-3.38,3.82-5.83,3.82Z"/>
      <path class="cls-1" d="m839.73,206.7c-2.55,0-4.96-1.55-5.93-4.08-1.26-3.27.38-6.95,3.65-8.2l51.29-19.68c3.27-1.25,6.94.38,8.2,3.65,1.26,3.27-.38,6.95-3.65,8.2l-51.29,19.68c-.75.29-1.52.42-2.27.42Z"/>
      <path class="cls-1" d="m891.01,289.7c-.89,0-1.79-.19-2.65-.58l-52.23-24.08c-3.18-1.47-4.58-5.24-3.11-8.42s5.24-4.57,8.42-3.11l52.23,24.08c3.18,1.47,4.58,5.24,3.11,8.42-1.07,2.32-3.37,3.69-5.77,3.69Z"/>
    </g>
  </g>
</svg>