<svg width="1000" height="1000" viewBox="0 0 1000 1000" fill="none" xmlns="http://www.w3.org/2000/svg">
<path d="M653.08 649.845C653.08 651.145 651.35 651.145 651.78 652.865C639.25 652.865 626.73 654.595 614.63 653.295C609.01 652.865 603.4 651.995 598.22 651.995C596.92 647.675 595.2 643.785 593.04 640.335C587.86 625.215 580.95 612.255 575.33 596.705C572.31 589.795 568.85 583.745 567.12 575.535L558.48 553.505C552 535.795 542.93 518.945 534.72 500.375C533.42 496.915 531.26 493.895 530.83 490.005C529.53 489.575 529.1 486.985 528.67 485.685C528.24 516.785 529.1 544.865 529.53 574.665C529.53 579.845 529.53 585.035 529.96 590.215C529.96 595.835 530.82 601.015 530.82 606.195C530.82 610.085 529.96 613.965 529.96 617.425C528.66 628.225 528.66 639.455 528.66 650.255C526.93 650.685 526.07 649.825 525.64 651.555C510.52 656.735 493.24 654.575 476.4 651.555C475.1 648.535 474.67 641.615 476.4 639.465C475.1 636.445 475.54 632.125 475.54 629.095C475.97 623.475 476.4 617.435 475.97 611.815C475.54 606.195 474.67 601.015 474.67 596.265C474.24 589.785 475.1 584.175 475.53 577.695C475.96 566.895 474.67 557.825 475.1 546.165V512.905C475.1 507.725 475.96 502.535 475.53 497.785C475.1 483.965 476.39 469.275 476.39 454.155C475.96 421.325 474.66 388.495 476.39 351.785C490.21 349.625 508.35 347.895 523.47 350.055C523.9 351.355 524.33 350.485 525.63 350.915C530.38 358.255 532.97 367.325 536 375.965C544.21 388.065 547.66 403.605 554.14 417.005C559.32 428.665 564.51 439.895 569.26 451.565C578.33 475.755 587.83 498.645 599.5 520.675L601.23 493.465C601.66 483.535 601.23 474.895 600.8 464.955C600.8 445.945 601.23 426.515 600.8 407.075V395.415C600.8 378.565 600.37 366.045 600.8 350.495C618.51 347.475 636.22 347.035 652.2 351.795C652.63 361.735 652.63 370.805 652.63 380.735C652.63 390.665 653.06 400.175 653.06 410.105C652.63 420.045 651.76 429.975 651.76 439.915C653.06 472.745 650.03 507.735 651.33 537.105C651.76 544.445 651.33 552.225 651.33 560.435C651.76 575.555 651.76 591.105 653.06 606.225C653.49 621.345 651.76 635.595 653.06 649.855L653.08 649.845Z" fill="#27C5CD"/>
<path d="M869.91 503.849C869.91 521.129 869.05 534.519 869.48 548.769C869.91 555.249 869.48 562.159 869.05 569.069C869.05 572.529 867.75 575.979 869.91 578.139C869.48 592.389 864.73 606.219 859.11 617.879C852.63 629.979 843.56 637.749 833.19 645.959L819.8 650.279C816.78 650.709 813.32 650.279 810.3 650.709C809 650.709 807.28 651.139 805.98 651.139L790.43 651.999L751.12 654.159C740.75 654.159 731.25 654.159 722.18 653.729C719.16 653.299 716.56 654.159 713.54 653.729C711.81 652.429 712.68 651.569 709.65 651.999C708.35 643.359 707.92 636.019 707.49 627.809C707.06 626.079 707.92 624.789 707.92 623.059C707.92 619.599 707.49 616.149 707.49 612.689C707.49 597.139 707.92 582.879 708.35 567.329C708.35 561.709 707.92 555.669 707.92 549.189C707.92 542.709 707.49 536.659 707.49 530.179C707.49 525.429 709.22 520.679 707.92 515.929C707.92 514.629 707.49 513.769 707.49 512.469C707.06 510.309 707.49 508.149 707.49 505.129C707.49 498.219 707.06 488.279 707.49 480.939C707.49 469.279 706.63 456.319 707.06 444.659C707.49 431.269 707.49 417.879 706.2 404.489V395.849C705.77 383.319 707.93 366.479 706.63 352.649C707.06 351.349 709.65 351.349 709.65 349.629C731.68 348.329 758.46 348.769 783.08 350.489C788.26 350.489 793.45 350.489 798.2 350.919C804.68 352.219 811.16 353.509 818.07 353.079C822.82 356.099 828.87 357.829 833.62 360.859C834.92 361.289 835.35 362.589 836.64 363.019C840.1 365.179 843.12 365.609 846.14 368.639C850.89 372.099 852.62 375.119 856.08 380.299L860.83 388.079C862.56 392.829 863.42 398.009 865.15 403.199C866.45 408.379 868.17 413.569 868.61 418.749C869.91 430.409 869.04 440.779 868.61 452.869C868.61 464.529 869.47 476.199 869.91 487.859V503.839V503.849ZM816.78 582.029C818.51 570.369 817.64 557.409 816.35 546.609C817.65 539.269 816.35 532.789 815.92 524.579C815.92 519.829 816.78 515.939 816.35 511.189C815.92 506.439 815.92 502.549 815.92 497.799C817.22 484.409 815.49 471.449 815.92 458.059C815.92 442.079 819.81 421.339 811.6 408.389C809.44 405.369 806.42 403.209 801.67 401.479L797.78 399.749C787.41 396.729 775.32 401.049 763.66 399.749C762.36 416.599 763.66 435.169 763.23 448.559C762.8 454.179 763.23 459.359 763.23 464.969C763.23 474.039 762.37 483.539 762.37 493.479C762.37 503.419 762.8 513.779 762.8 522.849C762.8 535.379 764.1 547.899 763.66 561.289C763.23 574.679 764.52 588.929 763.23 603.189C770.14 604.489 777.92 603.189 783.1 604.489C792.17 604.059 802.54 601.469 809.02 598.009C811.033 596.856 812.473 595.273 813.34 593.259L816.8 582.029H816.78Z" fill="#27C5CD"/>
<path d="M385.56 445.7C371.13 445.7 361.23 447.38 361.23 447.38C361.23 447.38 361.18 495.32 361.18 533.92C361.18 572.52 351.61 599.71 317.61 599.71C300.04 599.71 286.32 593.57 272.86 574.94C267.14 566.71 261.94 556.02 259.57 550.26L255.49 539.16C248.62 524.99 242.61 510.82 236.17 495.79C232.73 488.92 230.59 480.76 225.43 475.18C230.15 468.74 232.3 462.73 237.02 456.28C238.31 453.27 240.46 451.56 242.17 449.41C243.89 446.4 245.18 444.69 246.46 441.68C248.18 438.67 250.33 436.96 252.04 434.81C252.47 433.52 252.9 432.23 253.76 431.37C255.91 427.93 258.91 425.36 260.2 421.49C268.36 412.47 273.94 400.88 280.81 391L284.25 387.13L287.26 381.12L291.13 375.54C294.14 370.82 295 366.95 298 363.52C298 360.08 299.72 358.37 300.15 355.36C298.86 354.07 298.86 353.21 298.43 351.92C286.84 351.92 275.24 348.48 263.65 349.77C257.21 348.48 250.34 350.2 243.9 350.2C243.47 351.92 242.18 352.78 240.89 354.49C239.6 355.78 240.46 357.07 239.17 358.35C235.31 365.65 230.15 372.52 225 379.39C222.85 383.25 221.14 387.12 218.99 390.55C213.84 397.85 209.97 404.72 205.25 412.02C198.81 423.61 192.37 434.35 184.21 444.23C183.78 432.21 185.07 412.88 184.64 397.42L183.78 352.33C179.06 350.61 174.33 350.61 169.61 350.18C168.32 350.18 166.6 349.32 165.32 349.32C161.46 348.03 155.01 348.03 150.29 348.46C143.85 349.75 136.12 349.75 130.54 353.61C130.54 369.5 130.54 383.67 130.97 400.42C130.97 404.28 130.54 409.44 130.54 414.59C130.97 430.05 130.11 445.51 130.54 460.97C130.54 463.98 130.54 466.98 130.97 469.99C130.97 476.43 130.54 482.87 130.11 489.31C130.11 492.32 130.97 494.03 130.97 496.18C130.97 503.48 131.4 511.21 130.97 518.51C130.97 537.83 130.54 555.87 130.97 576.05C132.26 601.82 129.25 626.29 130.54 652.49C132.26 653.78 133.55 651.63 135.26 651.2C138.27 650.77 141.27 652.49 144.71 652.49C146 652.49 145.57 652.06 146.86 652.06C148.15 652.06 148.58 652.49 149.87 652.49C155.02 652.92 160.61 652.49 165.76 652.06C170.91 652.06 176.07 652.92 181.65 652.92C182.08 651.63 183.37 652.49 184.66 651.2C188.1 618.56 182.94 590.65 184.23 559.73C184.23 553.29 184.23 547.71 184.66 541.26L185.09 540.83C185.52 539.11 187.67 536.97 188.95 535.25L192.81 529.24L204.82 554.06L220.52 588.52C236.22 622.98 259.15 646.6 293.03 652.71C326.91 658.82 360.62 649.84 383.71 629.5C406.8 609.15 408.58 565.03 408.58 565.03V453.18C408.58 446.16 400.01 445.67 385.58 445.67L385.56 445.7Z" fill="#27C5CD"/>
<path d="M382.59 380.649L336.55 464.069C335.52 465.929 337.28 468.079 339.41 467.559L384.83 456.589L430.25 467.559C432.38 468.069 434.14 465.929 433.11 464.069L387.07 380.649C386.12 378.919 383.54 378.919 382.58 380.649H382.59Z" fill="#27C5CD"/>
<path d="M329.05 411.305C328.06 411.305 327.13 410.725 326.72 409.755C326.18 408.475 326.79 406.995 328.07 406.455L349.79 397.345C351.07 396.805 352.55 397.415 353.09 398.695C353.63 399.975 353.02 401.455 351.74 401.995L330.02 411.105C329.7 411.235 329.37 411.305 329.05 411.305Z" fill="#27C5CD"/>
<path d="M350.76 378.33C350.45 378.33 350.13 378.27 349.82 378.15L328.11 369.39C326.82 368.87 326.19 367.4 326.71 366.11C327.23 364.82 328.7 364.2 329.99 364.71L351.7 373.47C352.99 373.99 353.62 375.46 353.1 376.75C352.7 377.73 351.76 378.33 350.76 378.33Z" fill="#27C5CD"/>
<path d="M370.44 362.794C369.43 362.794 368.48 362.184 368.09 361.194L359.5 339.234C358.99 337.934 359.63 336.474 360.93 335.964C362.23 335.454 363.69 336.094 364.2 337.394L372.79 359.354C373.3 360.654 372.66 362.114 371.36 362.624C371.06 362.744 370.75 362.794 370.44 362.794Z" fill="#27C5CD"/>
<path d="M399.64 363.016C399.31 363.016 398.96 362.947 398.64 362.807C397.36 362.257 396.78 360.766 397.33 359.486L406.95 337.307C407.5 336.027 408.99 335.447 410.27 335.997C411.55 336.547 412.13 338.037 411.58 339.317L401.96 361.497C401.55 362.447 400.62 363.016 399.65 363.016H399.64Z" fill="#27C5CD"/>
<path d="M420.37 379.955C419.36 379.955 418.4 379.335 418.01 378.335C417.51 377.035 418.16 375.575 419.46 375.075L439.83 367.255C441.13 366.755 442.59 367.405 443.09 368.705C443.59 370.005 442.94 371.465 441.64 371.965L421.27 379.785C420.97 379.895 420.67 379.955 420.37 379.955Z" fill="#27C5CD"/>
<path d="M440.74 412.929C440.39 412.929 440.03 412.859 439.69 412.699L418.94 403.129C417.67 402.549 417.12 401.049 417.71 399.779C418.29 398.509 419.79 397.959 421.06 398.549L441.81 408.119C443.08 408.699 443.63 410.199 443.04 411.469C442.62 412.389 441.7 412.939 440.75 412.939L440.74 412.929Z" fill="#27C5CD"/>
<path d="M179.03 295.512H143.75C142.22 295.512 141.02 295.482 140.13 295.412C139.24 295.342 138.11 295.072 136.73 294.582C135.35 294.092 134.18 293.362 133.2 292.392C132.22 291.422 131.49 290.242 131.01 288.862C130.52 287.482 130.25 286.352 130.18 285.462C130.12 284.572 130.08 283.362 130.08 281.842V218.662C130.08 217.132 130.11 215.932 130.18 215.042C130.24 214.152 130.52 213.022 131.01 211.642C131.5 210.262 132.23 209.092 133.2 208.112C134.17 207.142 135.35 206.402 136.73 205.922C138.11 205.432 139.24 205.162 140.13 205.092C141.02 205.022 142.23 204.992 143.75 204.992H179.03C181.45 204.992 183.2 205.062 184.31 205.212C185.41 205.362 186.49 205.692 187.55 206.202C188.99 206.882 190.16 208.012 191.05 209.602C191.94 211.192 192.38 212.962 192.38 214.912C192.38 216.862 191.93 218.632 191.05 220.222C190.16 221.812 188.99 222.942 187.55 223.622C186.49 224.132 185.41 224.462 184.31 224.612C183.21 224.762 181.45 224.832 179.03 224.832H152.46V239.962H173.31C175.73 239.962 177.48 240.032 178.59 240.182C179.69 240.332 180.77 240.662 181.83 241.172C183.27 241.852 184.44 242.982 185.33 244.572C186.22 246.162 186.66 247.932 186.66 249.882C186.66 251.832 186.21 253.602 185.33 255.192C184.44 256.782 183.27 257.912 181.83 258.592C180.77 259.102 179.69 259.432 178.59 259.572C177.49 259.722 175.73 259.792 173.31 259.792H152.46V275.682H179.03C181.45 275.682 183.2 275.752 184.31 275.902C185.41 276.052 186.49 276.382 187.55 276.892C188.99 277.572 190.16 278.702 191.05 280.292C191.94 281.882 192.38 283.652 192.38 285.602C192.38 287.552 191.93 289.322 191.05 290.912C190.16 292.502 188.99 293.632 187.55 294.312C186.49 294.822 185.41 295.152 184.31 295.292C183.21 295.442 181.45 295.512 179.03 295.512Z" fill="#F9F6F2"/>
<path d="M238.71 260.549L227.78 259.019C219.73 257.879 213.67 255.209 209.6 251.009C205.45 246.729 203.37 240.669 203.37 232.829C203.37 224.399 206.35 217.519 212.3 212.199C218.25 206.879 226.29 204.219 236.42 204.219C243.54 204.219 250.02 205.359 255.87 207.649C258.75 208.789 261.02 210.309 262.67 212.189C264.32 214.079 265.15 216.209 265.15 218.579C265.15 220.949 264.26 223.329 262.48 225.439C260.83 227.469 258.67 228.489 256 228.489C254.18 228.489 251.55 227.769 248.12 226.329C244.14 224.639 240.03 223.789 235.79 223.789C232.23 223.789 229.52 224.579 227.65 226.169C225.78 227.759 224.85 229.509 224.85 231.409C224.85 233.439 225.44 235.059 226.63 236.239C228.03 237.639 230.1 238.529 232.86 238.909L243.79 240.439C251.8 241.579 257.73 244.089 261.59 247.939C266.08 252.299 268.33 258.919 268.33 267.769C268.33 273.699 266.73 278.859 263.53 283.249C260.33 287.639 256.13 290.899 250.91 293.039C245.7 295.179 239.85 296.249 233.37 296.249C224.68 296.249 217.78 295.229 212.65 293.199C208.67 291.629 205.7 289.859 203.75 287.889C201.8 285.919 200.83 283.369 200.83 280.229C200.83 277.429 201.85 275.019 203.88 272.979C205.49 271.369 207.52 270.559 209.98 270.559C211.04 270.559 212.11 270.739 213.19 271.099C214.27 271.459 216.08 272.169 218.62 273.229C223.75 275.429 228.7 276.539 233.49 276.539C237.81 276.539 241.05 275.829 243.21 274.409C245.37 272.989 246.45 270.949 246.45 268.279C246.45 266.029 245.86 264.259 244.67 262.939C243.4 261.669 241.41 260.859 238.7 260.519L238.71 260.549Z" fill="#F9F6F2"/>
<path d="M282.7 281.02V218.67C282.7 217.14 282.73 215.94 282.8 215.05C282.86 214.16 283.14 213.03 283.63 211.65C284.12 210.27 284.85 209.1 285.82 208.12C286.79 207.15 287.97 206.41 289.35 205.93C290.73 205.44 291.86 205.17 292.75 205.1C293.64 205.03 294.85 205 296.37 205H318.68C323.55 205 327.98 205.82 331.96 207.45C335.94 209.08 339.2 211.26 341.72 214C344.24 216.73 346.18 219.83 347.54 223.28C348.9 226.73 349.57 230.35 349.57 234.12C349.57 237.89 348.89 241.5 347.54 244.96C346.18 248.41 344.25 251.51 341.72 254.24C339.2 256.97 335.95 259.16 331.96 260.79C327.98 262.42 323.55 263.24 318.68 263.24H305.08V281.04C305.08 283.8 305.01 285.75 304.86 286.92C304.71 288.09 304.32 289.3 303.68 290.57C302.87 292.18 301.59 293.49 299.83 294.51C298.07 295.53 296.09 296.04 293.89 296.04C291.69 296.04 289.7 295.53 287.95 294.51C286.19 293.49 284.91 292.18 284.1 290.57C283.46 289.3 283.07 288.08 282.92 286.92C282.77 285.76 282.7 283.8 282.7 281.04V281.02ZM305.07 243.39H317.65C320.57 243.39 322.91 242.47 324.67 240.63C326.43 238.79 327.31 236.62 327.31 234.11C327.31 231.6 326.43 229.44 324.67 227.59C322.91 225.75 320.57 224.82 317.65 224.82H305.07V243.38V243.39Z" fill="#F9F6F2"/>
<path d="M351.47 278.48L375.62 214.35C376.98 210.79 378.52 208.33 380.26 206.98C382.34 205.33 384.96 204.5 388.14 204.5C391.32 204.5 393.95 205.33 396.02 206.98C397.76 208.34 399.3 210.79 400.66 214.35L424.81 278.48C425.66 280.77 426.24 282.56 426.56 283.85C426.88 285.14 426.88 286.6 426.56 288.24C426.24 289.87 425.4 291.37 424.05 292.72C421.85 294.92 419.18 296.03 416.04 296.03C413.5 296.03 411.4 295.27 409.75 293.74C408.82 292.89 408.07 291.94 407.49 290.88C406.92 289.82 406.21 288.11 405.36 285.73L404.03 282.04H372.25L370.92 285.73C370.07 288.1 369.36 289.82 368.79 290.88C368.22 291.94 367.47 292.89 366.53 293.74C364.88 295.27 362.78 296.03 360.24 296.03C357.1 296.03 354.43 294.93 352.23 292.72C350.87 291.36 350.04 289.87 349.72 288.24C349.4 286.61 349.4 285.15 349.72 283.85C350.04 282.56 350.62 280.77 351.47 278.48ZM397.3 263.48L388.15 238.31L379 263.48H397.31H397.3Z" fill="#F9F6F2"/>
<path d="M434.2 259.119C434.14 257.069 434.1 254.109 434.1 250.249C434.1 246.389 434.13 243.439 434.2 241.379C434.26 239.319 434.45 236.779 434.77 233.749C435.09 230.719 435.55 228.239 436.17 226.309C436.78 224.379 437.71 222.319 438.93 220.109C440.16 217.909 441.66 215.919 443.44 214.139C450.05 207.529 458.38 204.219 468.42 204.219C473.97 204.219 478.46 204.739 481.9 205.779C485.33 206.819 488.45 208.589 491.24 211.089C494.33 213.889 496.54 216.779 497.85 219.769C499.16 222.759 499.82 225.459 499.82 227.869C499.82 231.429 498.78 234.249 496.71 236.319C494.63 238.399 492.07 239.429 489.02 239.429C486.65 239.429 484.65 238.859 483.04 237.709C481.18 236.439 479.21 233.959 477.13 230.269C475.86 228.019 474.51 226.419 473.09 225.469C471.67 224.519 469.94 224.039 467.91 224.039C464.56 224.039 461.89 225.349 459.9 227.979C458.54 229.759 457.63 232.099 457.17 234.999C456.7 237.899 456.47 242.979 456.47 250.219C456.47 257.459 456.7 262.539 457.17 265.439C457.64 268.339 458.55 270.679 459.9 272.459C461.89 275.089 464.56 276.399 467.91 276.399C469.94 276.399 471.67 275.919 473.09 274.969C474.51 274.019 475.86 272.419 477.13 270.169C479.21 266.479 481.18 263.999 483.04 262.729C484.65 261.589 486.64 261.009 489.02 261.009C492.07 261.009 494.63 262.049 496.71 264.119C498.79 266.199 499.82 269.009 499.82 272.569C499.82 274.989 499.16 277.689 497.85 280.669C496.54 283.659 494.33 286.549 491.24 289.349C488.44 291.849 485.33 293.619 481.9 294.659C478.47 295.699 473.98 296.219 468.42 296.219C458.38 296.219 450.05 292.909 443.44 286.299C441.66 284.519 440.16 282.529 438.93 280.329C437.7 278.129 436.78 276.059 436.17 274.129C435.55 272.199 435.09 269.719 434.77 266.689C434.45 263.659 434.26 261.119 434.2 259.059V259.119Z" fill="#F9F6F2"/>
<path d="M513.87 281.022V219.492C513.87 216.742 513.94 214.782 514.09 213.612C514.24 212.452 514.63 211.232 515.27 209.962C516.07 208.352 517.36 207.042 519.12 206.022C520.88 205.002 522.86 204.492 525.06 204.492C527.26 204.492 529.24 205.002 531 206.022C532.76 207.042 534.04 208.352 534.85 209.962C535.49 211.232 535.88 212.452 536.03 213.612C536.18 214.782 536.25 216.742 536.25 219.492V281.022C536.25 283.782 536.18 285.732 536.03 286.902C535.88 288.072 535.49 289.282 534.85 290.552C534.04 292.162 532.76 293.472 531 294.492C529.24 295.512 527.26 296.022 525.06 296.022C522.86 296.022 520.87 295.512 519.12 294.492C517.36 293.472 516.08 292.162 515.27 290.552C514.63 289.282 514.24 288.062 514.09 286.902C513.94 285.742 513.87 283.782 513.87 281.022Z" fill="#F9F6F2"/>
<path d="M611.18 286.359C607.83 289.709 604.14 292.199 600.09 293.829C596.04 295.459 591.33 296.279 585.95 296.279C580.57 296.279 575.85 295.459 571.81 293.829C567.76 292.199 564.06 289.709 560.72 286.359C558.94 284.579 557.44 282.589 556.21 280.389C554.98 278.189 554.06 276.119 553.45 274.189C552.83 272.259 552.37 269.779 552.05 266.749C551.73 263.719 551.54 261.179 551.48 259.119C551.42 257.069 551.38 254.109 551.38 250.249C551.38 246.389 551.41 243.439 551.48 241.379C551.54 239.319 551.73 236.779 552.05 233.749C552.37 230.719 552.83 228.239 553.45 226.309C554.06 224.379 554.99 222.319 556.21 220.109C557.44 217.909 558.94 215.919 560.72 214.139C564.07 210.789 567.76 208.299 571.81 206.669C575.86 205.039 580.57 204.219 585.95 204.219C591.33 204.219 596.04 205.039 600.09 206.669C604.14 208.299 607.83 210.789 611.18 214.139C612.96 215.919 614.46 217.909 615.69 220.109C616.92 222.309 617.84 224.379 618.45 226.309C619.06 228.239 619.53 230.719 619.85 233.749C620.17 236.779 620.36 239.319 620.42 241.379C620.48 243.439 620.51 246.389 620.51 250.249C620.51 254.109 620.48 257.059 620.42 259.119C620.36 261.179 620.17 263.719 619.85 266.749C619.53 269.779 619.06 272.259 618.45 274.189C617.83 276.119 616.91 278.179 615.69 280.389C614.46 282.589 612.96 284.579 611.18 286.359ZM594.85 272.379C596.04 270.809 596.88 268.629 597.39 265.829C597.9 263.029 598.15 257.839 598.15 250.259C598.15 242.679 597.9 237.449 597.39 234.589C596.88 231.729 596.03 229.539 594.85 228.009C593.96 226.869 592.74 225.919 591.19 225.179C589.64 224.439 587.9 224.069 585.95 224.069C584 224.069 582.25 224.439 580.71 225.179C579.16 225.919 577.95 226.859 577.06 228.009C575.87 229.539 575.03 231.729 574.52 234.589C574.01 237.449 573.76 242.669 573.76 250.259C573.76 257.849 574.01 263.039 574.52 265.829C575.03 268.629 575.88 270.809 577.06 272.379C579.14 275.089 582.1 276.449 585.96 276.449C589.82 276.449 592.78 275.089 594.86 272.379H594.85Z" fill="#F9F6F2"/>
<path d="M151.84 763.27V714.42H143.72C141.62 714.42 140.09 714.36 139.13 714.23C138.17 714.1 137.23 713.82 136.31 713.37C135.06 712.78 134.04 711.79 133.27 710.41C132.5 709.03 132.11 707.49 132.11 705.8C132.11 704.11 132.5 702.57 133.27 701.19C134.04 699.81 135.06 698.82 136.31 698.23C137.23 697.79 138.17 697.5 139.13 697.37C140.09 697.24 141.62 697.18 143.72 697.18H179.41C181.51 697.18 183.04 697.25 184 697.37C184.96 697.5 185.9 697.78 186.82 698.23C188.07 698.82 189.09 699.8 189.86 701.19C190.63 702.57 191.02 704.11 191.02 705.8C191.02 707.49 190.63 709.03 189.86 710.41C189.09 711.79 188.07 712.78 186.82 713.37C185.9 713.81 184.96 714.1 184 714.23C183.04 714.36 181.51 714.42 179.41 714.42H171.29V763.27C171.29 765.66 171.23 767.37 171.1 768.38C170.97 769.39 170.63 770.45 170.08 771.56C169.38 772.96 168.26 774.1 166.74 774.99C165.21 775.87 163.49 776.32 161.57 776.32C159.65 776.32 157.93 775.88 156.4 774.99C154.87 774.11 153.76 772.96 153.06 771.56C152.51 770.45 152.17 769.4 152.04 768.38C151.91 767.37 151.85 765.66 151.85 763.27H151.84Z" fill="#F9F6F2"/>
<path d="M228.25 752.001V728.241C228.25 725.961 228.31 724.321 228.44 723.321C228.57 722.331 228.87 721.351 229.35 720.391C230.01 719.061 231.05 718.001 232.47 717.181C233.89 716.371 235.5 715.961 237.31 715.961C239.12 715.961 240.73 716.371 242.14 717.181C243.56 717.991 244.6 719.061 245.26 720.391C245.74 721.351 246.04 722.321 246.17 723.321C246.3 724.321 246.36 725.951 246.36 728.241V764.041C246.36 766.321 246.3 767.961 246.17 768.961C246.04 769.961 245.74 770.931 245.26 771.891C244.6 773.221 243.56 774.281 242.14 775.091C240.72 775.901 239.11 776.311 237.31 776.311C233.48 776.311 230.64 774.541 228.8 771.011C227.03 772.781 224.88 774.141 222.36 775.101C219.84 776.061 217.34 776.541 214.87 776.541C209.34 776.541 204.89 774.851 201.5 771.461C199.14 769.101 197.56 766.581 196.75 763.891C195.94 761.201 195.53 758.051 195.53 754.441V728.251C195.53 725.971 195.59 724.331 195.72 723.331C195.85 722.331 196.15 721.361 196.63 720.401C197.29 719.071 198.33 718.011 199.75 717.191C201.17 716.381 202.78 715.971 204.58 715.971C206.38 715.971 208 716.381 209.41 717.191C210.83 718.001 211.87 719.071 212.53 720.401C213.01 721.361 213.31 722.331 213.44 723.331C213.57 724.331 213.63 725.961 213.63 728.251V752.011C213.63 753.631 213.89 755.011 214.4 756.151C214.91 757.291 215.58 758.141 216.39 758.691C217.2 759.241 217.97 759.631 218.71 759.851C219.45 760.071 220.18 760.181 220.92 760.181C221.66 760.181 222.39 760.071 223.13 759.851C223.87 759.631 224.64 759.241 225.45 758.691C226.26 758.141 226.92 757.291 227.44 756.151C227.95 755.011 228.21 753.631 228.21 752.011L228.25 752.001Z" fill="#F9F6F2"/>
<path d="M330.91 737.301V764.041C330.91 766.321 330.84 767.961 330.72 768.961C330.59 769.951 330.29 770.931 329.81 771.891C329.15 773.221 328.11 774.281 326.69 775.091C325.27 775.901 323.66 776.311 321.85 776.311C318.02 776.311 315.18 774.541 313.34 771.011C311.17 773.041 309.14 774.451 307.26 775.241C305.38 776.031 302.95 776.431 299.97 776.431C294 776.431 289.25 774.661 285.71 771.131C282.17 767.601 280.52 763.031 280.52 757.211C280.52 754.891 280.93 752.731 281.74 750.721C282.55 748.711 283.76 746.891 285.36 745.251C286.96 743.611 289.11 742.321 291.8 741.381C294.49 740.441 297.58 739.971 301.08 739.971H312.79V738.421C312.79 735.771 312.11 733.871 310.75 732.731C309.39 731.591 307.27 731.021 304.39 731.021C302.07 731.021 299.6 731.571 296.99 732.681C294.71 733.641 292.86 734.121 291.46 734.121C289.36 734.121 287.66 733.311 286.38 731.691C285.05 730.071 284.39 728.261 284.39 726.281C284.39 724.551 284.94 723.071 286.05 721.831C287.16 720.601 288.44 719.651 289.92 718.981C294.71 716.841 299.65 715.781 304.73 715.781C313.31 715.781 319.82 717.581 324.26 721.171C328.7 724.761 330.92 730.151 330.92 737.331L330.91 737.301ZM312.79 753.541V751.991H304.17C302.11 751.991 300.54 752.421 299.47 753.291C298.4 754.161 297.87 755.341 297.87 756.851C297.87 758.361 298.42 759.461 299.53 760.361C300.64 761.261 302.26 761.711 304.39 761.711C305.94 761.711 307.18 761.561 308.12 761.271C309.06 760.981 309.99 760.421 310.91 759.611C312.16 758.471 312.79 756.441 312.79 753.531V753.541Z" fill="#F9F6F2"/>
<path d="M376.22 752.001V728.241C376.22 725.961 376.28 724.321 376.41 723.321C376.54 722.331 376.84 721.351 377.32 720.391C377.98 719.061 379.02 718.001 380.44 717.181C381.86 716.371 383.47 715.961 385.28 715.961C387.09 715.961 388.7 716.371 390.11 717.181C391.53 717.991 392.57 719.061 393.23 720.391C393.71 721.351 394.01 722.321 394.14 723.321C394.27 724.321 394.33 725.951 394.33 728.241V764.041C394.33 766.321 394.27 767.961 394.14 768.961C394.01 769.961 393.71 770.931 393.23 771.891C392.57 773.221 391.53 774.281 390.11 775.091C388.69 775.901 387.08 776.311 385.28 776.311C381.45 776.311 378.61 774.541 376.77 771.011C375 772.781 372.85 774.141 370.33 775.101C367.81 776.061 365.31 776.541 362.84 776.541C357.31 776.541 352.86 774.851 349.47 771.461C347.11 769.101 345.53 766.581 344.72 763.891C343.91 761.201 343.5 758.051 343.5 754.441V728.251C343.5 725.971 343.56 724.331 343.69 723.331C343.82 722.331 344.12 721.361 344.6 720.401C345.26 719.071 346.3 718.011 347.72 717.191C349.14 716.381 350.75 715.971 352.55 715.971C354.35 715.971 355.97 716.381 357.38 717.191C358.8 718.001 359.84 719.071 360.5 720.401C360.98 721.361 361.28 722.331 361.41 723.331C361.54 724.331 361.6 725.961 361.6 728.251V752.011C361.6 753.631 361.86 755.011 362.37 756.151C362.88 757.291 363.55 758.141 364.36 758.691C365.17 759.241 365.94 759.631 366.68 759.851C367.42 760.071 368.15 760.181 368.89 760.181C369.63 760.181 370.36 760.071 371.1 759.851C371.84 759.631 372.61 759.241 373.42 758.691C374.23 758.141 374.89 757.291 375.41 756.151C375.92 755.011 376.18 753.631 376.18 752.011L376.22 752.001Z" fill="#F9F6F2"/>
<path d="M426.06 775.869H425.73C422.67 775.869 419.94 775.349 417.52 774.289C415.11 773.239 413.19 771.849 411.77 770.119C410.35 768.389 409.28 766.519 408.56 764.509C407.84 762.499 407.48 760.429 407.48 758.289V708.999C407.48 706.719 407.54 705.079 407.67 704.079C407.8 703.089 408.1 702.109 408.58 701.149C409.24 699.819 410.28 698.759 411.7 697.939C413.12 697.129 414.73 696.719 416.53 696.719C418.33 696.719 419.95 697.129 421.36 697.939C422.78 698.749 423.82 699.819 424.48 701.149C424.96 702.109 425.26 703.079 425.39 704.079C425.52 705.079 425.58 706.709 425.58 708.999V756.959C425.58 759.349 426.7 760.609 428.95 760.719C430.79 760.829 432.28 761.159 433.42 761.709C435.85 762.929 437.07 765.099 437.07 768.229C437.07 771.359 435.82 773.389 433.31 774.639C431.69 775.449 429.26 775.859 426.02 775.859L426.06 775.869Z" fill="#F9F6F2"/>
<path d="M491.04 737.301V764.041C491.04 766.321 490.97 767.961 490.85 768.961C490.72 769.951 490.42 770.931 489.94 771.891C489.28 773.221 488.24 774.281 486.82 775.091C485.4 775.901 483.79 776.311 481.98 776.311C478.15 776.311 475.31 774.541 473.47 771.011C471.3 773.041 469.27 774.451 467.39 775.241C465.51 776.031 463.08 776.431 460.1 776.431C454.13 776.431 449.38 774.661 445.84 771.131C442.3 767.601 440.65 763.031 440.65 757.211C440.65 754.891 441.06 752.731 441.87 750.721C442.68 748.711 443.89 746.891 445.49 745.251C447.09 743.611 449.24 742.321 451.93 741.381C454.62 740.441 457.71 739.971 461.21 739.971H472.92V738.421C472.92 735.771 472.24 733.871 470.88 732.731C469.52 731.591 467.4 731.021 464.52 731.021C462.2 731.021 459.73 731.571 457.12 732.681C454.84 733.641 452.99 734.121 451.59 734.121C449.49 734.121 447.79 733.311 446.51 731.691C445.18 730.071 444.52 728.261 444.52 726.281C444.52 724.551 445.07 723.071 446.18 721.831C447.29 720.601 448.57 719.651 450.05 718.981C454.84 716.841 459.78 715.781 464.86 715.781C473.44 715.781 479.95 717.581 484.39 721.171C488.83 724.761 491.05 730.151 491.05 737.331L491.04 737.301ZM472.92 753.541V751.991H464.3C462.24 751.991 460.67 752.421 459.6 753.291C458.53 754.161 458 755.341 458 756.851C458 758.361 458.55 759.461 459.66 760.361C460.77 761.261 462.39 761.711 464.52 761.711C466.07 761.711 467.31 761.561 468.25 761.271C469.19 760.981 470.12 760.421 471.04 759.611C472.29 758.471 472.92 756.441 472.92 753.531V753.541Z" fill="#F9F6F2"/>
<path d="M552.37 753.548L543.2 752.668C531.71 751.558 525.96 745.818 525.96 735.428C525.96 732.258 526.63 729.398 527.98 726.838C529.32 724.278 531.12 722.208 533.37 720.618C535.62 719.038 538.13 717.828 540.91 716.998C543.69 716.168 546.59 715.758 549.61 715.758C554.99 715.758 559.89 716.568 564.31 718.188C566.78 719.108 568.66 720.218 569.95 721.508C571.28 722.868 571.94 724.598 571.94 726.698C571.94 727.728 571.7 728.788 571.22 729.878C570.74 730.968 570.17 731.818 569.51 732.448C568.07 733.778 566.45 734.438 564.65 734.438C563.47 734.438 561.83 733.998 559.73 733.108C555.24 731.268 551.72 730.348 549.18 730.348C547.49 730.348 546.1 730.688 545.04 731.368C543.97 732.048 543.44 732.938 543.44 734.048C543.44 736.038 544.73 737.158 547.31 737.418L556.48 738.298C562.48 738.888 566.97 740.808 569.94 744.048C572.9 747.288 574.39 751.418 574.39 756.428C574.39 759.158 573.94 761.638 573.04 763.888C572.14 766.138 570.89 768.028 569.31 769.578C567.73 771.128 565.85 772.428 563.67 773.498C561.5 774.568 559.15 775.338 556.63 775.818C554.11 776.298 551.44 776.538 548.65 776.538C544.01 776.538 540.1 776.128 536.94 775.318C533.77 774.508 530.86 773.218 528.21 771.448C525.56 769.648 524.23 767.438 524.23 764.818C524.23 763.598 524.5 762.428 525.03 761.278C525.56 760.138 526.25 759.248 527.1 758.628C528.57 757.488 530.16 756.918 531.85 756.918C533.21 756.918 535.02 757.488 537.27 758.628C540.99 760.548 544.93 761.498 549.09 761.498C551.26 761.498 553.08 761.138 554.53 760.418C555.98 759.698 556.71 758.658 556.71 757.298C556.71 755.048 555.27 753.798 552.4 753.538L552.37 753.548Z" fill="#F9F6F2"/>
<path d="M625.14 751.998H599.56C599.56 754.578 600.52 756.788 602.43 758.628C604.34 760.468 606.96 761.388 610.28 761.388C613.6 761.388 616.5 760.508 619.23 758.738C621.55 757.188 623.65 756.418 625.53 756.418C627.26 756.418 628.89 757.168 630.42 758.658C631.95 760.148 632.71 761.908 632.71 763.938C632.71 766.778 630.83 769.498 627.07 772.118C622.8 775.068 617.12 776.538 610.05 776.538C591.19 776.538 581.76 766.408 581.76 746.148C581.76 736.608 584.21 729.158 589.11 723.798C594.01 718.438 600.44 715.758 608.39 715.758C613.73 715.758 618.42 716.958 622.45 719.348C626.48 721.748 629.53 724.878 631.6 728.738C633.66 732.608 634.8 736.938 635.03 741.718C635.18 745.328 634.37 748.018 632.6 749.788C631.94 750.448 631.14 750.958 630.2 751.308C629.26 751.658 628.46 751.858 627.8 751.918C627.14 751.978 626.25 751.998 625.15 751.998H625.14ZM599.56 739.948H617.24C617.24 738.178 616.91 736.628 616.25 735.308C614.78 732.218 612.16 730.668 608.4 730.668C604.64 730.668 601.95 732.218 600.55 735.308C599.89 736.748 599.56 738.288 599.56 739.948Z" fill="#F9F6F2"/>
<path d="M676.08 771.226V767.136C672.76 770.456 668.49 772.106 663.26 772.106C657.51 772.106 652.87 770.336 649.34 766.806C646.87 764.336 645.33 761.506 644.73 758.326C644.12 755.136 643.82 750.346 643.82 743.936C643.82 737.526 644.12 732.726 644.73 729.546C645.34 726.356 646.88 723.536 649.34 721.066C652.88 717.526 657.55 715.766 663.37 715.766C666.28 715.766 668.74 716.206 670.75 717.096C672.76 717.976 674.72 719.376 676.64 721.296C678.48 717.756 681.32 715.996 685.15 715.996C686.95 715.996 688.57 716.406 689.99 717.216C691.41 718.026 692.45 719.096 693.11 720.426C693.59 721.386 693.89 722.356 694.02 723.356C694.15 724.346 694.21 725.986 694.21 728.276V771.596C694.21 778.666 691.75 784.466 686.83 789.006C681.91 793.536 675.42 795.806 667.35 795.806C661.09 795.806 655.82 794.626 651.55 792.266C647.72 790.166 645.8 787.476 645.8 784.196C645.8 782.096 646.54 780.316 648.01 778.866C649.48 777.406 651.1 776.686 652.87 776.686C654.64 776.686 656.77 777.236 659.06 778.346C662.12 779.816 664.59 780.556 666.46 780.556C669.78 780.556 672.21 779.676 673.75 777.906C675.3 776.136 676.07 773.926 676.07 771.276L676.08 771.226ZM665.72 755.066C666.62 755.526 667.72 755.756 669.01 755.756C670.3 755.756 671.39 755.526 672.3 755.066C673.2 754.606 673.89 754.046 674.37 753.376C674.85 752.716 675.23 751.806 675.5 750.666C675.78 749.526 675.94 748.476 676 747.516C676.06 746.556 676.08 745.366 676.08 743.926C676.08 742.486 676.05 741.296 676 740.336C675.94 739.376 675.78 738.326 675.5 737.186C675.22 736.046 674.84 735.146 674.37 734.476C673.89 733.816 673.2 733.256 672.3 732.786C671.4 732.326 670.3 732.096 669.01 732.096C667.72 732.096 666.63 732.326 665.72 732.786C664.82 733.246 664.13 733.806 663.65 734.476C663.17 735.146 662.79 736.046 662.52 737.186C662.24 738.326 662.08 739.376 662.02 740.336C661.96 741.296 661.94 742.496 661.94 743.926C661.94 745.356 661.97 746.556 662.02 747.516C662.08 748.476 662.24 749.526 662.52 750.666C662.8 751.806 663.17 752.706 663.65 753.376C664.13 754.046 664.82 754.596 665.72 755.066Z" fill="#F9F6F2"/>
<path d="M740.06 752.001V728.241C740.06 725.961 740.12 724.321 740.25 723.321C740.38 722.331 740.68 721.351 741.16 720.391C741.82 719.061 742.86 718.001 744.28 717.181C745.7 716.371 747.31 715.961 749.12 715.961C750.93 715.961 752.54 716.371 753.95 717.181C755.37 717.991 756.41 719.061 757.07 720.391C757.55 721.351 757.85 722.321 757.98 723.321C758.11 724.321 758.17 725.951 758.17 728.241V764.041C758.17 766.321 758.11 767.961 757.98 768.961C757.85 769.961 757.55 770.931 757.07 771.891C756.41 773.221 755.37 774.281 753.95 775.091C752.53 775.901 750.92 776.311 749.12 776.311C745.29 776.311 742.45 774.541 740.61 771.011C738.84 772.781 736.69 774.141 734.17 775.101C731.65 776.061 729.15 776.541 726.68 776.541C721.15 776.541 716.7 774.851 713.31 771.461C710.95 769.101 709.37 766.581 708.56 763.891C707.75 761.201 707.34 758.051 707.34 754.441V728.251C707.34 725.971 707.4 724.331 707.53 723.331C707.66 722.331 707.96 721.361 708.44 720.401C709.1 719.071 710.14 718.011 711.56 717.191C712.98 716.381 714.59 715.971 716.39 715.971C718.19 715.971 719.81 716.381 721.22 717.191C722.64 718.001 723.68 719.071 724.34 720.401C724.82 721.361 725.12 722.331 725.25 723.331C725.38 724.331 725.44 725.961 725.44 728.251V752.011C725.44 753.631 725.7 755.011 726.21 756.151C726.72 757.291 727.39 758.141 728.2 758.691C729.01 759.241 729.78 759.631 730.52 759.851C731.26 760.071 731.99 760.181 732.73 760.181C733.47 760.181 734.2 760.071 734.94 759.851C735.68 759.631 736.45 759.241 737.26 758.691C738.07 758.141 738.73 757.291 739.25 756.151C739.76 755.011 740.02 753.631 740.02 752.011L740.06 752.001Z" fill="#F9F6F2"/>
<path d="M771.89 764.052V728.252C771.89 725.972 771.95 724.332 772.08 723.332C772.21 722.342 772.51 721.362 772.99 720.402C773.65 719.072 774.69 718.012 776.11 717.192C777.53 716.382 779.14 715.972 780.95 715.972C784.78 715.972 787.62 717.742 789.46 721.272C790.97 719.762 792.9 718.462 795.24 717.372C797.58 716.282 799.98 715.742 802.45 715.742C806.46 715.742 809.8 716.662 812.45 718.502C815.18 720.422 816.54 722.772 816.54 725.572C816.54 728.222 815.62 730.472 813.78 732.312C812.16 733.932 810.13 734.742 807.7 734.742C806.04 734.742 804.2 734.262 802.17 733.302C800.44 732.492 798.89 732.082 797.53 732.082C796.76 732.082 795.98 732.202 795.21 732.442C794.44 732.682 793.64 733.082 792.81 733.632C791.98 734.182 791.31 735.032 790.79 736.172C790.27 737.312 790.02 738.682 790.02 740.262V764.022C790.02 766.302 789.96 767.942 789.83 768.942C789.7 769.942 789.4 770.912 788.92 771.872C788.26 773.202 787.22 774.262 785.8 775.072C784.38 775.882 782.77 776.292 780.97 776.292C779.17 776.292 777.55 775.882 776.13 775.072C774.71 774.262 773.67 773.192 773.01 771.872C772.53 770.912 772.23 769.942 772.1 768.942C771.97 767.952 771.91 766.312 771.91 764.022L771.89 764.052Z" fill="#F9F6F2"/>
<path d="M869.91 737.301V764.041C869.91 766.321 869.84 767.961 869.72 768.961C869.59 769.951 869.29 770.931 868.81 771.891C868.15 773.221 867.11 774.281 865.69 775.091C864.27 775.901 862.66 776.311 860.85 776.311C857.02 776.311 854.18 774.541 852.34 771.011C850.17 773.041 848.14 774.451 846.26 775.241C844.38 776.031 841.95 776.431 838.97 776.431C833 776.431 828.25 774.661 824.71 771.131C821.25 767.671 819.52 763.031 819.52 757.211C819.52 754.891 819.93 752.731 820.74 750.721C821.55 748.711 822.76 746.891 824.36 745.251C825.96 743.611 828.11 742.321 830.8 741.381C833.49 740.441 836.58 739.971 840.08 739.971H851.79V738.421C851.79 735.771 851.11 733.871 849.75 732.731C848.39 731.591 846.27 731.021 843.39 731.021C841.07 731.021 838.6 731.571 835.99 732.681C833.71 733.641 831.86 734.121 830.46 734.121C828.36 734.121 826.66 733.311 825.38 731.691C824.05 730.071 823.39 728.261 823.39 726.281C823.39 724.551 823.94 723.071 825.05 721.831C826.16 720.601 827.44 719.651 828.92 718.981C833.71 716.841 838.65 715.781 843.73 715.781C852.31 715.781 858.82 717.581 863.26 721.171C867.7 724.761 869.92 730.151 869.92 737.331L869.91 737.301ZM851.79 753.541V751.991H843.17C841.11 751.991 839.54 752.421 838.47 753.291C837.4 754.161 836.87 755.341 836.87 756.851C836.87 758.361 837.42 759.461 838.53 760.361C839.64 761.261 841.26 761.711 843.39 761.711C844.94 761.711 846.18 761.561 847.12 761.271C848.06 760.981 848.99 760.421 849.91 759.611C851.16 758.471 851.79 756.441 851.79 753.531V753.541Z" fill="#F9F6F2"/>
</svg>
