<svg width="740" height="592" viewBox="0 0 740 592" fill="none" xmlns="http://www.w3.org/2000/svg">
<path d="M523 445.63C523 446.93 521.27 446.93 521.7 448.65C509.17 448.65 496.65 450.38 484.55 449.08C478.93 448.65 473.32 447.78 468.14 447.78C466.84 443.46 465.12 439.57 462.96 436.12C457.78 421 450.87 408.04 445.25 392.49C442.23 385.58 438.77 379.53 437.04 371.32L428.4 349.29C421.92 331.58 412.85 314.73 404.64 296.16C403.34 292.7 401.18 289.68 400.75 285.79C399.45 285.36 399.02 282.77 398.59 281.47C398.16 312.57 399.02 340.65 399.45 370.45C399.45 375.63 399.45 380.82 399.88 386C399.88 391.62 400.74 396.8 400.74 401.98C400.74 405.87 399.88 409.75 399.88 413.21C398.58 424.01 398.58 435.24 398.58 446.04C396.85 446.47 395.99 445.61 395.56 447.34C380.44 452.52 363.16 450.36 346.32 447.34C345.02 444.32 344.59 437.4 346.32 435.25C345.02 432.23 345.46 427.91 345.46 424.88C345.89 419.26 346.32 413.22 345.89 407.6C345.46 401.98 344.59 396.8 344.59 392.05C344.16 385.57 345.02 379.96 345.45 373.48C345.88 362.68 344.59 353.61 345.02 341.95V308.69C345.02 303.51 345.88 298.32 345.45 293.57C345.02 279.75 346.31 265.06 346.31 249.94C345.88 217.11 344.58 184.28 346.31 147.57C360.13 145.41 378.27 143.68 393.39 145.84C393.82 147.14 394.25 146.27 395.55 146.7C400.3 154.04 402.89 163.11 405.92 171.75C414.13 183.85 417.58 199.39 424.06 212.79C429.24 224.45 434.43 235.68 439.18 247.35C448.25 271.54 457.75 294.43 469.42 316.46L471.15 289.25C471.58 279.32 471.15 270.68 470.72 260.74C470.72 241.73 471.15 222.3 470.72 202.86V191.2C470.72 174.35 470.29 161.83 470.72 146.28C488.43 143.26 506.14 142.82 522.12 147.58C522.55 157.52 522.55 166.59 522.55 176.52C522.55 186.45 522.98 195.96 522.98 205.89C522.55 215.83 521.68 225.76 521.68 235.7C522.98 268.53 519.95 303.52 521.25 332.89C521.68 340.23 521.25 348.01 521.25 356.22C521.68 371.34 521.68 386.89 522.98 402.01C523.41 417.13 521.68 431.38 522.98 445.64L523 445.63Z" fill="#27C5CD"/>
<path d="M739.83 299.631C739.83 316.911 738.97 330.301 739.4 344.551C739.83 351.031 739.4 357.941 738.97 364.851C738.97 368.311 737.67 371.761 739.83 373.921C739.4 388.171 734.65 402.001 729.03 413.661C722.55 425.761 713.48 433.531 703.11 441.741L689.72 446.061C686.7 446.491 683.24 446.061 680.22 446.491C678.92 446.491 677.2 446.921 675.9 446.921L660.35 447.781L621.04 449.941C610.67 449.941 601.17 449.941 592.1 449.511C589.08 449.081 586.48 449.941 583.46 449.511C581.73 448.211 582.6 447.351 579.57 447.781C578.27 439.141 577.84 431.801 577.41 423.591C576.98 421.861 577.84 420.571 577.84 418.841C577.84 415.381 577.41 411.931 577.41 408.471C577.41 392.921 577.84 378.661 578.27 363.111C578.27 357.491 577.84 351.451 577.84 344.971C577.84 338.491 577.41 332.441 577.41 325.961C577.41 321.211 579.14 316.461 577.84 311.711C577.84 310.411 577.41 309.551 577.41 308.251C576.98 306.091 577.41 303.931 577.41 300.911C577.41 294.001 576.98 284.061 577.41 276.721C577.41 265.061 576.55 252.101 576.98 240.441C577.41 227.051 577.41 213.661 576.12 200.271V191.631C575.69 179.101 577.85 162.261 576.55 148.431C576.98 147.131 579.57 147.131 579.57 145.411C601.6 144.111 628.38 144.551 653 146.271C658.18 146.271 663.37 146.271 668.12 146.701C674.6 148.001 681.08 149.291 687.99 148.861C692.74 151.881 698.79 153.611 703.54 156.641C704.84 157.071 705.27 158.371 706.56 158.801C710.02 160.961 713.04 161.391 716.06 164.421C720.81 167.881 722.54 170.901 726 176.081L730.75 183.861C732.48 188.611 733.34 193.791 735.07 198.981C736.37 204.161 738.09 209.351 738.53 214.531C739.83 226.191 738.96 236.561 738.53 248.651C738.53 260.311 739.39 271.981 739.83 283.641V299.621V299.631ZM686.7 377.811C688.43 366.151 687.56 353.191 686.27 342.391C687.57 335.051 686.27 328.571 685.84 320.361C685.84 315.611 686.7 311.721 686.27 306.971C685.84 302.221 685.84 298.331 685.84 293.581C687.14 280.191 685.41 267.231 685.84 253.841C685.84 237.861 689.73 217.121 681.52 204.171C679.36 201.151 676.34 198.991 671.59 197.261L667.7 195.531C657.33 192.511 645.24 196.831 633.58 195.531C632.28 212.381 633.58 230.951 633.15 244.341C632.72 249.961 633.15 255.141 633.15 260.751C633.15 269.821 632.29 279.321 632.29 289.261C632.29 299.201 632.72 309.561 632.72 318.631C632.72 331.161 634.02 343.681 633.58 357.071C633.15 370.461 634.44 384.711 633.15 398.971C640.06 400.271 647.84 398.971 653.02 400.271C662.09 399.841 672.46 397.251 678.94 393.791C680.953 392.637 682.393 391.054 683.26 389.041L686.72 377.811H686.7Z" fill="#27C5CD"/>
<path d="M255.48 241.482C241.05 241.482 231.15 243.162 231.15 243.162C231.15 243.162 231.1 291.102 231.1 329.702C231.1 368.302 221.53 395.492 187.53 395.492C169.96 395.492 156.24 389.352 142.78 370.722C137.06 362.492 131.86 351.802 129.49 346.042L125.41 334.942C118.54 320.772 112.53 306.602 106.09 291.572C102.65 284.702 100.51 276.542 95.3503 270.962C100.07 264.522 102.22 258.512 106.94 252.062C108.23 249.052 110.38 247.342 112.09 245.192C113.81 242.182 115.1 240.472 116.38 237.462C118.1 234.452 120.25 232.742 121.96 230.592C122.39 229.302 122.82 228.012 123.68 227.152C125.83 223.712 128.83 221.142 130.12 217.272C138.28 208.252 143.86 196.662 150.73 186.782L154.17 182.912L157.18 176.902L161.05 171.322C164.06 166.602 164.92 162.732 167.92 159.302C167.92 155.862 169.64 154.152 170.07 151.142C168.78 149.852 168.78 148.992 168.35 147.702C156.76 147.702 145.16 144.262 133.57 145.552C127.13 144.262 120.26 145.982 113.82 145.982C113.39 147.702 112.1 148.562 110.81 150.272C109.52 151.562 110.38 152.852 109.09 154.132C105.23 161.432 100.07 168.302 94.9203 175.172C92.7703 179.032 91.0603 182.902 88.9103 186.332C83.7603 193.632 79.8903 200.502 75.1703 207.802C68.7303 219.392 62.2903 230.132 54.1303 240.012C53.7003 227.992 54.9903 208.662 54.5603 193.202L53.7003 148.112C48.9803 146.392 44.2503 146.392 39.5303 145.962C38.2403 145.962 36.5203 145.102 35.2403 145.102C31.3803 143.812 24.9303 143.812 20.2103 144.242C13.7703 145.532 6.04027 145.532 0.460266 149.392C0.460266 165.282 0.460274 179.452 0.890274 196.202C0.890274 200.062 0.460266 205.222 0.460266 210.372C0.890266 225.832 0.0302661 241.292 0.460266 256.752C0.460266 259.762 0.460274 262.762 0.890274 265.772C0.890274 272.212 0.460273 278.652 0.0302734 285.092C0.0302734 288.102 0.890274 289.812 0.890274 291.962C0.890274 299.262 1.32027 306.992 0.890274 314.292C0.890274 333.612 0.460274 351.652 0.890274 371.832C2.18027 397.602 -0.829734 422.072 0.460266 448.272C2.18027 449.562 3.47027 447.412 5.18027 446.982C8.19027 446.552 11.1903 448.272 14.6303 448.272C15.9203 448.272 15.4903 447.842 16.7803 447.842C18.0703 447.842 18.5003 448.272 19.7903 448.272C24.9403 448.702 30.5303 448.272 35.6803 447.842C40.8303 447.842 45.9903 448.702 51.5703 448.702C52.0003 447.412 53.2903 448.272 54.5803 446.982C58.0203 414.342 52.8603 386.432 54.1503 355.512C54.1503 349.072 54.1503 343.492 54.5803 337.042L55.0103 336.612C55.4403 334.892 57.5903 332.752 58.8703 331.032L62.7303 325.022L74.7403 349.842L90.4403 384.302C106.14 418.762 129.07 442.382 162.95 448.492C196.83 454.602 230.54 445.622 253.63 425.282C276.72 404.932 278.5 360.812 278.5 360.812V248.962C278.5 241.942 269.93 241.452 255.5 241.452L255.48 241.482Z" fill="#27C5CD"/>
<path d="M252.511 176.43L206.471 259.85C205.441 261.71 207.201 263.86 209.331 263.34L254.751 252.37L300.171 263.34C302.301 263.85 304.061 261.71 303.031 259.85L256.991 176.43C256.041 174.7 253.461 174.7 252.501 176.43H252.511Z" fill="#27C5CD"/>
<path d="M198.97 207.09C197.98 207.09 197.05 206.51 196.64 205.54C196.1 204.26 196.71 202.78 197.99 202.24L219.71 193.13C220.99 192.59 222.47 193.2 223.01 194.48C223.55 195.76 222.94 197.24 221.66 197.78L199.94 206.89C199.62 207.02 199.29 207.09 198.97 207.09Z" fill="#27C5CD"/>
<path d="M220.681 174.111C220.371 174.111 220.051 174.051 219.741 173.931L198.031 165.171C196.741 164.651 196.111 163.181 196.631 161.891C197.151 160.601 198.621 159.981 199.911 160.491L221.621 169.251C222.911 169.771 223.541 171.241 223.021 172.531C222.621 173.511 221.681 174.111 220.681 174.111Z" fill="#27C5CD"/>
<path d="M240.361 158.584C239.351 158.584 238.401 157.974 238.011 156.984L229.421 135.024C228.911 133.724 229.551 132.264 230.851 131.754C232.151 131.244 233.611 131.884 234.121 133.184L242.711 155.144C243.221 156.444 242.58 157.904 241.28 158.414C240.98 158.534 240.671 158.584 240.361 158.584Z" fill="#27C5CD"/>
<path d="M269.56 158.802C269.23 158.802 268.88 158.732 268.56 158.592C267.28 158.042 266.7 156.552 267.25 155.272L276.87 133.092C277.42 131.812 278.91 131.232 280.19 131.782C281.47 132.332 282.05 133.822 281.5 135.102L271.88 157.282C271.47 158.232 270.54 158.802 269.57 158.802H269.56Z" fill="#27C5CD"/>
<path d="M290.29 175.744C289.28 175.744 288.32 175.124 287.93 174.124C287.43 172.824 288.08 171.364 289.38 170.864L309.75 163.044C311.05 162.544 312.51 163.194 313.01 164.494C313.51 165.794 312.86 167.254 311.56 167.754L291.19 175.574C290.89 175.684 290.59 175.744 290.29 175.744Z" fill="#27C5CD"/>
<path d="M310.66 208.711C310.31 208.711 309.95 208.641 309.61 208.481L288.86 198.911C287.59 198.331 287.04 196.831 287.63 195.561C288.21 194.291 289.71 193.741 290.98 194.331L311.73 203.901C313 204.481 313.55 205.981 312.96 207.251C312.54 208.171 311.62 208.721 310.67 208.721L310.66 208.711Z" fill="#27C5CD"/>
<path d="M48.95 91.2895H13.67C12.14 91.2895 10.94 91.2595 10.05 91.1895C9.16 91.1195 8.02999 90.8495 6.64999 90.3595C5.26999 89.8695 4.1 89.1395 3.12 88.1695C2.14 87.1995 1.40999 86.0195 0.929993 84.6395C0.439993 83.2595 0.169991 82.1295 0.0999908 81.2395C0.0399908 80.3495 0 79.1395 0 77.6195V14.4395C0 12.9095 0.0299908 11.7095 0.0999908 10.8195C0.159991 9.92952 0.439993 8.79953 0.929993 7.41953C1.41999 6.03953 2.15 4.86953 3.12 3.88953C4.09 2.91953 5.26999 2.17952 6.64999 1.69952C8.02999 1.20952 9.16 0.939522 10.05 0.869522C10.94 0.799522 12.15 0.769531 13.67 0.769531H48.95C51.37 0.769531 53.12 0.839532 54.23 0.989532C55.33 1.13953 56.41 1.46952 57.47 1.97952C58.91 2.65952 60.08 3.78953 60.97 5.37953C61.86 6.96953 62.3 8.73953 62.3 10.6895C62.3 12.6395 61.85 14.4095 60.97 15.9995C60.08 17.5895 58.91 18.7195 57.47 19.3995C56.41 19.9095 55.33 20.2395 54.23 20.3895C53.13 20.5395 51.37 20.6095 48.95 20.6095H22.38V35.7395H43.23C45.65 35.7395 47.4 35.8095 48.51 35.9595C49.61 36.1095 50.69 36.4395 51.75 36.9495C53.19 37.6295 54.36 38.7595 55.25 40.3495C56.14 41.9395 56.58 43.7095 56.58 45.6595C56.58 47.6095 56.13 49.3795 55.25 50.9695C54.36 52.5595 53.19 53.6895 51.75 54.3695C50.69 54.8795 49.61 55.2095 48.51 55.3495C47.41 55.4995 45.65 55.5695 43.23 55.5695H22.38V71.4595H48.95C51.37 71.4595 53.12 71.5295 54.23 71.6795C55.33 71.8295 56.41 72.1595 57.47 72.6695C58.91 73.3495 60.08 74.4795 60.97 76.0695C61.86 77.6595 62.3 79.4295 62.3 81.3795C62.3 83.3295 61.85 85.0995 60.97 86.6895C60.08 88.2795 58.91 89.4095 57.47 90.0895C56.41 90.5995 55.33 90.9295 54.23 91.0695C53.13 91.2195 51.37 91.2895 48.95 91.2895Z" fill="#FF6801"/>
<path d="M108.63 56.33L97.7 54.8C89.65 53.66 83.59 50.99 79.52 46.79C75.37 42.51 73.29 36.45 73.29 28.61C73.29 20.18 76.27 13.3 82.22 7.98C88.17 2.66 96.21 0 106.34 0C113.46 0 119.94 1.13999 125.79 3.42999C128.67 4.56999 130.94 6.09 132.59 7.97C134.24 9.86 135.07 11.99 135.07 14.36C135.07 16.73 134.18 19.11 132.4 21.22C130.75 23.25 128.59 24.27 125.92 24.27C124.1 24.27 121.47 23.55 118.04 22.11C114.06 20.42 109.95 19.57 105.71 19.57C102.15 19.57 99.44 20.36 97.57 21.95C95.7 23.54 94.77 25.29 94.77 27.19C94.77 29.22 95.36 30.84 96.55 32.02C97.95 33.42 100.02 34.31 102.78 34.69L113.71 36.22C121.72 37.36 127.65 39.87 131.51 43.72C136 48.08 138.25 54.7 138.25 63.55C138.25 69.48 136.65 74.64 133.45 79.03C130.25 83.42 126.05 86.68 120.83 88.82C115.62 90.96 109.77 92.03 103.29 92.03C94.6 92.03 87.7 91.01 82.57 88.98C78.59 87.41 75.62 85.64 73.67 83.67C71.72 81.7 70.75 79.15 70.75 76.01C70.75 73.21 71.77 70.8 73.8 68.76C75.41 67.15 77.44 66.34 79.9 66.34C80.96 66.34 82.03 66.52 83.11 66.88C84.19 67.24 86 67.95 88.54 69.01C93.67 71.21 98.62 72.32 103.41 72.32C107.73 72.32 110.97 71.61 113.13 70.19C115.29 68.77 116.37 66.73 116.37 64.06C116.37 61.81 115.78 60.04 114.59 58.72C113.32 57.45 111.33 56.64 108.62 56.3L108.63 56.33Z" fill="#FF6801"/>
<path d="M152.62 76.8012V14.4512C152.62 12.9212 152.65 11.7213 152.72 10.8313C152.78 9.94125 153.06 8.81124 153.55 7.43124C154.04 6.05124 154.77 4.88125 155.74 3.90125C156.71 2.93125 157.89 2.19124 159.27 1.71124C160.65 1.22124 161.78 0.951256 162.67 0.881256C163.56 0.811256 164.77 0.78125 166.29 0.78125H188.6C193.47 0.78125 197.9 1.60125 201.88 3.23125C205.86 4.86125 209.12 7.04125 211.64 9.78125C214.16 12.5113 216.1 15.6112 217.46 19.0612C218.82 22.5112 219.49 26.1312 219.49 29.9012C219.49 33.6712 218.81 37.2813 217.46 40.7413C216.1 44.1913 214.17 47.2913 211.64 50.0213C209.12 52.7513 205.87 54.9413 201.88 56.5713C197.9 58.2013 193.47 59.0212 188.6 59.0212H175V76.8213C175 79.5813 174.93 81.5313 174.78 82.7013C174.63 83.8713 174.24 85.0813 173.6 86.3513C172.79 87.9613 171.51 89.2713 169.75 90.2913C167.99 91.3113 166.01 91.8213 163.81 91.8213C161.61 91.8213 159.62 91.3113 157.87 90.2913C156.11 89.2713 154.83 87.9613 154.02 86.3513C153.38 85.0813 152.99 83.8613 152.84 82.7013C152.69 81.5413 152.62 79.5813 152.62 76.8213V76.8012ZM174.99 39.1712H187.57C190.49 39.1712 192.83 38.2513 194.59 36.4113C196.35 34.5713 197.23 32.4013 197.23 29.8913C197.23 27.3813 196.35 25.2212 194.59 23.3712C192.83 21.5312 190.49 20.6013 187.57 20.6013H174.99V39.1613V39.1712Z" fill="#FF6801"/>
<path d="M221.39 74.2613L245.54 10.1313C246.9 6.57126 248.44 4.11125 250.18 2.76125C252.26 1.11125 254.88 0.28125 258.06 0.28125C261.24 0.28125 263.87 1.11125 265.94 2.76125C267.68 4.12125 269.22 6.57126 270.58 10.1313L294.73 74.2613C295.58 76.5513 296.16 78.3413 296.48 79.6313C296.8 80.9213 296.8 82.3812 296.48 84.0212C296.16 85.6512 295.32 87.1513 293.97 88.5013C291.77 90.7013 289.1 91.8112 285.96 91.8112C283.42 91.8112 281.32 91.0512 279.67 89.5212C278.74 88.6712 277.99 87.7213 277.41 86.6613C276.84 85.6013 276.13 83.8913 275.28 81.5113L273.95 77.8213H242.17L240.84 81.5113C239.99 83.8813 239.28 85.6013 238.71 86.6613C238.14 87.7213 237.39 88.6712 236.45 89.5212C234.8 91.0512 232.7 91.8112 230.16 91.8112C227.02 91.8112 224.35 90.7113 222.15 88.5013C220.79 87.1413 219.96 85.6512 219.64 84.0212C219.32 82.3912 219.32 80.9313 219.64 79.6313C219.96 78.3413 220.54 76.5513 221.39 74.2613ZM267.22 59.2613L258.07 34.0912L248.92 59.2613H267.23H267.22Z" fill="#FF6801"/>
<path d="M304.12 54.9C304.06 52.85 304.02 49.89 304.02 46.03C304.02 42.17 304.05 39.22 304.12 37.16C304.18 35.1 304.37 32.56 304.69 29.53C305.01 26.5 305.47 24.02 306.09 22.09C306.7 20.16 307.63 18.1 308.85 15.89C310.08 13.69 311.58 11.7 313.36 9.92C319.97 3.31 328.3 0 338.34 0C343.89 0 348.38 0.519998 351.82 1.56C355.25 2.6 358.37 4.37 361.16 6.87C364.25 9.67 366.46 12.56 367.77 15.55C369.08 18.54 369.74 21.24 369.74 23.65C369.74 27.21 368.7 30.03 366.63 32.1C364.55 34.18 361.99 35.21 358.94 35.21C356.57 35.21 354.57 34.64 352.96 33.49C351.1 32.22 349.13 29.74 347.05 26.05C345.78 23.8 344.43 22.2 343.01 21.25C341.59 20.3 339.86 19.82 337.83 19.82C334.48 19.82 331.81 21.13 329.82 23.76C328.46 25.54 327.55 27.88 327.09 30.78C326.62 33.68 326.39 38.76 326.39 46C326.39 53.24 326.62 58.32 327.09 61.22C327.56 64.12 328.47 66.46 329.82 68.24C331.81 70.87 334.48 72.18 337.83 72.18C339.86 72.18 341.59 71.7 343.01 70.75C344.43 69.8 345.78 68.2 347.05 65.95C349.13 62.26 351.1 59.78 352.96 58.51C354.57 57.37 356.56 56.79 358.94 56.79C361.99 56.79 364.55 57.83 366.63 59.9C368.71 61.98 369.74 64.79 369.74 68.35C369.74 70.77 369.08 73.47 367.77 76.45C366.46 79.44 364.25 82.33 361.16 85.13C358.36 87.63 355.25 89.4 351.82 90.44C348.39 91.48 343.9 92 338.34 92C328.3 92 319.97 88.69 313.36 82.08C311.58 80.3 310.08 78.31 308.85 76.11C307.62 73.91 306.7 71.84 306.09 69.91C305.47 67.98 305.01 65.5 304.69 62.47C304.37 59.44 304.18 56.9 304.12 54.84V54.9Z" fill="#FF6801"/>
<path d="M383.79 76.7995V15.2695C383.79 12.5195 383.86 10.5595 384.01 9.38953C384.16 8.22953 384.55 7.00953 385.19 5.73953C385.99 4.12953 387.28 2.81953 389.04 1.79953C390.8 0.77953 392.78 0.269531 394.98 0.269531C397.18 0.269531 399.16 0.77953 400.92 1.79953C402.68 2.81953 403.96 4.12953 404.77 5.73953C405.41 7.00953 405.8 8.22953 405.95 9.38953C406.1 10.5595 406.17 12.5195 406.17 15.2695V76.7995C406.17 79.5595 406.1 81.5095 405.95 82.6795C405.8 83.8495 405.41 85.0595 404.77 86.3295C403.96 87.9395 402.68 89.2495 400.92 90.2695C399.16 91.2895 397.18 91.7995 394.98 91.7995C392.78 91.7995 390.79 91.2895 389.04 90.2695C387.28 89.2495 386 87.9395 385.19 86.3295C384.55 85.0595 384.16 83.8395 384.01 82.6795C383.86 81.5195 383.79 79.5595 383.79 76.7995Z" fill="#FF6801"/>
<path d="M481.1 82.14C477.75 85.49 474.06 87.98 470.01 89.61C465.96 91.24 461.25 92.06 455.87 92.06C450.49 92.06 445.77 91.24 441.73 89.61C437.68 87.98 433.98 85.49 430.64 82.14C428.86 80.36 427.36 78.37 426.13 76.17C424.9 73.97 423.98 71.9 423.37 69.97C422.75 68.04 422.29 65.56 421.97 62.53C421.65 59.5 421.46 56.96 421.4 54.9C421.34 52.85 421.3 49.89 421.3 46.03C421.3 42.17 421.33 39.22 421.4 37.16C421.46 35.1 421.65 32.56 421.97 29.53C422.29 26.5 422.75 24.02 423.37 22.09C423.98 20.16 424.91 18.1 426.13 15.89C427.36 13.69 428.86 11.7 430.64 9.92C433.99 6.57 437.68 4.08 441.73 2.45C445.78 0.819997 450.49 0 455.87 0C461.25 0 465.96 0.819997 470.01 2.45C474.06 4.08 477.75 6.57 481.1 9.92C482.88 11.7 484.38 13.69 485.61 15.89C486.84 18.09 487.76 20.16 488.37 22.09C488.98 24.02 489.45 26.5 489.77 29.53C490.09 32.56 490.28 35.1 490.34 37.16C490.4 39.22 490.43 42.17 490.43 46.03C490.43 49.89 490.4 52.84 490.34 54.9C490.28 56.96 490.09 59.5 489.77 62.53C489.45 65.56 488.98 68.04 488.37 69.97C487.75 71.9 486.83 73.96 485.61 76.17C484.38 78.37 482.88 80.36 481.1 82.14ZM464.77 68.16C465.96 66.59 466.8 64.41 467.31 61.61C467.82 58.81 468.07 53.62 468.07 46.04C468.07 38.46 467.82 33.23 467.31 30.37C466.8 27.51 465.95 25.32 464.77 23.79C463.88 22.65 462.66 21.7 461.11 20.96C459.56 20.22 457.82 19.85 455.87 19.85C453.92 19.85 452.17 20.22 450.63 20.96C449.08 21.7 447.87 22.64 446.98 23.79C445.79 25.32 444.95 27.51 444.44 30.37C443.93 33.23 443.68 38.45 443.68 46.04C443.68 53.63 443.93 58.82 444.44 61.61C444.95 64.41 445.8 66.59 446.98 68.16C449.06 70.87 452.02 72.23 455.88 72.23C459.74 72.23 462.7 70.87 464.78 68.16H464.77Z" fill="#FF6801"/>
<path d="M21.7603 559.051V510.201H13.6403C11.5403 510.201 10.0103 510.141 9.05028 510.011C8.09028 509.881 7.15027 509.601 6.23027 509.151C4.98027 508.561 3.96028 507.571 3.19028 506.191C2.42028 504.811 2.03027 503.271 2.03027 501.581C2.03027 499.891 2.42028 498.351 3.19028 496.971C3.96028 495.591 4.98027 494.601 6.23027 494.011C7.15027 493.571 8.09028 493.281 9.05028 493.151C10.0103 493.021 11.5403 492.961 13.6403 492.961H49.3303C51.4303 492.961 52.9603 493.031 53.9203 493.151C54.8803 493.281 55.8203 493.561 56.7403 494.011C57.9903 494.601 59.0103 495.581 59.7803 496.971C60.5503 498.351 60.9403 499.891 60.9403 501.581C60.9403 503.271 60.5503 504.811 59.7803 506.191C59.0103 507.571 57.9903 508.561 56.7403 509.151C55.8203 509.591 54.8803 509.881 53.9203 510.011C52.9603 510.141 51.4303 510.201 49.3303 510.201H41.2103V559.051C41.2103 561.441 41.1503 563.151 41.0203 564.161C40.8903 565.171 40.5503 566.231 40.0003 567.341C39.3003 568.741 38.1803 569.881 36.6603 570.771C35.1303 571.651 33.4103 572.101 31.4903 572.101C29.5703 572.101 27.8503 571.661 26.3203 570.771C24.7903 569.891 23.6803 568.741 22.9803 567.341C22.4303 566.231 22.0903 565.181 21.9603 564.161C21.8303 563.151 21.7703 561.441 21.7703 559.051H21.7603Z" fill="#FF6801"/>
<path d="M98.1702 547.778V524.018C98.1702 521.738 98.2302 520.098 98.3602 519.098C98.4902 518.108 98.7902 517.128 99.2702 516.168C99.9302 514.838 100.97 513.778 102.39 512.958C103.81 512.148 105.42 511.738 107.23 511.738C109.04 511.738 110.65 512.148 112.06 512.958C113.48 513.768 114.52 514.838 115.18 516.168C115.66 517.128 115.96 518.098 116.09 519.098C116.22 520.098 116.28 521.728 116.28 524.018V559.818C116.28 562.098 116.22 563.738 116.09 564.738C115.96 565.738 115.66 566.708 115.18 567.668C114.52 568.998 113.48 570.058 112.06 570.868C110.64 571.678 109.03 572.088 107.23 572.088C103.4 572.088 100.56 570.318 98.7202 566.788C96.9502 568.558 94.8002 569.918 92.2802 570.878C89.7602 571.838 87.2602 572.318 84.7902 572.318C79.2602 572.318 74.8102 570.628 71.4202 567.238C69.0602 564.878 67.4802 562.358 66.6702 559.668C65.8602 556.978 65.4502 553.828 65.4502 550.218V524.028C65.4502 521.748 65.5102 520.108 65.6402 519.108C65.7702 518.108 66.0702 517.138 66.5502 516.178C67.2102 514.848 68.2502 513.788 69.6702 512.968C71.0902 512.158 72.7002 511.748 74.5002 511.748C76.3002 511.748 77.9202 512.158 79.3302 512.968C80.7502 513.778 81.7902 514.848 82.4502 516.178C82.9302 517.138 83.2302 518.108 83.3602 519.108C83.4902 520.108 83.5502 521.738 83.5502 524.028V547.788C83.5502 549.408 83.8102 550.788 84.3202 551.928C84.8302 553.068 85.5002 553.918 86.3102 554.468C87.1202 555.018 87.8902 555.408 88.6302 555.628C89.3702 555.848 90.1002 555.958 90.8402 555.958C91.5802 555.958 92.3102 555.848 93.0502 555.628C93.7902 555.408 94.5602 555.018 95.3702 554.468C96.1802 553.918 96.8402 553.068 97.3602 551.928C97.8702 550.788 98.1302 549.408 98.1302 547.788L98.1702 547.778Z" fill="#FF6801"/>
<path d="M200.83 533.079V559.819C200.83 562.099 200.76 563.739 200.64 564.739C200.51 565.729 200.21 566.709 199.73 567.669C199.07 568.999 198.03 570.059 196.61 570.869C195.19 571.679 193.58 572.089 191.77 572.089C187.94 572.089 185.1 570.319 183.26 566.789C181.09 568.819 179.06 570.229 177.18 571.019C175.3 571.809 172.87 572.209 169.89 572.209C163.92 572.209 159.17 570.439 155.63 566.909C152.09 563.379 150.44 558.809 150.44 552.989C150.44 550.669 150.85 548.509 151.66 546.499C152.47 544.489 153.68 542.669 155.28 541.029C156.88 539.389 159.03 538.099 161.72 537.159C164.41 536.219 167.5 535.749 171 535.749H182.71V534.199C182.71 531.549 182.03 529.649 180.67 528.509C179.31 527.369 177.19 526.799 174.31 526.799C171.99 526.799 169.52 527.349 166.91 528.459C164.63 529.419 162.78 529.899 161.38 529.899C159.28 529.899 157.58 529.089 156.3 527.469C154.97 525.849 154.31 524.039 154.31 522.059C154.31 520.329 154.86 518.849 155.97 517.609C157.08 516.379 158.36 515.429 159.84 514.759C164.63 512.619 169.57 511.559 174.65 511.559C183.23 511.559 189.74 513.359 194.18 516.949C198.62 520.539 200.84 525.929 200.84 533.109L200.83 533.079ZM182.71 549.319V547.769H174.09C172.03 547.769 170.46 548.199 169.39 549.069C168.32 549.939 167.79 551.119 167.79 552.629C167.79 554.139 168.34 555.239 169.45 556.139C170.56 557.039 172.18 557.489 174.31 557.489C175.86 557.489 177.1 557.339 178.04 557.049C178.98 556.759 179.91 556.199 180.83 555.389C182.08 554.249 182.71 552.219 182.71 549.309V549.319Z" fill="#FF6801"/>
<path d="M246.14 547.778V524.018C246.14 521.738 246.2 520.098 246.33 519.098C246.46 518.108 246.76 517.128 247.24 516.168C247.9 514.838 248.94 513.778 250.36 512.958C251.78 512.148 253.39 511.738 255.2 511.738C257.01 511.738 258.62 512.148 260.03 512.958C261.45 513.768 262.49 514.838 263.15 516.168C263.63 517.128 263.93 518.098 264.06 519.098C264.19 520.098 264.25 521.728 264.25 524.018V559.818C264.25 562.098 264.19 563.738 264.06 564.738C263.93 565.738 263.63 566.708 263.15 567.668C262.49 568.998 261.45 570.058 260.03 570.868C258.61 571.678 257 572.088 255.2 572.088C251.37 572.088 248.53 570.318 246.69 566.788C244.92 568.558 242.77 569.918 240.25 570.878C237.73 571.838 235.23 572.318 232.76 572.318C227.23 572.318 222.78 570.628 219.39 567.238C217.03 564.878 215.45 562.358 214.64 559.668C213.83 556.978 213.42 553.828 213.42 550.218V524.028C213.42 521.748 213.48 520.108 213.61 519.108C213.74 518.108 214.04 517.138 214.52 516.178C215.18 514.848 216.22 513.788 217.64 512.968C219.06 512.158 220.67 511.748 222.47 511.748C224.27 511.748 225.89 512.158 227.3 512.968C228.72 513.778 229.76 514.848 230.42 516.178C230.9 517.138 231.2 518.108 231.33 519.108C231.46 520.108 231.52 521.738 231.52 524.028V547.788C231.52 549.408 231.78 550.788 232.29 551.928C232.8 553.068 233.47 553.918 234.28 554.468C235.09 555.018 235.86 555.408 236.6 555.628C237.34 555.848 238.07 555.958 238.81 555.958C239.55 555.958 240.28 555.848 241.02 555.628C241.76 555.408 242.53 555.018 243.34 554.468C244.15 553.918 244.81 553.068 245.33 551.928C245.84 550.788 246.1 549.408 246.1 547.788L246.14 547.778Z" fill="#FF6801"/>
<path d="M295.98 571.65H295.65C292.59 571.65 289.86 571.13 287.44 570.07C285.03 569.02 283.11 567.63 281.69 565.9C280.27 564.17 279.2 562.3 278.48 560.29C277.76 558.28 277.4 556.21 277.4 554.07V504.78C277.4 502.5 277.46 500.86 277.59 499.86C277.72 498.87 278.02 497.89 278.5 496.93C279.16 495.6 280.2 494.54 281.62 493.72C283.04 492.91 284.65 492.5 286.45 492.5C288.25 492.5 289.87 492.91 291.28 493.72C292.7 494.53 293.74 495.6 294.4 496.93C294.88 497.89 295.18 498.86 295.31 499.86C295.44 500.86 295.5 502.49 295.5 504.78V552.74C295.5 555.13 296.62 556.39 298.87 556.5C300.71 556.61 302.2 556.94 303.34 557.49C305.77 558.71 306.99 560.88 306.99 564.01C306.99 567.14 305.74 569.17 303.23 570.42C301.61 571.23 299.18 571.64 295.94 571.64L295.98 571.65Z" fill="#FF6801"/>
<path d="M360.96 533.079V559.819C360.96 562.099 360.89 563.739 360.77 564.739C360.64 565.729 360.34 566.709 359.86 567.669C359.2 568.999 358.16 570.059 356.74 570.869C355.32 571.679 353.71 572.089 351.9 572.089C348.07 572.089 345.23 570.319 343.39 566.789C341.22 568.819 339.19 570.229 337.31 571.019C335.43 571.809 333 572.209 330.02 572.209C324.05 572.209 319.3 570.439 315.76 566.909C312.22 563.379 310.57 558.809 310.57 552.989C310.57 550.669 310.98 548.509 311.79 546.499C312.6 544.489 313.81 542.669 315.41 541.029C317.01 539.389 319.16 538.099 321.85 537.159C324.54 536.219 327.63 535.749 331.13 535.749H342.84V534.199C342.84 531.549 342.16 529.649 340.8 528.509C339.44 527.369 337.32 526.799 334.44 526.799C332.12 526.799 329.65 527.349 327.04 528.459C324.76 529.419 322.91 529.899 321.51 529.899C319.41 529.899 317.71 529.089 316.43 527.469C315.1 525.849 314.44 524.039 314.44 522.059C314.44 520.329 314.99 518.849 316.1 517.609C317.21 516.379 318.49 515.429 319.97 514.759C324.76 512.619 329.7 511.559 334.78 511.559C343.36 511.559 349.87 513.359 354.31 516.949C358.75 520.539 360.97 525.929 360.97 533.109L360.96 533.079ZM342.84 549.319V547.769H334.22C332.16 547.769 330.59 548.199 329.52 549.069C328.45 549.939 327.92 551.119 327.92 552.629C327.92 554.139 328.47 555.239 329.58 556.139C330.69 557.039 332.31 557.489 334.44 557.489C335.99 557.489 337.23 557.339 338.17 557.049C339.11 556.759 340.04 556.199 340.96 555.389C342.21 554.249 342.84 552.219 342.84 549.309V549.319Z" fill="#FF6801"/>
<path d="M422.29 549.329L413.12 548.449C401.63 547.339 395.88 541.599 395.88 531.209C395.88 528.039 396.55 525.179 397.9 522.619C399.24 520.059 401.04 517.989 403.29 516.399C405.54 514.819 408.05 513.609 410.83 512.779C413.61 511.949 416.51 511.539 419.53 511.539C424.91 511.539 429.81 512.349 434.23 513.969C436.7 514.889 438.58 515.999 439.87 517.289C441.2 518.649 441.86 520.379 441.86 522.479C441.86 523.509 441.62 524.569 441.14 525.659C440.66 526.749 440.09 527.599 439.43 528.229C437.99 529.559 436.37 530.219 434.57 530.219C433.39 530.219 431.75 529.779 429.65 528.889C425.16 527.049 421.64 526.129 419.1 526.129C417.41 526.129 416.02 526.469 414.96 527.149C413.89 527.829 413.36 528.719 413.36 529.829C413.36 531.819 414.65 532.939 417.23 533.199L426.4 534.079C432.4 534.669 436.89 536.589 439.86 539.829C442.82 543.069 444.31 547.199 444.31 552.209C444.31 554.939 443.86 557.419 442.96 559.669C442.06 561.919 440.81 563.809 439.23 565.359C437.65 566.909 435.77 568.209 433.59 569.279C431.42 570.349 429.07 571.119 426.55 571.599C424.03 572.079 421.36 572.319 418.57 572.319C413.93 572.319 410.02 571.909 406.86 571.099C403.69 570.289 400.78 568.999 398.13 567.229C395.48 565.429 394.15 563.219 394.15 560.599C394.15 559.379 394.42 558.209 394.95 557.059C395.48 555.919 396.17 555.029 397.02 554.409C398.49 553.269 400.08 552.699 401.77 552.699C403.13 552.699 404.94 553.269 407.19 554.409C410.91 556.329 414.85 557.279 419.01 557.279C421.18 557.279 423 556.919 424.45 556.199C425.9 555.479 426.63 554.439 426.63 553.079C426.63 550.829 425.19 549.579 422.32 549.319L422.29 549.329Z" fill="#FF6801"/>
<path d="M495.061 547.779H469.481C469.481 550.359 470.441 552.569 472.351 554.409C474.261 556.249 476.881 557.169 480.201 557.169C483.521 557.169 486.421 556.289 489.151 554.519C491.471 552.969 493.571 552.199 495.451 552.199C497.181 552.199 498.811 552.949 500.341 554.439C501.871 555.929 502.631 557.689 502.631 559.719C502.631 562.559 500.751 565.279 496.991 567.899C492.721 570.849 487.041 572.319 479.971 572.319C461.111 572.319 451.681 562.189 451.681 541.929C451.681 532.389 454.131 524.939 459.031 519.579C463.931 514.219 470.361 511.539 478.311 511.539C483.651 511.539 488.341 512.739 492.371 515.129C496.401 517.529 499.451 520.659 501.521 524.519C503.581 528.389 504.721 532.719 504.951 537.499C505.101 541.109 504.291 543.799 502.521 545.569C501.861 546.229 501.061 546.739 500.121 547.089C499.181 547.439 498.381 547.639 497.721 547.699C497.061 547.759 496.171 547.779 495.071 547.779H495.061ZM469.481 535.729H487.161C487.161 533.959 486.831 532.409 486.171 531.089C484.701 527.999 482.081 526.449 478.321 526.449C474.561 526.449 471.871 527.999 470.471 531.089C469.811 532.529 469.481 534.069 469.481 535.729Z" fill="#FF6801"/>
<path d="M546 567.011V562.921C542.68 566.241 538.41 567.891 533.18 567.891C527.43 567.891 522.79 566.121 519.26 562.591C516.79 560.121 515.25 557.291 514.65 554.111C514.04 550.921 513.74 546.131 513.74 539.721C513.74 533.311 514.04 528.511 514.65 525.331C515.26 522.141 516.8 519.321 519.26 516.851C522.8 513.311 527.47 511.551 533.29 511.551C536.2 511.551 538.66 511.991 540.67 512.881C542.68 513.761 544.64 515.161 546.56 517.081C548.4 513.541 551.24 511.781 555.07 511.781C556.87 511.781 558.49 512.191 559.91 513.001C561.33 513.811 562.37 514.881 563.03 516.211C563.51 517.171 563.81 518.141 563.94 519.141C564.07 520.131 564.13 521.771 564.13 524.061V567.381C564.13 574.451 561.67 580.251 556.75 584.791C551.83 589.321 545.34 591.591 537.27 591.591C531.01 591.591 525.74 590.411 521.47 588.051C517.64 585.951 515.72 583.261 515.72 579.981C515.72 577.881 516.46 576.101 517.93 574.651C519.4 573.191 521.02 572.471 522.79 572.471C524.56 572.471 526.69 573.021 528.98 574.131C532.04 575.601 534.51 576.341 536.38 576.341C539.7 576.341 542.13 575.461 543.67 573.691C545.22 571.921 545.99 569.711 545.99 567.061L546 567.011ZM535.64 550.851C536.54 551.311 537.64 551.541 538.93 551.541C540.22 551.541 541.31 551.311 542.22 550.851C543.12 550.391 543.81 549.831 544.29 549.161C544.77 548.501 545.15 547.591 545.42 546.451C545.7 545.311 545.86 544.261 545.92 543.301C545.98 542.341 546 541.151 546 539.711C546 538.271 545.97 537.081 545.92 536.121C545.86 535.161 545.7 534.111 545.42 532.971C545.14 531.831 544.76 530.931 544.29 530.261C543.81 529.601 543.12 529.041 542.22 528.571C541.32 528.111 540.22 527.881 538.93 527.881C537.64 527.881 536.55 528.111 535.64 528.571C534.74 529.031 534.05 529.591 533.57 530.261C533.09 530.931 532.71 531.831 532.44 532.971C532.16 534.111 532 535.161 531.94 536.121C531.88 537.081 531.86 538.281 531.86 539.711C531.86 541.141 531.89 542.341 531.94 543.301C532 544.261 532.16 545.311 532.44 546.451C532.72 547.591 533.09 548.491 533.57 549.161C534.05 549.831 534.74 550.381 535.64 550.851Z" fill="#FF6801"/>
<path d="M609.981 547.778V524.018C609.981 521.738 610.041 520.098 610.171 519.098C610.301 518.108 610.601 517.128 611.081 516.168C611.741 514.838 612.781 513.778 614.201 512.958C615.621 512.148 617.231 511.738 619.041 511.738C620.851 511.738 622.461 512.148 623.871 512.958C625.291 513.768 626.331 514.838 626.991 516.168C627.471 517.128 627.771 518.098 627.901 519.098C628.031 520.098 628.091 521.728 628.091 524.018V559.818C628.091 562.098 628.031 563.738 627.901 564.738C627.771 565.738 627.471 566.708 626.991 567.668C626.331 568.998 625.291 570.058 623.871 570.868C622.451 571.678 620.841 572.088 619.041 572.088C615.211 572.088 612.371 570.318 610.531 566.788C608.761 568.558 606.611 569.918 604.091 570.878C601.571 571.838 599.071 572.318 596.601 572.318C591.071 572.318 586.621 570.628 583.231 567.238C580.871 564.878 579.291 562.358 578.481 559.668C577.671 556.978 577.261 553.828 577.261 550.218V524.028C577.261 521.748 577.321 520.108 577.451 519.108C577.581 518.108 577.881 517.138 578.361 516.178C579.021 514.848 580.061 513.788 581.481 512.968C582.901 512.158 584.511 511.748 586.311 511.748C588.111 511.748 589.731 512.158 591.141 512.968C592.561 513.778 593.601 514.848 594.261 516.178C594.741 517.138 595.041 518.108 595.171 519.108C595.301 520.108 595.361 521.738 595.361 524.028V547.788C595.361 549.408 595.621 550.788 596.131 551.928C596.641 553.068 597.311 553.918 598.121 554.468C598.931 555.018 599.701 555.408 600.441 555.628C601.181 555.848 601.911 555.958 602.651 555.958C603.391 555.958 604.121 555.848 604.861 555.628C605.601 555.408 606.371 555.018 607.181 554.468C607.991 553.918 608.651 553.068 609.171 551.928C609.681 550.788 609.941 549.408 609.941 547.788L609.981 547.778Z" fill="#FF6801"/>
<path d="M641.811 559.83V524.03C641.811 521.75 641.871 520.11 642.001 519.11C642.131 518.12 642.431 517.14 642.911 516.18C643.571 514.85 644.611 513.79 646.031 512.97C647.451 512.16 649.061 511.75 650.871 511.75C654.701 511.75 657.541 513.52 659.381 517.05C660.891 515.54 662.821 514.24 665.161 513.15C667.501 512.06 669.901 511.52 672.371 511.52C676.381 511.52 679.721 512.44 682.371 514.28C685.101 516.2 686.461 518.55 686.461 521.35C686.461 524 685.541 526.25 683.701 528.09C682.081 529.71 680.051 530.52 677.621 530.52C675.961 530.52 674.121 530.04 672.091 529.08C670.361 528.27 668.811 527.86 667.451 527.86C666.681 527.86 665.901 527.98 665.131 528.22C664.361 528.46 663.561 528.86 662.731 529.41C661.901 529.96 661.231 530.81 660.711 531.95C660.191 533.09 659.941 534.46 659.941 536.04V559.8C659.941 562.08 659.881 563.72 659.751 564.72C659.621 565.72 659.321 566.69 658.841 567.65C658.181 568.98 657.141 570.04 655.721 570.85C654.301 571.66 652.691 572.07 650.891 572.07C649.091 572.07 647.471 571.66 646.051 570.85C644.631 570.04 643.591 568.97 642.931 567.65C642.451 566.69 642.151 565.72 642.021 564.72C641.891 563.73 641.831 562.09 641.831 559.8L641.811 559.83Z" fill="#FF6801"/>
<path d="M739.83 533.079V559.819C739.83 562.099 739.76 563.739 739.64 564.739C739.51 565.729 739.21 566.709 738.73 567.669C738.07 568.999 737.03 570.059 735.61 570.869C734.19 571.679 732.58 572.089 730.77 572.089C726.94 572.089 724.1 570.319 722.26 566.789C720.09 568.819 718.06 570.229 716.18 571.019C714.3 571.809 711.87 572.209 708.89 572.209C702.92 572.209 698.17 570.439 694.63 566.909C691.17 563.449 689.44 558.809 689.44 552.989C689.44 550.669 689.85 548.509 690.66 546.499C691.47 544.489 692.68 542.669 694.28 541.029C695.88 539.389 698.03 538.099 700.72 537.159C703.41 536.219 706.5 535.749 710 535.749H721.71V534.199C721.71 531.549 721.03 529.649 719.67 528.509C718.31 527.369 716.19 526.799 713.31 526.799C710.99 526.799 708.52 527.349 705.91 528.459C703.63 529.419 701.78 529.899 700.38 529.899C698.28 529.899 696.58 529.089 695.3 527.469C693.97 525.849 693.31 524.039 693.31 522.059C693.31 520.329 693.86 518.849 694.97 517.609C696.08 516.379 697.36 515.429 698.84 514.759C703.63 512.619 708.57 511.559 713.65 511.559C722.23 511.559 728.74 513.359 733.18 516.949C737.62 520.539 739.84 525.929 739.84 533.109L739.83 533.079ZM721.71 549.319V547.769H713.09C711.03 547.769 709.46 548.199 708.39 549.069C707.32 549.939 706.79 551.119 706.79 552.629C706.79 554.139 707.34 555.239 708.45 556.139C709.56 557.039 711.18 557.489 713.31 557.489C714.86 557.489 716.1 557.339 717.04 557.049C717.98 556.759 718.91 556.199 719.83 555.389C721.08 554.249 721.71 552.219 721.71 549.309V549.319Z" fill="#FF6801"/>
</svg>
