<svg width="55" height="55" viewBox="0 0 55 55" fill="none" xmlns="http://www.w3.org/2000/svg">
<g clip-path="url(#clip0_53_415)">
<path fill-rule="evenodd" clip-rule="evenodd" d="M0 27.553C0 41.1754 9.89368 52.503 22.8333 54.8V35.0103H15.9833V27.4H22.8333V21.3104C22.8333 14.4604 27.247 10.6563 33.4897 10.6563C35.467 10.6563 37.5997 10.96 39.577 11.2637V18.2667H36.0767C32.727 18.2667 31.9667 19.9403 31.9667 22.073V27.4H39.2733L38.0563 35.0103H31.9667V54.8C44.9063 52.503 54.8 41.1776 54.8 27.553C54.8 12.3985 42.47 0 27.4 0C12.33 0 0 12.3985 0 27.553Z" fill="#FF6801"/>
</g>
<defs>
<clipPath id="clip0_53_415">
<rect width="54.8" height="54.8" fill="white"/>
</clipPath>
</defs>
</svg>
