<svg width="55" height="55" viewBox="0 0 55 55" fill="none" xmlns="http://www.w3.org/2000/svg">
<g clip-path="url(#clip0_53_420)">
<path d="M27.5328 54.8C23.8224 54.8 20.2725 54.0775 16.8832 52.6326C13.4939 51.1877 10.5773 49.2433 8.1334 46.7994C5.68952 44.3555 3.74512 41.4389 2.3002 38.0496C0.855273 34.6603 0.132812 31.1104 0.132812 27.4C0.132812 23.6896 0.855273 20.1397 2.3002 16.7504C3.74512 13.3611 5.68952 10.4445 8.1334 8.00059C10.5773 5.55671 13.4939 3.6123 16.8832 2.16738C20.2725 0.722461 23.8224 0 27.5328 0C31.2432 0 34.7931 0.722461 38.1824 2.16738C41.5717 3.6123 44.4883 5.55671 46.9322 8.00059C49.3761 10.4445 51.3205 13.3611 52.7654 16.7504C54.2104 20.1397 54.9328 23.6896 54.9328 27.4C54.9328 31.1104 54.2104 34.6603 52.7654 38.0496C51.3205 41.4389 49.3761 44.3555 46.9322 46.7994C44.4883 49.2433 41.5717 51.1877 38.1824 52.6326C34.7931 54.0775 31.2432 54.8 27.5328 54.8ZM41.2328 17.125C41.2328 16.1974 40.9028 15.3947 40.2428 14.7168C39.5827 14.0389 38.7711 13.7 37.8078 13.7H17.2578C16.3302 13.7 15.5275 14.0389 14.8496 14.7168C14.1717 15.3947 13.8328 16.1974 13.8328 17.125V20.55H19.9336C22.0029 18.2667 24.5359 17.125 27.5328 17.125C30.5297 17.125 33.0628 18.2667 35.132 20.55H41.2328V17.125ZM20.6828 27.4C20.6828 29.2909 21.3518 30.9053 22.6896 32.2432C24.0275 33.5811 25.6419 34.25 27.5328 34.25C29.4237 34.25 31.0381 33.5811 32.376 32.2432C33.7139 30.9053 34.3828 29.2909 34.3828 27.4C34.3828 25.5091 33.7139 23.8947 32.376 22.5568C31.0381 21.2189 29.4237 20.55 27.5328 20.55C25.6419 20.55 24.0275 21.2189 22.6896 22.5568C21.3518 23.8947 20.6828 25.5091 20.6828 27.4ZM41.2328 23.975H37.1656C37.5938 25.1523 37.8078 26.294 37.8078 27.4C37.8078 30.2542 36.8089 32.6802 34.8109 34.6781C32.813 36.676 30.387 37.675 27.5328 37.675C24.6786 37.675 22.2526 36.676 20.2547 34.6781C18.2568 32.6802 17.2578 30.2542 17.2578 27.4C17.2578 26.294 17.4719 25.1523 17.9 23.975H13.8328V37.675C13.8328 38.6383 14.1628 39.4499 14.8229 40.11C15.4829 40.77 16.2945 41.1 17.2578 41.1H37.8078C38.7711 41.1 39.5827 40.77 40.2428 40.11C40.9028 39.4499 41.2328 38.6383 41.2328 37.675V23.975Z" fill="#FF6801"/>
</g>
<defs>
<clipPath id="clip0_53_420">
<rect width="54.8" height="54.8" fill="white" transform="translate(0.132812)"/>
</clipPath>
</defs>
</svg>
