<svg width="55" height="55" viewBox="0 0 55 55" fill="none" xmlns="http://www.w3.org/2000/svg">
<path d="M27.4681 1.0957C12.9406 1.0957 1.16406 12.8722 1.16406 27.3997C1.16406 41.9272 12.9406 53.7037 27.4681 53.7037C41.9955 53.7037 53.7721 41.9272 53.7721 27.3997C53.7721 12.8722 41.9955 1.0957 27.4681 1.0957ZM38.1678 22.6431C38.1787 22.8677 38.1815 23.0924 38.1815 23.3116C38.1815 30.1616 32.9727 38.0556 23.443 38.0556C20.6271 38.0602 17.8698 37.2515 15.5025 35.7266C15.9053 35.7759 16.319 35.7951 16.7382 35.7951C19.1659 35.7951 21.399 34.9703 23.1717 33.5784C22.0914 33.5572 21.0446 33.1994 20.1772 32.5551C19.3099 31.9107 18.6651 31.0117 18.3329 29.9835C19.1088 30.131 19.908 30.1001 20.6701 29.8931C19.4975 29.656 18.443 29.0206 17.6855 28.0947C16.9279 27.1689 16.5138 26.0095 16.5135 24.8131V24.7501C17.2122 25.1365 18.0123 25.3721 18.8617 25.3995C17.7624 24.6677 16.9842 23.5436 16.6863 22.2571C16.3883 20.9705 16.5931 19.6188 17.2588 18.4783C18.5602 20.0784 20.1831 21.3874 22.0225 22.3206C23.8619 23.2537 25.8767 23.7902 27.9366 23.8952C27.6747 22.7836 27.7874 21.6167 28.2572 20.5757C28.727 19.5348 29.5275 18.6783 30.5343 18.1392C31.5411 17.6002 32.6978 17.4089 33.8246 17.5951C34.9513 17.7813 35.985 18.3345 36.7649 19.1687C37.9244 18.9393 39.0363 18.514 40.0529 17.9111C39.6664 19.1116 38.8574 20.131 37.7759 20.7799C38.803 20.6562 39.8059 20.38 40.7516 19.9606C40.057 21.0015 39.1819 21.9099 38.1678 22.6431Z" fill="#FF6801"/>
</svg>
