<svg width="500" height="500" viewBox="0 0 500 500" fill="none" xmlns="http://www.w3.org/2000/svg">
<circle cx="250" cy="250" r="250" fill="#FDE396"/>
<path d="M258.069 407.826C249.108 407.826 239.188 407.335 228.717 406.002C205.391 403.039 184.247 396.501 165.867 386.56C142.794 374.084 124.084 356.222 110.259 333.474C98.929 314.83 91.4713 295.2 88.1004 275.129C85.0986 257.245 85.3135 238.975 88.7504 220.832C94.4401 190.759 109.278 161.005 129.459 139.194C131.161 137.354 134.036 137.244 135.876 138.946C137.716 140.648 137.826 143.523 136.124 145.363C107.075 176.758 70.5743 250.712 118.014 328.76C141.582 367.535 179.119 390.481 229.582 396.958C267.603 401.838 299.064 395.014 299.378 394.943C301.829 394.403 304.253 395.945 304.798 398.391C305.344 400.836 303.801 403.265 301.356 403.81C300.375 404.031 282.943 407.826 258.064 407.826H258.069Z" fill="#F9CF1C"/>
<path d="M142.6 164.576L158.424 122.148L113.766 129.656L142.6 164.576Z" fill="#F9CF1C"/>
<path d="M359.981 373.252C358.813 373.252 357.646 372.806 356.759 371.908C354.991 370.129 355.007 367.254 356.786 365.486C383.12 339.373 423.223 283.632 395.942 203.68C377.821 150.583 341.023 125.506 313.346 113.818C274.482 97.41 232.401 98.5667 212.545 107.985C210.276 109.059 207.572 108.095 206.498 105.826C205.424 103.562 206.387 100.852 208.657 99.7784C230.837 89.2583 275.137 87.8263 316.882 105.452C346.272 117.861 385.334 144.464 404.54 200.744C417.142 237.669 417.473 273.371 405.531 306.854C394.995 336.393 376.687 358.551 363.187 371.935C362.3 372.811 361.143 373.252 359.992 373.252H359.981Z" fill="#31C2C9"/>
<path d="M379.414 381.311L334.871 389.474L350.067 346.82L379.414 381.311Z" fill="#31C2C9"/>
<path d="M158.422 399.375C194.241 399.375 223.278 370.339 223.278 334.52C223.278 298.701 194.241 269.664 158.422 269.664C122.603 269.664 93.5664 298.701 93.5664 334.52C93.5664 370.339 122.603 399.375 158.422 399.375Z" fill="#F9CF1C"/>
<path d="M329.695 227.946C365.514 227.946 394.551 198.909 394.551 163.09C394.551 127.271 365.514 98.2344 329.695 98.2344C293.877 98.2344 264.84 127.271 264.84 163.09C264.84 198.909 293.877 227.946 329.695 227.946Z" fill="#31C2C9"/>
<path d="M199.423 368.843V366.948C199.423 350.023 185.697 336.297 168.771 336.297H148.062C131.13 336.297 117.41 350.023 117.41 366.948V368.843H199.423Z" fill="#31B8BF"/>
<path d="M158.416 344.081C173.65 344.081 185.999 331.732 185.999 316.498C185.999 301.264 173.65 288.914 158.416 288.914C143.182 288.914 130.832 301.264 130.832 316.498C130.832 331.732 143.182 344.081 158.416 344.081Z" fill="#EEEAE6"/>
<path d="M370.696 194.456V192.562C370.696 175.636 356.971 161.91 340.045 161.91H319.335C302.404 161.91 288.684 175.636 288.684 192.562V194.456H370.696Z" fill="#E86722"/>
<path d="M329.693 169.695C344.927 169.695 357.277 157.345 357.277 142.111C357.277 126.877 344.927 114.527 329.693 114.527C314.459 114.527 302.109 126.877 302.109 142.111C302.109 157.345 314.459 169.695 329.693 169.695Z" fill="#F9CF1C"/>
<path d="M310.473 191.083C292.517 181.764 266.299 194.917 245.358 221.404C224.417 194.917 198.2 181.764 180.244 191.083C157.463 202.909 156.615 246.421 178.338 288.281C192.807 316.157 213.644 336.266 232.679 343.096C236.579 344.936 240.853 345.751 245.358 345.635C249.864 345.757 254.138 344.936 258.037 343.096C277.073 336.266 297.904 316.157 312.379 288.281C334.107 246.427 333.254 202.909 310.473 191.083Z" fill="#D51E44"/>
</svg>
