<svg width="500" height="500" viewBox="0 0 500 500" fill="none" xmlns="http://www.w3.org/2000/svg">
<circle cx="250" cy="250" r="250" fill="#8FA8FF"/>
<path d="M193.88 113.005C147.904 113.711 110.801 151.54 110.955 197.527C110.982 205.238 112.043 212.711 114.012 219.801C114.856 222.837 114.028 226.09 111.857 228.377L78.8203 263.097C76.9203 265.092 78.5602 268.367 81.2934 268.048L136.504 261.584C138.855 261.308 141.227 261.966 143.085 263.437C157.372 274.698 175.384 281.438 194.978 281.491C240.896 281.608 278.672 244.585 279.437 198.673C280.222 151.052 241.49 112.283 193.885 113.01L193.88 113.005Z" fill="#FBD11D"/>
<path d="M234.156 152.074C223.457 146.517 207.832 154.356 195.35 170.145C182.873 154.361 167.243 146.522 156.544 152.074C142.968 159.122 142.459 185.052 155.408 209.996C164.032 226.608 176.446 238.591 187.793 242.662C190.117 243.76 192.665 244.243 195.35 244.174C198.035 244.243 200.583 243.76 202.907 242.662C214.249 238.591 226.668 226.608 235.292 209.996C248.241 185.052 247.732 159.116 234.156 152.074Z" fill="#D51E44"/>
<path d="M306.19 219.513C352.166 220.218 389.268 258.048 389.114 304.035C389.088 311.746 388.026 319.218 386.057 326.309C385.214 329.344 386.041 332.598 388.212 334.885L421.249 369.605C423.149 371.6 421.509 374.875 418.776 374.556L363.566 368.092C361.214 367.816 358.842 368.474 356.985 369.944C342.698 381.206 324.685 387.946 305.091 387.999C259.174 388.116 221.397 351.093 220.633 305.181C219.847 257.56 258.579 218.791 306.184 219.518L306.19 219.513Z" fill="#E86722"/>
<path d="M268.305 318.013C268.305 318.013 271.149 303.148 277.656 295.426C284.163 287.704 294.819 285.348 299.962 280.051C305.11 274.754 322.31 260.786 325.941 259.257C331.391 256.97 335.748 259.937 336.321 263.185C337.107 267.659 334.252 270.785 330.621 275.328C326.991 279.871 319.344 285.013 323.276 285.464C327.214 285.921 343.916 285.618 343.916 285.618C343.916 285.618 356.414 285.618 356.717 292.279C357.019 298.939 351.733 300.908 351.431 302.118C351.128 303.328 356.425 304.087 356.425 309.23C356.425 314.372 348.703 318.008 348.703 318.008C348.703 318.008 353.395 320.125 352.641 325.73C351.882 331.329 346.283 332.693 344.314 332.841C344.314 332.841 349.611 336.471 348.098 342.378C346.585 348.28 339.017 349.039 333.869 349.039H295.875C295.875 349.039 284.226 347.951 278.086 344.22C271.945 340.494 268.533 334.126 268.305 318.008V318.013Z" fill="#F8CE1D"/>
<path d="M252.477 293.813V343.275C252.477 345.96 254.653 348.137 257.338 348.137H275.319C278.003 348.137 280.18 345.96 280.18 343.275V293.813C280.18 291.128 278.003 288.951 275.319 288.951H257.338C254.653 288.951 252.477 291.128 252.477 293.813Z" fill="#45B34A"/>
</svg>
