<svg width="500" height="500" viewBox="0 0 500 500" fill="none" xmlns="http://www.w3.org/2000/svg">
<mask id="mask0_5631_1716" style="mask-type:luminance" maskUnits="userSpaceOnUse" x="0" y="0" width="500" height="500">
<path d="M250 500C388.071 500 500 388.071 500 250C500 111.929 388.071 0 250 0C111.929 0 0 111.929 0 250C0 388.071 111.929 500 250 500Z" fill="white"/>
</mask>
<g mask="url(#mask0_5631_1716)">
<path d="M250 500C388.071 500 500 388.071 500 250C500 111.929 388.071 0 250 0C111.929 0 0 111.929 0 250C0 388.071 111.929 500 250 500Z" fill="#31C2C9"/>
<path d="M250.005 318.299C279.688 318.299 303.752 294.235 303.752 264.552C303.752 234.868 279.688 210.805 250.005 210.805C220.321 210.805 196.258 234.868 196.258 264.552C196.258 294.235 220.321 318.299 250.005 318.299Z" fill="white"/>
<path d="M182.191 336.301V675.943C182.191 690.504 193.366 703.055 207.91 703.706C223.337 704.374 236.046 692.079 236.046 676.793V571.349C236.046 563.715 241.947 557.043 249.582 556.828C257.471 556.59 263.967 562.927 263.967 570.76V676.793C263.967 691.665 276.008 703.729 290.88 703.729C298.317 703.729 305.045 700.721 309.927 695.839C314.809 690.957 317.816 684.229 317.816 676.793V336.306H182.191V336.301Z" fill="white"/>
<path d="M103.243 258.641L247.477 402.875L208.988 441.365L64.7533 297.131C54.1327 286.51 54.1327 269.266 64.7533 258.645C75.3738 248.025 92.6182 248.025 103.239 258.645L103.243 258.641Z" fill="white"/>
<path d="M435.234 294.211L291 438.446L252.51 399.956L396.744 255.722C407.365 245.101 424.609 245.101 435.23 255.722C445.85 266.343 445.85 283.587 435.23 294.207L435.234 294.211Z" fill="white"/>
<path d="M245.909 160.236L220.531 173.58C214.086 176.966 206.553 171.495 207.782 164.32L212.63 136.064C213.117 133.215 212.172 130.304 210.104 128.288L189.574 108.273C184.358 103.193 187.235 94.3353 194.445 93.2875L222.819 89.1645C225.679 88.751 228.154 86.95 229.434 84.3561L242.12 58.6436C245.343 52.1136 254.654 52.1136 257.876 58.6436L270.563 84.3561C271.843 86.95 274.318 88.7454 277.178 89.1645L305.552 93.2875C312.756 94.3353 315.633 103.193 310.423 108.273L289.892 128.288C287.82 130.304 286.879 133.215 287.366 136.064L292.214 164.32C293.443 171.495 285.911 176.972 279.466 173.58L254.087 160.236C251.528 158.888 248.469 158.888 245.909 160.236Z" fill="#FBD11D"/>
</g>
</svg>
