<svg width="500" height="500" viewBox="0 0 500 500" fill="none" xmlns="http://www.w3.org/2000/svg">
<circle cx="250" cy="250" r="250" fill="#F9F6F2"/>
<path d="M298.632 248.879H298.632H336.2C350.736 248.879 364.622 252.913 374.81 260.024C384.994 267.133 390.566 276.66 390.566 286.451V355.554H244.258V286.451C244.258 281.593 245.628 276.763 248.318 272.231C251.01 267.694 254.976 263.54 260.017 260.022C265.058 256.504 271.062 253.7 277.694 251.783C284.325 249.867 291.441 248.878 298.632 248.879Z" fill="#F26722" stroke="#F26722" stroke-width="2.48488"/>
<path d="M365.852 196.486C365.852 225.195 343.999 248.335 317.202 248.335C290.404 248.335 268.551 225.195 268.551 196.486C268.551 167.777 290.404 144.637 317.202 144.637C343.999 144.637 365.852 167.777 365.852 196.486Z" fill="#F9CF1C" stroke="#F9F6F2" stroke-width="2.48488"/>
<path d="M178.089 238.051H178.089H224.757C242.827 238.051 260.116 243.795 272.827 253.961C285.531 264.122 292.594 277.836 292.594 292.058V390.947H110.242V292.058C110.242 285.009 111.978 278.019 115.362 271.485C118.748 264.949 123.72 258.99 130.012 253.959C136.304 248.927 143.788 244.925 152.041 242.192C160.294 239.458 169.145 238.05 178.089 238.051Z" fill="#DF1E44" stroke="#DF1E44" stroke-width="2.48488"/>
<path d="M262.598 173.253C262.598 209.231 235.207 238.264 201.578 238.264C167.95 238.264 140.559 209.231 140.559 173.253C140.559 137.275 167.95 108.242 201.578 108.242C235.207 108.242 262.598 137.275 262.598 173.253Z" fill="#F9CF1C" stroke="#F9F6F2" stroke-width="2.48488"/>
</svg>
