<svg width="500" height="500" viewBox="0 0 500 500" fill="none" xmlns="http://www.w3.org/2000/svg">
<circle cx="250" cy="250" r="250" fill="#F9F6F2"/>
<rect x="139" y="100" width="219" height="296" rx="6.14437" fill="#F9CF1C"/>
<path d="M326.367 149H167.633C163.97 149 161 152.106 161 155.938V158.062C161 161.894 163.97 165 167.633 165H326.367C330.03 165 333 161.894 333 158.062V155.938C333 152.106 330.03 149 326.367 149Z" fill="#00B4C1"/>
<path d="M326.367 186H167.633C163.97 186 161 188.718 161 192.071V193.929C161 197.282 163.97 200 167.633 200H326.367C330.03 200 333 197.282 333 193.929V192.071C333 188.718 330.03 186 326.367 186Z" fill="#00B4C1"/>
<path d="M326.367 219H167.633C163.97 219 161 222.494 161 226.805V229.195C161 233.506 163.97 237 167.633 237H326.367C330.03 237 333 233.506 333 229.195V226.805C333 222.494 330.03 219 326.367 219Z" fill="#00B4C1"/>
<path d="M260.989 254H165.011C162.796 254 161 257.106 161 260.938V263.062C161 266.894 162.796 270 165.011 270H260.989C263.204 270 265 266.894 265 263.062V260.938C265 257.106 263.204 254 260.989 254Z" fill="#00B4C1"/>
<path d="M311.73 410.259L281.177 424.066C279.924 424.632 278.54 424.835 277.175 424.652C275.81 424.468 274.514 423.906 273.429 423.026C272.343 422.146 271.509 420.981 271.015 419.657C270.521 418.333 270.387 416.9 270.627 415.513L275.35 387.694C276.015 383.738 277.614 380.021 280.009 376.868L289.949 363.82L325.31 392.398L311.73 410.259Z" fill="#00B4C1"/>
<path d="M345.441 290.508L290.207 363.531L325.497 392.245L380.731 319.221L345.441 290.508Z" fill="#FF6801"/>
<path d="M345.603 290.392L354.667 278.493C357.745 274.429 363.056 273.408 366.512 276.197L389.307 294.617C392.763 297.407 393.059 302.958 389.966 307.019L380.91 318.92L345.603 290.392Z" fill="#00B4C1"/>
</svg>
