<svg width="500" height="500" viewBox="0 0 500 500" fill="none" xmlns="http://www.w3.org/2000/svg">
<circle cx="250" cy="250" r="250" fill="#95DCDE"/>
<path d="M391.793 310.54C391.793 314.768 395.216 318.195 399.444 318.195C401.556 318.195 403.471 317.338 404.856 315.952C406.242 314.566 407.099 312.652 407.099 310.54V283.746H391.793V310.54Z" fill="#FBD11D"/>
<path d="M368.555 310.299C368.555 314.436 371.733 318.005 375.862 318.191C380.248 318.38 383.86 314.886 383.86 310.54V283.746H368.555V310.299Z" fill="#FBD11D"/>
<path d="M345.038 248.955C348.619 251.493 353.553 250.51 355.902 246.859L368.551 231.052L369.613 204.227L343.163 238.367C340.92 241.845 341.659 246.567 345.038 248.955Z" fill="#FBD11D"/>
<path d="M430.614 248.955C433.993 246.567 434.732 241.849 432.489 238.367L406.039 204.227L407.101 229.99L419.75 246.855C422.099 250.507 427.037 251.49 430.614 248.951V248.955Z" fill="#FBD11D"/>
<path d="M430.614 248.955C433.993 246.567 434.732 241.849 432.489 238.367L406.039 204.227L407.101 231.052L419.75 246.859C422.099 250.51 427.037 251.493 430.614 248.955Z" fill="#FBD11D"/>
<path d="M387.829 198.775C396.266 198.775 403.107 191.934 403.107 183.497C403.107 175.059 396.266 168.219 387.829 168.219C379.391 168.219 372.551 175.059 372.551 183.497C372.551 191.934 379.391 198.775 387.829 198.775Z" fill="#FBD11D"/>
<path d="M416.223 283.747L406.041 204.23H369.615L359.43 283.747H416.223Z" fill="#FBD11D"/>
<path d="M407.099 290.909V279.551H391.793V294.098L407.099 290.909Z" fill="#FBD11D"/>
<path d="M379.697 296.68L383.38 294.094V271.023L366.578 275.67L372.555 298.224L379.697 296.68Z" fill="#FBD11D"/>
<path d="M113.923 202.198C123.024 202.198 130.401 194.821 130.401 185.72C130.401 176.62 123.024 169.242 113.923 169.242C104.823 169.242 97.4453 176.62 97.4453 185.72C97.4453 194.821 104.823 202.198 113.923 202.198Z" fill="#F26722"/>
<path d="M70.4068 252.463C74.2678 255.203 79.5933 254.141 82.1278 250.201L93.1342 235.507V207.719L68.3856 241.046C65.9656 244.796 66.763 249.889 70.4068 252.463Z" fill="#F26722"/>
<path d="M93.1367 207.719V311.846C93.1367 316.311 96.5634 320.16 101.02 320.357C105.75 320.562 109.646 316.792 109.646 312.106V279.778C109.646 277.437 111.454 275.392 113.795 275.325C116.215 275.254 118.205 277.196 118.205 279.596V312.106C118.205 316.666 121.896 320.365 126.456 320.365C128.738 320.365 130.799 319.441 132.295 317.945C133.791 316.449 134.715 314.388 134.715 312.106V207.719H93.1367Z" fill="#F26722"/>
<path d="M157.62 252.463C161.264 249.889 162.061 244.796 159.641 241.046L134.711 207.719V235.507L145.899 250.201C148.433 254.141 153.759 255.203 157.62 252.463Z" fill="#F26722"/>
<path d="M157.62 252.463C161.264 249.889 162.061 244.796 159.641 241.046L134.711 207.719V235.507L145.899 250.201C148.433 254.141 153.759 255.203 157.62 252.463Z" fill="#F26722"/>
<path d="M358.622 118.939C328.923 103.523 285.556 125.279 250.922 169.092C216.288 125.279 172.922 103.523 143.223 118.939C105.545 138.496 104.136 210.473 140.072 279.705C164.008 325.811 198.468 359.071 229.952 370.37C236.406 373.414 243.469 374.764 250.926 374.566C258.38 374.764 265.446 373.414 271.901 370.37C303.381 359.071 337.845 325.811 361.78 279.705C397.717 210.473 396.308 138.496 358.63 118.939H358.622Z" fill="#DF1E44"/>
<path d="M355.27 346.102C355.27 350.33 358.692 353.757 362.92 353.757C365.032 353.757 366.947 352.9 368.333 351.515C369.718 350.129 370.575 348.214 370.575 346.102V319.309H355.27V346.102Z" fill="#F26722"/>
<path d="M332.031 345.861C332.031 349.999 335.209 353.568 339.339 353.753C343.725 353.943 347.337 350.449 347.337 346.102V319.309H332.031V345.861Z" fill="#F26722"/>
<path d="M308.511 284.518C312.091 287.056 317.026 286.073 319.375 282.421L332.024 266.614L333.086 239.789L306.635 273.93C304.393 277.408 305.131 282.129 308.511 284.518Z" fill="#F26722"/>
<path d="M394.091 284.518C397.47 282.129 398.208 277.412 395.966 273.93L369.516 239.789L370.578 265.552L383.226 282.417C385.575 286.069 390.514 287.052 394.091 284.514V284.518Z" fill="#F26722"/>
<path d="M394.091 284.518C397.47 282.129 398.208 277.412 395.966 273.93L369.516 239.789L370.578 266.614L383.226 282.421C385.575 286.073 390.514 287.056 394.091 284.518Z" fill="#F26722"/>
<path d="M351.301 234.337C359.739 234.337 366.579 227.497 366.579 219.059C366.579 210.621 359.739 203.781 351.301 203.781C342.864 203.781 336.023 210.621 336.023 219.059C336.023 227.497 342.864 234.337 351.301 234.337Z" fill="#F26722"/>
<path d="M379.695 319.309L369.514 239.789H333.088L322.902 319.309H379.695Z" fill="#F26722"/>
<path d="M151.521 237.745C160.622 237.745 167.999 230.368 167.999 221.267C167.999 212.167 160.622 204.789 151.521 204.789C142.42 204.789 135.043 212.167 135.043 221.267C135.043 230.368 142.42 237.745 151.521 237.745Z" fill="#FBD11D"/>
<path d="M108.004 288.014C111.865 290.754 117.191 289.692 119.725 285.752L130.732 271.058V243.27L105.983 276.597C103.563 280.347 104.361 285.44 108.004 288.014Z" fill="#FBD11D"/>
<path d="M130.734 243.262V347.389C130.734 351.854 134.161 355.703 138.618 355.9C143.348 356.105 147.244 352.335 147.244 347.649V315.321C147.244 312.98 149.052 310.935 151.393 310.868C153.813 310.797 155.803 312.739 155.803 315.139V347.649C155.803 352.209 159.494 355.908 164.054 355.908C166.336 355.908 168.396 354.984 169.892 353.488C171.389 351.992 172.312 349.931 172.312 347.649V243.262H130.734Z" fill="#FBD11D"/>
<path d="M195.218 288.01C198.861 285.436 199.659 280.343 197.239 276.593L172.309 243.266V271.054L183.497 285.748C186.031 289.688 191.357 290.75 195.218 288.01Z" fill="#FBD11D"/>
<path d="M195.218 288.01C198.861 285.436 199.659 280.343 197.239 276.593L172.309 243.266V271.054L183.497 285.748C186.031 289.688 191.357 290.75 195.218 288.01Z" fill="#FBD11D"/>
<path d="M216.574 377.344C216.574 381.573 219.997 384.999 224.225 384.999C226.337 384.999 228.252 384.143 229.637 382.757C231.023 381.371 231.88 379.456 231.88 377.344V350.551H216.574V377.344Z" fill="#A6D39A"/>
<path d="M193.336 377.104C193.336 381.241 196.514 384.81 200.643 384.995C205.029 385.185 208.642 381.691 208.642 377.344V350.551H193.336V377.104Z" fill="#A6D39A"/>
<path d="M169.819 315.76C173.4 318.298 178.335 317.315 180.684 313.663L193.332 297.856L194.394 271.031L167.944 305.172C165.702 308.65 166.44 313.371 169.819 315.76Z" fill="#A6D39A"/>
<path d="M255.391 315.768C258.771 313.379 259.509 308.661 257.267 305.18L230.816 271.039L231.878 296.802L244.527 313.667C246.876 317.319 251.815 318.302 255.391 315.764V315.768Z" fill="#A6D39A"/>
<path d="M255.391 315.768C258.771 313.379 259.509 308.661 257.267 305.18L230.816 271.039L231.878 297.864L244.527 313.671C246.876 317.323 251.815 318.306 255.391 315.768Z" fill="#A6D39A"/>
<path d="M212.61 265.575C221.048 265.575 227.888 258.735 227.888 250.297C227.888 241.86 221.048 235.02 212.61 235.02C204.172 235.02 197.332 241.86 197.332 250.297C197.332 258.735 204.172 265.575 212.61 265.575Z" fill="#A6D39A"/>
<path d="M241.008 350.552L230.822 271.031H194.396L184.211 350.552H241.008Z" fill="#A6D39A"/>
<path d="M128.403 246.4L130.732 243.266H134.715L135.043 275.673L130.732 271.058L127.273 275.673L128.403 246.4Z" fill="#FBD11D"/>
<path d="M175.015 246.886L172.307 243.266H167.996V279.55L172.307 271.058L175.015 274.611V246.886Z" fill="#FBD11D"/>
<path d="M89.6523 212.401L93.1343 207.715H97.4453V243.265L93.1343 235.503L89.6523 240.15V212.401Z" fill="#F26722"/>
<path d="M365.062 239.785H369.515L375.705 247.775L377.825 275.671L373.403 270.144L374.607 279.547L362.922 266.828L365.062 239.785Z" fill="#F26722"/>
<path d="M336.02 239.785H333.087L328.168 246.133L327.434 272.347L329.084 271.024L328.223 277.759L339.68 259.666L336.02 239.785Z" fill="#F26722"/>
<path d="M187.796 279.547L194.397 271.023H198.625L195.648 310.782L190.457 301.777L186.367 306.554L187.796 279.547Z" fill="#A6D39A"/>
<path d="M225.617 271.023H230.824L236.039 277.758L238.755 306.435L234.764 301.777L235.917 310.782L220.059 295.484L225.617 271.023Z" fill="#A6D39A"/>
<path d="M401.099 204.238H406.038L412.611 212.722L414.083 239.788L410.266 235.019L411.166 244.297L397.242 233.874L401.099 204.238Z" fill="#FBD11D"/>
<path d="M370.37 330.05V309.348L355.266 319.308V333.757L370.37 330.05Z" fill="#F26722"/>
<path d="M347.333 309.348H332.027V328.672H347.333V309.348Z" fill="#F26722"/>
<path d="M287.302 266.827C296.403 266.827 303.78 259.45 303.78 250.349C303.78 241.249 296.403 233.871 287.302 233.871C278.202 233.871 270.824 241.249 270.824 250.349C270.824 259.45 278.202 266.827 287.302 266.827Z" fill="#31C2C9"/>
<path d="M243.786 317.092C247.647 319.832 252.972 318.77 255.507 314.83L266.513 300.136V272.348L241.764 305.675C239.344 309.425 240.142 314.518 243.786 317.092Z" fill="#31C2C9"/>
<path d="M266.516 272.348V376.475C266.516 380.94 269.942 384.789 274.399 384.986C279.129 385.191 283.025 381.421 283.025 376.735V344.407C283.025 342.066 284.833 340.021 287.174 339.954C289.594 339.882 291.584 341.825 291.584 344.225V376.735C291.584 381.295 295.275 384.994 299.835 384.994C302.117 384.994 304.178 384.07 305.674 382.574C307.17 381.078 308.094 379.017 308.094 376.735V272.348H266.516Z" fill="#31C2C9"/>
<path d="M330.999 317.092C334.643 314.518 335.44 309.425 333.02 305.675L308.09 272.348V300.136L319.278 314.83C321.812 318.77 327.138 319.832 330.999 317.092Z" fill="#F26722"/>
<path d="M330.999 317.092C334.643 314.518 335.44 309.425 333.02 305.675L308.09 272.348V300.136L319.278 314.83C321.812 318.77 327.138 319.832 330.999 317.092Z" fill="#31C2C9"/>
<path d="M306.833 274.049L308.092 272.348L309.525 274.27L308.581 300.784L308.092 300.14V301.778L302.699 295.675L306.833 274.049Z" fill="#31C2C9"/>
<path d="M262.496 277.76L266.511 272.348H270.822V309.346L266.511 300.14L262.496 305.501V277.76Z" fill="#31C2C9"/>
<path d="M193.336 357.546V342.406H208.642V360.945L193.336 357.546Z" fill="#A6D39A"/>
<path d="M216.574 357.546V340.555H231.884V360.945L216.574 357.546Z" fill="#A6D39A"/>
</svg>
