<svg width="500" height="500" viewBox="0 0 500 500" fill="none" xmlns="http://www.w3.org/2000/svg">
<circle cx="250" cy="250" r="250" fill="#F9AC80"/>
<path d="M158.571 156.471C158.571 156.471 155.346 147.929 142.449 149.38C129.552 150.832 121.658 160.665 110.052 168.077C98.4461 175.489 94.5793 187.583 100.867 195.965C107.155 204.347 115.281 205.638 128.22 200.48C141.158 195.323 160.183 188.232 170.498 177.268C180.813 166.304 183.877 159.213 180.492 150.832C177.107 142.45 165.34 147.929 162.598 154.216C159.856 160.504 146.477 172.11 128.107 176.947C128.107 176.947 137.458 170.659 143.58 167.435C149.701 164.21 157.928 159.374 158.571 156.471Z" fill="#FBD11D"/>
<path d="M162.755 146.554C162.755 146.554 157.919 120.362 183.873 111.658C209.822 102.955 226.264 130.516 220.464 147.601C214.664 164.686 201.125 172.265 184.034 168.553C184.034 168.553 190.322 155.335 183.391 146.548C176.461 137.762 164.052 144.05 162.761 146.548L162.755 146.554Z" fill="#FBD11D"/>
<path d="M213.368 166.788C213.368 166.788 225.456 158.888 227.068 140.512C227.068 140.512 236.902 155.181 236.42 183.224C235.938 211.273 228.038 213.688 219.977 213.206C211.917 212.724 198.377 198.376 196.765 197.412L175.974 261.082L202.089 285.419C202.089 285.419 205.153 287.031 205.474 297.507C205.7 304.806 205.968 343.705 206.111 366.638C206.17 375.977 198.615 383.58 189.269 383.58C179.972 383.58 172.428 376.043 172.428 366.739V301.855L148.96 279.494C147.913 278.494 146.212 279.517 146.611 280.909L153.089 303.782L119.026 373.217C114.761 381.908 104.083 385.233 95.6354 380.51C87.7473 376.096 84.7372 366.245 88.8181 358.172L118.431 299.589C118.431 299.589 110.692 260.261 109.08 249.946C107.468 239.631 109.883 219.482 118.752 207.715C118.752 207.715 159.21 200.946 180.971 172.736C180.971 172.736 193.38 176.764 204.023 172.415C204.023 172.415 209.18 179.667 213.047 179.667C216.914 179.667 216.11 174.991 215.629 172.736C215.147 170.482 213.374 166.77 213.374 166.77L213.368 166.788Z" fill="#FBD11D"/>
<path d="M241.258 143.407V141.474L289.128 120.355L290.419 125.834L241.258 143.407Z" fill="#FBD11D"/>
<path d="M244.531 154.104V152.277L296.863 156.578L295.786 163.021L244.531 154.104Z" fill="#FBD11D"/>
<path d="M242.275 163.02L286.338 191.717L282.465 196.654L241.258 164.525L242.275 163.02Z" fill="#FBD11D"/>
<path d="M349.285 188.218C364.841 188.218 377.452 175.607 377.452 160.05C377.452 144.494 364.841 131.883 349.285 131.883C333.728 131.883 321.117 144.494 321.117 160.05C321.117 175.607 333.728 188.218 349.285 188.218Z" fill="#31C2C9"/>
<path d="M317.217 169.845C317.217 169.845 325.861 195.479 351.494 193.093C377.127 190.708 381.898 165.669 381.898 165.669C381.898 165.669 411.999 163.302 411.999 193.248V290.856C411.999 296.781 407.193 301.587 401.268 301.587C395.343 301.587 390.536 296.781 390.536 290.856V212.022C390.536 211.118 389.804 210.38 388.894 210.38H388.002C387.098 210.38 386.36 211.112 386.36 212.022V375.805C386.36 383.211 380.358 389.219 372.945 389.219C365.539 389.219 359.531 383.217 359.531 375.805V287.429C359.531 286.192 358.532 285.192 357.294 285.192C356.057 285.192 355.057 286.192 355.057 287.429V375.805C355.057 383.211 349.055 389.219 341.643 389.219C334.237 389.219 328.228 383.217 328.228 375.805V210.713C328.228 209.809 327.497 209.072 326.586 209.072C325.682 209.072 323.755 209.803 323.755 210.713V289.815C323.755 296.317 319.674 301.587 313.172 301.587H311.982C305.48 301.587 300.209 296.317 300.209 289.815V210.678C300.209 210.678 299.609 181.767 317.199 169.845H317.217Z" fill="#31C2C9"/>
</svg>
